<?xml version="1.0" encoding="UTF-8"?>
<!DOCTYPE svg PUBLIC "-//W3C//DTD SVG 1.1//EN" "http://www.w3.org/Graphics/SVG/1.1/DTD/svg11.dtd">
<svg version="1.1" xmlns="http://www.w3.org/2000/svg" xmlns:xlink="http://www.w3.org/1999/xlink" x="0" y="0" width="468.014" height="581.489" viewBox="0, 0, 468.014, 581.489">
  <g id="Layer_1" transform="translate(-48.889, -23.589)">
    <path d="M130.686,244.339 L130.57,244.38 L130.11,244.576 L129.605,244.828 L129.105,245.104 L128.594,245.406 L128.065,245.734 L127.512,246.087 L126.937,246.464 L126.339,246.864 L125.72,247.286 L124.762,247.948 L123.428,248.885 L122.053,249.865 L120.668,250.861 L119.298,251.85 L117.972,252.807 L117.023,253.489 L116.421,253.919 L115.846,254.329 L115.301,254.713 L114.793,255.068 L114.326,255.39 L113.905,255.675 L113.536,255.919 L113.228,256.115 L112.995,256.256 L112.944,256.283 L113.047,256.225 L112.773,256.373 L112.318,256.586 L111.766,256.813 L111.087,257.063 L110.303,257.325 L109.43,257.589 L108.48,257.851 L107.465,258.105 L106.392,258.349 L105.271,258.579 L104.11,258.795 L102.915,258.992 L101.695,259.167 L100.458,259.318 L99.21,259.443 L97.96,259.538 L96.713,259.602 L95.478,259.632 L94.261,259.626 L93.071,259.582 L91.913,259.497 L90.795,259.371 L89.724,259.2 L88.708,258.984 L87.753,258.72 L86.866,258.407 L86.054,258.044 L85.324,257.632 L84.843,257.295 L84.553,257.059 L84.279,256.805 L84.028,256.538 L83.802,256.26 L83.6,255.969 L83.425,255.668 L83.274,255.354 L83.216,255.21 L83.225,255.233 L83.014,254.685 L82.628,253.615 L82.284,252.562 L81.978,251.519 L81.711,250.488 L81.48,249.468 L81.287,248.46 L81.13,247.465 L81.009,246.482 L80.922,245.511 L80.87,244.554 L80.852,243.611 L80.866,242.682 L80.913,241.767 L80.991,240.867 L81.099,239.982 L81.237,239.113 L81.403,238.261 L81.597,237.425 L81.817,236.607 L82.062,235.805 L82.333,235.022 L82.627,234.255 L82.945,233.506 L83.284,232.775 L83.645,232.061 L84.026,231.363 L84.426,230.683 L84.847,230.017 L85.287,229.367 L85.745,228.73 L86.223,228.107 L86.721,227.495 L87.239,226.895 L88.082,225.981 L89.273,224.809 L90.522,223.702 L91.862,222.626 L93.293,221.581 L94.816,220.569 L96.427,219.594 L98.124,218.659 L99.903,217.769 L101.758,216.927 L103.685,216.137 L105.679,215.401 L107.733,214.724 L109.844,214.106 L112.006,213.551 L114.215,213.06 L116.465,212.636 L118.752,212.28 L121.072,211.993 L123.421,211.778 L125.793,211.636 L128.185,211.568 L130.591,211.575 L133.01,211.659 L135.435,211.821 L137.862,212.062 L140.289,212.383 L142.712,212.784 L145.126,213.267 L147.527,213.834 L149.911,214.486 L152.273,215.224 L154.611,216.05 L156.92,216.963 L159.196,217.966 L161.435,219.06 L163.634,220.245 L165.788,221.522 L167.894,222.893 L169.436,223.981 L170.445,224.735 L171.444,225.516 L172.428,226.32 L173.398,227.15 L174.351,228.003 L175.288,228.881 L176.209,229.784 L177.112,230.711 L177.998,231.664 L178.866,232.641 L179.715,233.644 L180.545,234.672 L181.356,235.725 L182.147,236.804 L182.917,237.909 L183.292,238.467 L183.282,238.451 L183.669,239.054 L184.36,240.243 L184.969,241.44 L185.51,242.656 L185.989,243.889 L186.413,245.141 L186.788,246.408 L187.12,247.69 L187.552,249.649 L188.034,252.298 L188.454,254.978 L188.864,257.689 L189.082,259.056 L189.082,259.056 L189.196,259.775 L189.399,261.202 L189.572,262.632 L189.717,264.072 L189.88,266.258 L189.998,269.196 L190.001,272.147 L189.892,275.109 L189.672,278.075 L189.342,281.034 L188.904,283.976 L188.359,286.894 L187.706,289.777 L187.152,291.896 L186.753,293.287 L186.325,294.677 L185.871,296.052 L185.393,297.41 L184.891,298.749 L184.365,300.068 L183.816,301.366 L183.243,302.642 L182.649,303.894 L182.355,304.486 L182.372,304.451 L182.055,305.08 L181.412,306.333 L180.743,307.61 L180.044,308.923 L179.319,310.269 L178.569,311.647 L177.797,313.055 L177.004,314.492 L175.784,316.699 L174.112,319.728 L172.405,322.846 L170.68,326.045 L168.959,329.315 L167.259,332.647 L165.601,336.03 L164.003,339.454 L162.486,342.91 L161.07,346.388 L159.773,349.878 L158.887,352.514 L158.342,354.277 L157.845,356.019 L157.392,357.757 L156.986,359.489 L156.629,361.214 L156.324,362.93 L156.074,364.635 L155.88,366.329 L155.747,368.009 L155.675,369.675 L155.668,371.324 L155.728,372.955 L155.858,374.567 L156.059,376.157 L156.334,377.725 L156.685,379.268 L157.116,380.787 L157.627,382.279 L158.221,383.742 L158.9,385.175 L159.667,386.578 L160.523,387.949 L161.47,389.286 L162.511,390.589 L163.648,391.857 L164.882,393.088 L166.215,394.281 L167.651,395.436 L169.191,396.55 L170.836,397.624 L172.146,398.405 L173.055,398.913 L173.988,399.408 L174.948,399.891 L175.936,400.363 L176.953,400.824 L177.477,401.053 L177.477,401.053 C177.481,401.054 177.484,401.056 177.488,401.058 L177.488,401.058 L178.485,401.48 L180.504,402.299 L182.539,403.075 L184.585,403.808 L186.64,404.498 L188.705,405.147 L190.779,405.754 L192.862,406.321 L194.953,406.849 L197.053,407.338 L199.16,407.79 L201.275,408.206 L203.397,408.585 L205.527,408.93 L207.662,409.241 L209.803,409.518 L213.02,409.874 L217.33,410.241 L221.664,410.493 L226.015,410.635 L230.378,410.675 L234.752,410.621 L239.133,410.478 L243.52,410.255 L247.909,409.958 L252.297,409.595 L256.682,409.173 L261.062,408.699 L265.433,408.18 L269.793,407.624 L276.304,406.734 L284.928,405.48 L293.467,404.202 L299.799,403.262 L303.979,402.659 L308.127,402.08 L312.237,401.535 L314.273,401.277 L314.265,401.278 L315.039,401.183 L316.612,400.997 L318.223,400.813 L319.875,400.631 L322.428,400.359 L325.956,399.997 L329.614,399.629 L333.391,399.25 L337.274,398.852 L341.248,398.431 L345.301,397.981 L349.42,397.494 L353.593,396.966 L357.806,396.389 L362.048,395.759 L366.305,395.068 L370.566,394.31 L374.818,393.48 L379.049,392.57 L383.249,391.573 L386.381,390.762 L388.459,390.189 L390.512,389.593 L392.55,388.97 L394.571,388.319 L396.574,387.64 L398.558,386.93 L400.523,386.19 L402.466,385.417 L404.387,384.61 L406.286,383.768 L408.159,382.889 L410.009,381.971 L411.833,381.013 L413.629,380.013 L415.399,378.968 L417.139,377.877 L418.85,376.737 L420.529,375.546 L422.174,374.303 L423.784,373.004 L425.354,371.648 L426.88,370.236 L428.359,368.767 L429.784,367.242 L431.15,365.662 L432.452,364.032 L433.683,362.353 L434.314,361.435 L434.314,361.435 C434.346,361.389 434.377,361.342 434.408,361.295 L434.408,361.295 L434.763,360.747 L435.561,359.41 L436.31,357.995 L436.959,356.587 L437.515,355.188 L437.981,353.801 L438.365,352.423 L438.672,351.055 L438.906,349.695 L439.073,348.34 L439.176,346.99 L439.219,345.643 L439.206,344.298 L439.139,342.953 L439.021,341.608 L438.855,340.262 L438.642,338.914 L438.386,337.565 L438.088,336.215 L437.75,334.862 L437.374,333.507 L436.962,332.15 L436.284,330.118 L435.27,327.401 L434.144,324.674 L432.922,321.947 L431.618,319.225 L430.248,316.509 L428.825,313.805 L426.626,309.781 L424.386,305.801 L422.896,303.181 L421.425,300.596 L419.989,298.047 L418.599,295.54 L417.273,293.081 L416.024,290.673 L415.147,288.908 L414.596,287.752 L414.07,286.609 L413.573,285.484 L413.107,284.376 L412.674,283.287 L412.276,282.218 L411.914,281.17 L411.59,280.144 L411.305,279.141 L411.182,278.661 L411.186,278.676 L410.595,276.274 L409.744,272.651 L409.211,270.226 L408.709,267.787 L408.246,265.337 L407.827,262.879 L407.46,260.413 L407.15,257.941 L406.903,255.464 L406.725,252.985 L406.622,250.504 L406.599,248.024 L406.663,245.547 L406.819,243.075 L407.071,240.609 L407.231,239.408 L407.224,239.461 L407.319,238.836 L407.534,237.64 L407.788,236.45 L408.086,235.24 L408.426,234.013 L408.807,232.77 L409.229,231.513 L409.691,230.245 L410.191,228.967 L410.729,227.681 L411.304,226.389 L411.915,225.093 L412.56,223.796 L413.239,222.498 L413.951,221.202 L414.694,219.911 L415.468,218.625 L416.271,217.348 L417.103,216.08 L417.961,214.824 L418.846,213.582 L419.755,212.355 L420.689,211.145 L421.644,209.956 L422.621,208.787 L423.618,207.642 L424.634,206.521 L425.668,205.426 L426.719,204.359 L427.786,203.322 L428.868,202.316 L429.964,201.342 L431.074,200.401 L432.195,199.495 L433.33,198.625 L434.476,197.792 L435.634,196.997 L436.803,196.242 L437.983,195.527 L439.174,194.853 L440.377,194.221 L441.591,193.633 L442.816,193.091 L444.053,192.596 L445.3,192.149 L446.559,191.753 L447.829,191.409 L449.109,191.119 L450.4,190.885 L451.7,190.71 L453.009,190.597 L454.326,190.546 L455.65,190.562 L456.98,190.646 L458.315,190.801 L459.653,191.028 L460.994,191.332 L462.336,191.713 L463.679,192.175 L465.02,192.718 L466.359,193.347 L467.694,194.063 L469.024,194.868 L470.347,195.764 L470.995,196.239 L470.977,196.226 L471.308,196.479 L471.934,196.987 L472.539,197.514 L473.128,198.065 L473.702,198.64 L474.26,199.237 L474.803,199.856 L475.329,200.495 L476.092,201.498 L477.046,202.896 L477.923,204.354 L478.727,205.87 L479.455,207.436 L480.104,209.045 L480.673,210.69 L481.159,212.36 L481.56,214.049 L481.875,215.749 L482.102,217.449 L482.239,219.142 L482.286,220.818 L482.241,222.466 L482.105,224.075 L481.879,225.635 L481.565,227.131 L481.282,228.173 L481.075,228.824 L480.843,229.478 L480.594,230.106 L480.331,230.704 L480.055,231.27 L479.768,231.802 L479.474,232.3 L479.172,232.763 L478.867,233.19 L478.558,233.584 L478.246,233.948 L477.928,234.285 L477.602,234.602 L477.26,234.904 L476.899,235.196 L476.51,235.482 L476.086,235.766 L475.622,236.048 L475.113,236.328 L474.556,236.604 L473.948,236.872 L473.676,236.981 L473.811,236.928 L473.507,237.043 L473.049,237.184 L472.511,237.319 L471.849,237.46 L471.089,237.597 L470.248,237.725 L469.338,237.843 L468.372,237.95 L467.358,238.046 L466.303,238.132 L464.655,238.245 L462.39,238.367 L460.09,238.465 L457.799,238.55 L455.564,238.63 L453.951,238.693 L452.913,238.739 L451.917,238.789 L450.963,238.844 L450.056,238.907 L449.201,238.979 L448.399,239.061 L447.649,239.157 L446.947,239.271 L446.276,239.411 L445.594,239.6 L444.785,239.909 L443.965,240.332 L443.965,240.332 C443.639,240.523 443.314,240.75 443,241.007 L443,241.007 L442.956,241.043 L441.354,242.779 L440.528,244.364 L440.327,245.195 L440.286,245.735 L440.301,246.17 L440.344,246.569 L440.407,246.962 L440.489,247.364 L440.587,247.78 L440.701,248.214 L440.831,248.668 L440.975,249.143 L441.134,249.639 L441.396,250.418 L441.792,251.528 L442.236,252.714 L442.722,253.965 L443.245,255.273 L443.8,256.629 L444.382,258.024 L445.294,260.171 L446.557,263.09 L447.835,266.006 L448.777,268.147 L449.388,269.534 L449.979,270.878 L450.544,272.17 L451.079,273.402 L451.578,274.561 L452.035,275.641 L452.445,276.63 L452.717,277.305 L452.881,277.719 L453.03,278.106 L453.163,278.463 L453.279,278.787 L453.378,279.076 L453.458,279.326 L453.518,279.534 L453.536,279.605 L453.536,279.605 C453.537,279.608 453.537,279.612 453.538,279.615 L453.538,279.615 L453.651,280.036 L453.942,280.946 L454.292,281.858 L454.687,282.753 L455.344,284.057 L456.317,285.761 L457.351,287.43 L458.388,289.053 L459.376,290.632 L460.05,291.779 L460.452,292.52 L460.635,292.877 L460.628,292.863 L461.094,293.805 L461.999,295.69 L463.306,298.542 L464.965,302.391 L466.542,306.284 L468.053,310.217 L469.514,314.184 L471.645,320.18 L474.448,328.213 L476.59,334.237 L478.065,338.24 L479.596,342.22 L481.197,346.169 L482.885,350.081 L484.217,352.988 L485.142,354.912 L485.617,355.872 L485.617,355.872 C485.617,355.873 485.618,355.874 485.618,355.875 L485.618,355.875 L486.189,357.021 L487.35,359.384 L488.535,361.838 L489.739,364.378 L490.955,367 L492.18,369.698 L493.407,372.465 L494.63,375.295 L495.845,378.183 L497.046,381.123 L498.226,384.108 L499.382,387.134 L500.506,390.193 L501.595,393.279 L502.641,396.388 L503.64,399.512 L504.587,402.646 L505.475,405.784 L506.299,408.918 L507.054,412.044 L507.734,415.155 L508.334,418.244 L508.849,421.305 L509.273,424.332 L509.601,427.317 L509.78,429.515 L509.867,430.961 L509.927,432.399 L509.961,433.822 L509.966,435.229 L509.943,436.618 L509.891,437.988 L509.809,439.337 L509.698,440.666 L509.557,441.971 L509.385,443.253 L509.182,444.509 L508.949,445.739 L508.685,446.94 L508.548,447.503 L508.559,447.458 L508.31,448.431 L507.797,450.302 L507.251,452.127 L506.669,453.927 L506.052,455.702 L505.399,457.451 L504.712,459.174 L503.992,460.873 L503.24,462.546 L502.456,464.194 L501.641,465.817 L500.795,467.416 L499.92,468.989 L499.016,470.54 L498.084,472.066 L497.123,473.569 L496.135,475.049 L495.121,476.506 L494.08,477.941 L493.013,479.354 L491.92,480.746 L490.801,482.117 L489.657,483.469 L488.489,484.799 L487.296,486.11 L486.078,487.402 L484.836,488.676 L483.57,489.93 L482.28,491.165 L480.967,492.382 L479.631,493.581 L478.271,494.763 L476.89,495.925 L475.486,497.07 L474.061,498.197 L472.614,499.306 L471.147,500.396 L469.659,501.468 L468.152,502.522 L466.626,503.557 L464.282,505.089 L461.103,507.058 L457.881,508.938 L454.599,510.74 L451.263,512.464 L447.877,514.109 L444.448,515.674 L440.981,517.159 L437.482,518.561 L433.956,519.882 L430.41,521.12 L426.847,522.275 L425.084,522.814 L425.135,522.799 L424.152,523.085 L422.26,523.587 L420.371,524.031 L418.458,524.433 L415.534,524.972 L411.59,525.6 L407.603,526.18 L403.573,526.773 L400.521,527.267 L398.467,527.636 L396.414,528.045 L394.354,528.502 L393.298,528.758 L393.298,528.758 C393.293,528.759 393.289,528.76 393.284,528.761 L393.284,528.761 L390.875,529.356 L386.132,530.478 L381.454,531.521 L376.827,532.489 L372.247,533.386 L367.709,534.212 L363.21,534.97 L358.746,535.662 L354.312,536.291 L349.903,536.858 L345.518,537.365 L341.15,537.815 L336.796,538.208 L332.453,538.549 L328.116,538.837 L323.781,539.076 L319.445,539.268 L315.103,539.414 L310.751,539.517 L306.386,539.579 L302.003,539.601 L297.598,539.586 L293.168,539.536 L288.708,539.454 L284.215,539.34 L279.685,539.197 L275.114,539.027 L270.497,538.833 L265.831,538.616 L261.112,538.378 L256.336,538.122 L251.5,537.849 L249.058,537.707 L249.058,537.707 C249.057,537.707 249.055,537.707 249.053,537.707 L249.053,537.707 L243.9,537.419 L233.546,536.91 L223.159,536.464 L212.75,536.047 L202.33,535.628 L191.906,535.173 L181.488,534.647 L173.685,534.187 L168.491,533.841 L163.301,533.459 L158.118,533.037 L152.943,532.57 L147.777,532.055 L142.621,531.487 L137.476,530.862 L132.344,530.176 L127.225,529.425 L122.12,528.605 L117.03,527.712 L111.957,526.741 L106.901,525.688 L101.863,524.55 L96.844,523.322 L91.846,522 L86.869,520.58 L84.395,519.833 L84.409,519.838 L83.755,519.632 L82.491,519.207 L81.262,518.756 L80.06,518.277 L78.886,517.77 L77.74,517.235 L76.622,516.671 L75.533,516.079 L74.474,515.459 L73.444,514.811 L72.445,514.134 L71.477,513.43 L70.54,512.697 L69.635,511.936 L68.762,511.147 L67.922,510.329 L67.116,509.484 L66.342,508.61 L65.603,507.708 L64.899,506.778 L64.229,505.82 L63.595,504.834 L62.997,503.82 L62.434,502.777 L61.909,501.707 L61.421,500.608 L60.971,499.481 L60.558,498.326 L60.184,497.143 L59.849,495.933 L59.553,494.693 L59.297,493.426 L59.186,492.795 L59.188,492.803 L58.914,491.192 L58.345,487.9 L57.793,484.555 L57.306,481.184 L57.014,478.66 L56.865,476.989 L56.758,475.318 L56.7,473.658 L56.695,472.015 L56.749,470.392 L56.866,468.796 L57.052,467.231 L57.167,466.495 L57.158,466.55 L57.314,465.65 L57.655,463.915 L58.041,462.207 L58.473,460.504 L58.951,458.807 L59.472,457.117 L60.034,455.433 L60.637,453.755 L61.277,452.085 L61.953,450.421 L62.664,448.765 L63.408,447.117 L64.183,445.477 L64.988,443.845 L66.257,441.394 L68.034,438.167 L69.889,435.001 L71.818,431.879 L73.806,428.805 L75.841,425.784 L77.908,422.817 L79.993,419.912 L82.082,417.07 L83.113,415.689 L83.113,415.689 C83.126,415.671 83.14,415.653 83.153,415.634 L83.153,415.634 L83.634,414.978 L84.695,413.44 L85.726,411.824 L86.69,410.204 L87.598,408.579 L88.463,406.954 L89.685,404.54 L91.246,401.327 L92.764,398.171 L93.888,395.893 L94.634,394.441 L95.39,393.028 L96.154,391.676 L96.517,391.062 L96.487,391.111 L97.805,388.923 L100.436,384.611 L104.412,378.198 L109.731,369.691 L113.707,363.297 L116.341,359.001 L118.947,354.679 L121.517,350.319 L124.044,345.912 L126.518,341.452 L128.93,336.928 L130.7,333.477 L131.859,331.148 L132.99,328.812 L134.1,326.453 L135.187,324.074 L136.251,321.672 L136.779,320.448 L136.772,320.465 L136.943,320.074 L137.274,319.353 L137.632,318.612 L138.024,317.825 L138.667,316.562 L139.574,314.777 L140.497,312.887 L141.382,310.911 L141.995,309.356 L142.363,308.287 L142.669,307.246 L142.916,306.205 L143.023,305.64 L143.023,305.64 C143.027,305.62 143.03,305.599 143.033,305.579 L143.033,305.579 L143.156,304.818 L143.391,303.224 L143.605,301.58 L143.795,299.9 L143.96,298.185 L144.099,296.438 L144.212,294.662 L144.299,292.857 L144.357,291.027 L144.387,289.174 L144.389,287.3 L144.36,285.408 L144.301,283.499 L144.21,281.576 L144.087,279.642 L143.932,277.698 L143.742,275.747 L143.518,273.791 L143.259,271.834 L142.963,269.877 L142.631,267.922 L142.26,265.973 L141.851,264.031 L141.403,262.099 L140.915,260.179 L140.385,258.274 L139.814,256.386 L139.199,254.517 L138.541,252.67 L137.839,250.848 L137.092,249.053 L136.298,247.286 L135.88,246.408 L135.88,246.408 C135.823,246.287 135.747,246.182 135.653,246.095 L135.653,246.095 L132.85,243.499 L132.85,243.499 C132.055,242.761 130.18,243.417 128.661,244.963 C127.143,246.51 126.556,248.363 127.35,249.101 L130.147,251.705 L129.92,251.392 L130.316,252.228 L131.08,253.938 L131.8,255.677 L132.477,257.444 L133.111,259.235 L133.704,261.049 L134.255,262.882 L134.765,264.733 L135.236,266.599 L135.668,268.477 L136.062,270.365 L136.418,272.26 L136.737,274.16 L137.021,276.063 L137.269,277.966 L137.483,279.866 L137.664,281.761 L137.812,283.648 L137.927,285.526 L138.012,287.391 L138.066,289.24 L138.09,291.073 L138.086,292.885 L138.054,294.673 L137.994,296.437 L137.909,298.172 L137.798,299.877 L137.662,301.549 L137.503,303.184 L137.321,304.78 L137.118,306.334 L136.891,307.857 L136.767,308.621 L136.777,308.56 L136.728,308.845 L136.573,309.53 L136.369,310.244 L136.131,310.955 L135.687,312.103 L134.949,313.759 L134.101,315.492 L133.193,317.275 L132.506,318.622 L132.052,319.533 L131.61,320.45 L131.201,321.34 L131.028,321.735 L131.028,321.735 C131.026,321.741 131.023,321.746 131.021,321.752 L131.021,321.752 L130.526,322.894 L129.508,325.189 L128.466,327.463 L127.403,329.718 L126.317,331.954 L125.217,334.162 L123.526,337.452 L121.198,341.808 L118.802,346.12 L116.344,350.397 L113.831,354.649 L111.271,358.887 L108.672,363.114 L104.705,369.48 L99.345,378.03 L95.312,384.521 L92.635,388.899 L91.313,391.089 L91.313,391.089 C91.303,391.105 91.293,391.122 91.283,391.138 L91.283,391.138 L90.797,391.964 L89.904,393.548 L89.052,395.137 L88.228,396.742 L87.051,399.12 L85.544,402.243 L84.06,405.295 L82.939,407.51 L82.193,408.914 L81.443,410.259 L80.69,411.535 L79.935,412.731 L79.131,413.906 L78.647,414.566 L78.687,414.511 L77.59,415.979 L75.398,418.959 L73.193,422.029 L70.993,425.184 L68.812,428.421 L66.668,431.734 L64.578,435.118 L62.558,438.57 L60.636,442.062 L59.263,444.711 L58.377,446.507 L57.522,448.315 L56.701,450.135 L55.916,451.964 L55.168,453.804 L54.46,455.652 L53.794,457.508 L53.172,459.372 L52.597,461.243 L52.069,463.118 L51.592,464.997 L51.167,466.881 L50.8,468.747 L50.642,469.65 L50.642,469.65 C50.639,469.668 50.636,469.686 50.633,469.705 L50.633,469.705 L50.491,470.634 L50.282,472.423 L50.153,474.207 L50.094,475.987 L50.1,477.763 L50.162,479.534 L50.274,481.299 L50.43,483.065 L50.731,485.685 L51.224,489.124 L51.776,492.496 L52.34,495.783 L52.612,497.397 L52.612,497.397 C52.613,497.399 52.613,497.402 52.614,497.405 L52.614,497.405 L52.738,498.117 L53.016,499.489 L53.336,500.829 L53.698,502.138 L54.102,503.415 L54.547,504.66 L55.032,505.875 L55.558,507.057 L56.123,508.209 L56.726,509.329 L57.368,510.417 L58.048,511.475 L58.765,512.501 L59.519,513.497 L60.308,514.461 L61.134,515.394 L61.994,516.296 L62.889,517.167 L63.818,518.008 L64.78,518.818 L65.775,519.597 L66.802,520.345 L67.861,521.063 L68.952,521.751 L70.074,522.408 L71.226,523.034 L72.407,523.63 L73.618,524.196 L74.858,524.732 L76.126,525.237 L77.421,525.713 L78.735,526.156 L79.39,526.362 L79.39,526.362 C79.395,526.364 79.4,526.365 79.405,526.367 L79.405,526.367 L81.917,527.127 L86.945,528.566 L91.993,529.906 L97.06,531.15 L102.146,532.304 L107.249,533.37 L112.368,534.354 L117.501,535.26 L122.648,536.091 L127.807,536.852 L132.978,537.547 L138.159,538.181 L143.349,538.757 L148.547,539.28 L153.751,539.754 L158.961,540.183 L164.176,540.571 L169.396,540.923 L177.227,541.391 L187.667,541.927 L198.099,542.391 L208.516,542.818 L218.909,543.239 L229.27,543.689 L239.593,544.202 L244.747,544.493 L244.742,544.493 L247.189,544.636 L252.035,544.912 L256.822,545.171 L261.554,545.412 L266.236,545.632 L270.872,545.83 L275.465,546.002 L280.019,546.148 L284.539,546.265 L289.029,546.351 L293.491,546.403 L297.932,546.42 L302.354,546.399 L306.761,546.339 L311.158,546.237 L315.548,546.091 L319.935,545.899 L324.324,545.659 L328.718,545.368 L333.122,545.025 L337.538,544.627 L341.972,544.172 L346.427,543.659 L350.907,543.084 L355.416,542.446 L359.958,541.743 L364.537,540.971 L369.156,540.131 L373.82,539.218 L378.532,538.232 L383.296,537.17 L388.104,536.033 L390.516,535.439 L390.502,535.442 L391.427,535.217 L393.342,534.79 L395.278,534.405 L397.227,534.054 L400.196,533.573 L404.214,532.982 L408.28,532.391 L412.373,531.738 L415.455,531.169 L417.53,530.731 L419.615,530.238 L421.678,529.688 L422.665,529.401 L422.665,529.401 C422.682,529.396 422.699,529.391 422.716,529.386 L422.716,529.386 L424.611,528.806 L428.356,527.59 L432.096,526.283 L435.825,524.884 L439.541,523.392 L443.238,521.807 L446.91,520.127 L450.555,518.353 L454.167,516.482 L457.743,514.514 L461.276,512.449 L464.74,510.298 L467.299,508.624 L469.001,507.467 L470.689,506.286 L472.361,505.078 L474.017,503.846 L475.656,502.587 L477.279,501.303 L478.882,499.993 L480.466,498.657 L482.03,497.295 L483.573,495.908 L485.095,494.494 L486.593,493.056 L488.068,491.591 L489.517,490.102 L490.941,488.588 L492.338,487.049 L493.707,485.485 L495.047,483.899 L496.357,482.288 L497.635,480.654 L498.883,478.997 L500.096,477.318 L501.277,475.617 L502.422,473.895 L503.533,472.152 L504.607,470.388 L505.644,468.604 L506.643,466.8 L507.604,464.976 L508.527,463.134 L509.41,461.271 L510.253,459.39 L511.055,457.49 L511.817,455.571 L512.538,453.633 L513.216,451.677 L513.852,449.703 L514.446,447.709 L514.991,445.717 L515.241,444.742 L515.241,444.742 C515.245,444.727 515.248,444.712 515.252,444.697 L515.252,444.697 L515.424,443.982 L515.725,442.597 L515.988,441.2 L516.212,439.791 L516.401,438.37 L516.555,436.937 L516.674,435.492 L516.761,434.035 L516.815,432.567 L516.839,431.088 L516.832,429.598 L516.796,428.098 L516.732,426.587 L516.639,425.059 L516.45,422.755 L516.109,419.665 L515.67,416.546 L515.14,413.403 L514.525,410.241 L513.829,407.065 L513.059,403.88 L512.22,400.692 L511.318,397.507 L510.357,394.329 L509.345,391.165 L508.285,388.02 L507.184,384.9 L506.048,381.809 L504.881,378.756 L503.689,375.743 L502.478,372.779 L501.253,369.868 L500.02,367.016 L498.783,364.229 L497.55,361.513 L496.325,358.873 L495.113,356.316 L493.92,353.847 L492.753,351.473 L492.182,350.325 L492.183,350.328 L491.721,349.395 L490.816,347.512 L489.505,344.656 L487.839,340.798 L486.255,336.893 L484.736,332.95 L483.269,328.976 L481.131,322.97 L478.319,314.924 L476.175,308.901 L474.7,304.901 L473.169,300.925 L471.569,296.982 L469.885,293.082 L468.558,290.19 L467.64,288.28 L467.172,287.337 L467.172,287.337 C467.17,287.332 467.168,287.328 467.165,287.323 L467.165,287.323 L466.954,286.912 L466.514,286.104 L465.806,284.903 L464.806,283.307 L463.784,281.708 L462.792,280.113 L461.877,278.517 L461.273,277.326 L460.925,276.548 L460.626,275.782 L460.375,275.008 L460.262,274.585 L460.264,274.595 L460.225,274.448 L460.143,274.167 L460.046,273.864 L459.933,273.536 L459.805,273.181 L459.662,272.799 L459.505,272.392 L459.333,271.958 L459.052,271.262 L458.634,270.256 L458.171,269.164 L457.668,267.995 L457.131,266.759 L456.563,265.463 L455.971,264.117 L455.36,262.731 L454.418,260.596 L453.144,257.691 L451.886,254.788 L450.98,252.658 L450.403,251.278 L449.856,249.942 L449.341,248.659 L448.867,247.439 L448.437,246.293 L448.056,245.227 L447.806,244.489 L447.66,244.032 L447.529,243.604 L447.415,243.207 L447.319,242.844 L447.241,242.52 L447.181,242.24 L447.141,242.012 L447.119,241.855 L447.107,241.798 L447.081,241.915 L446.936,242.394 L446.211,243.699 L444.754,245.23 L444.8,245.192 L443.835,245.868 L443.275,246.139 L443.137,246.167 L443.316,246.105 L443.684,246.022 L444.188,245.937 L444.8,245.857 L445.503,245.784 L446.286,245.717 L447.139,245.658 L448.052,245.604 L449.021,245.555 L450.035,245.51 L451.634,245.447 L453.874,245.366 L456.194,245.279 L458.547,245.177 L460.883,245.049 L462.598,244.931 L463.721,244.839 L464.819,244.734 L465.889,244.614 L466.928,244.477 L467.936,244.321 L468.913,244.14 L469.865,243.929 L470.808,243.675 L471.685,243.387 L471.989,243.272 L471.989,243.272 C472.034,243.255 472.079,243.237 472.124,243.219 L472.124,243.219 L472.711,242.973 L473.774,242.486 L474.824,241.945 L475.859,241.351 L476.878,240.702 L477.876,240 L478.847,239.247 L479.785,238.448 L480.683,237.61 L481.537,236.739 L482.34,235.844 L483.09,234.93 L483.785,234.005 L484.427,233.072 L485.016,232.137 L485.554,231.199 L486.045,230.262 L486.49,229.325 L486.893,228.389 L487.256,227.454 L487.581,226.517 L487.878,225.552 L488.252,224.124 L488.63,222.255 L488.891,220.378 L489.04,218.497 L489.083,216.613 L489.023,214.73 L488.865,212.852 L488.609,210.984 L488.261,209.133 L487.821,207.303 L487.291,205.501 L486.675,203.734 L485.973,202.007 L485.187,200.328 L484.32,198.703 L483.372,197.139 L482.35,195.649 L481.535,194.583 L480.964,193.892 L480.375,193.223 L479.767,192.575 L479.14,191.95 L478.494,191.349 L477.83,190.773 L477.155,190.228 L476.823,189.974 L476.823,189.974 C476.817,189.97 476.811,189.965 476.805,189.961 L476.805,189.961 L476.089,189.439 L474.667,188.481 L473.231,187.617 L471.781,186.846 L470.317,186.164 L468.84,185.571 L467.352,185.065 L465.852,184.645 L464.341,184.31 L462.82,184.058 L461.289,183.887 L459.75,183.797 L458.203,183.786 L456.648,183.853 L455.088,183.996 L453.522,184.214 L451.953,184.506 L450.381,184.87 L448.808,185.305 L447.235,185.809 L445.663,186.381 L444.097,187.017 L442.535,187.717 L440.982,188.478 L439.438,189.297 L437.906,190.173 L436.387,191.102 L434.883,192.083 L433.397,193.112 L431.929,194.187 L430.482,195.305 L429.056,196.464 L427.655,197.66 L426.277,198.892 L424.925,200.157 L423.599,201.453 L422.302,202.777 L421.033,204.126 L419.794,205.5 L418.584,206.897 L417.407,208.313 L416.26,209.747 L415.147,211.196 L414.066,212.66 L413.02,214.136 L412.008,215.623 L411.032,217.118 L410.091,218.62 L409.188,220.128 L408.323,221.638 L407.497,223.149 L406.71,224.661 L405.963,226.171 L405.257,227.677 L404.593,229.177 L403.972,230.671 L403.395,232.155 L402.863,233.628 L402.377,235.088 L401.937,236.534 L401.545,237.965 L401.203,239.376 L400.909,240.768 L400.671,242.112 L400.576,242.739 L400.576,242.739 C400.573,242.757 400.571,242.775 400.569,242.792 L400.569,242.792 L400.39,244.156 L400.123,246.815 L399.962,249.459 L399.899,252.086 L399.927,254.697 L400.039,257.293 L400.228,259.873 L400.488,262.437 L400.812,264.985 L401.192,267.517 L401.624,270.031 L402.1,272.529 L402.613,275.007 L403.159,277.471 L404.02,281.121 L404.614,283.523 L404.614,283.523 C404.616,283.529 404.617,283.534 404.618,283.539 L404.618,283.539 L404.761,284.086 L405.07,285.166 L405.417,286.259 L405.802,287.366 L406.222,288.486 L406.675,289.619 L407.159,290.766 L407.673,291.925 L408.214,293.097 L408.784,294.285 L409.681,296.086 L410.951,298.524 L412.293,301.004 L413.693,303.523 L415.137,306.076 L416.61,308.66 L418.099,311.267 L420.329,315.218 L422.516,319.206 L423.924,321.872 L425.276,324.541 L426.557,327.207 L427.753,329.864 L428.851,332.507 L429.837,335.136 L430.495,337.095 L430.89,338.387 L431.248,339.669 L431.569,340.942 L431.85,342.204 L432.091,343.453 L432.289,344.689 L432.444,345.91 L432.553,347.114 L432.616,348.3 L432.633,349.465 L432.601,350.609 L432.522,351.726 L432.395,352.817 L432.22,353.878 L431.999,354.905 L431.734,355.896 L431.425,356.849 L431.076,357.763 L430.689,358.637 L430.263,359.474 L429.748,360.356 L429.392,360.905 L429.486,360.764 L429.119,361.309 L428.267,362.49 L427.37,363.634 L426.424,364.745 L425.427,365.827 L424.379,366.884 L423.274,367.919 L422.114,368.932 L420.897,369.925 L419.621,370.898 L418.29,371.85 L416.904,372.782 L415.463,373.691 L413.972,374.578 L412.43,375.442 L410.841,376.281 L409.208,377.096 L407.531,377.887 L405.815,378.653 L404.06,379.394 L402.269,380.111 L400.446,380.802 L398.59,381.469 L396.706,382.112 L394.794,382.73 L392.858,383.326 L390.898,383.898 L388.928,384.445 L385.929,385.227 L381.861,386.2 L377.743,387.093 L373.587,387.911 L369.409,388.661 L365.222,389.347 L361.041,389.975 L356.877,390.55 L352.744,391.08 L348.657,391.569 L344.627,392.023 L340.667,392.448 L336.791,392.85 L333.011,393.236 L329.339,393.61 L325.79,393.98 L323.216,394.257 L321.543,394.444 L319.907,394.633 L318.312,394.825 L317.535,394.921 L317.535,394.921 C317.532,394.922 317.53,394.922 317.527,394.923 L317.527,394.923 L315.458,395.187 L311.308,395.744 L307.132,396.332 L302.928,396.946 L296.585,397.896 L288.062,399.184 L279.475,400.445 L273.004,401.342 L268.683,401.902 L264.359,402.424 L260.032,402.901 L255.705,403.326 L251.381,403.693 L247.062,403.995 L242.75,404.223 L238.446,404.373 L234.154,404.437 L229.875,404.407 L225.613,404.278 L221.367,404.042 L217.136,403.692 L213.976,403.351 L211.88,403.084 L209.79,402.785 L207.707,402.453 L205.631,402.087 L203.562,401.686 L201.5,401.25 L199.446,400.776 L197.399,400.266 L195.361,399.716 L193.331,399.128 L191.31,398.499 L189.298,397.83 L187.295,397.118 L185.301,396.363 L183.312,395.563 L182.312,395.142 L182.323,395.147 L181.828,394.933 L180.85,394.493 L179.9,394.043 L178.979,393.582 L178.086,393.112 L177.225,392.635 L175.984,391.901 L174.415,390.886 L172.951,389.835 L171.59,388.75 L170.329,387.632 L169.166,386.481 L168.098,385.301 L167.122,384.091 L166.237,382.853 L165.438,381.589 L164.725,380.299 L164.094,378.984 L163.542,377.646 L163.067,376.287 L162.667,374.905 L162.34,373.503 L162.082,372.082 L161.892,370.642 L161.768,369.184 L161.706,367.71 L161.705,366.219 L161.763,364.714 L161.877,363.193 L162.045,361.659 L162.266,360.112 L162.536,358.554 L162.855,356.984 L163.219,355.405 L163.628,353.815 L164.078,352.218 L164.562,350.63 L165.361,348.225 L166.554,344.981 L167.869,341.724 L169.288,338.466 L170.795,335.214 L172.372,331.977 L174.001,328.765 L175.665,325.587 L177.346,322.452 L179.026,319.368 L180.687,316.346 L181.909,314.127 L182.708,312.67 L183.493,311.232 L184.26,309.815 L185.009,308.42 L185.736,307.046 L186.439,305.695 L187.111,304.38 L187.428,303.749 L187.428,303.749 C187.433,303.737 187.439,303.726 187.445,303.714 L187.445,303.714 L187.806,302.978 L188.481,301.544 L189.124,300.097 L189.737,298.635 L190.319,297.163 L190.87,295.678 L191.391,294.184 L191.882,292.678 L192.343,291.165 L192.779,289.627 L193.373,287.318 L194.058,284.235 L194.627,281.134 L195.079,278.022 L195.413,274.907 L195.63,271.797 L195.729,268.698 L195.711,265.618 L195.575,262.574 L195.395,260.315 L195.238,258.817 L195.051,257.329 L194.835,255.862 L194.718,255.144 L194.718,255.144 C194.535,254.009 193.125,253.964 191.569,255.044 C190.012,256.124 188.899,257.921 189.082,259.056 C189.265,260.191 190.675,260.236 192.231,259.156 C193.788,258.076 194.901,256.279 194.718,255.144 L194.718,255.144 L194.499,253.802 L194.076,251.084 L193.634,248.344 L193.121,245.606 L192.659,243.565 L192.3,242.207 L191.892,240.858 L191.43,239.52 L190.906,238.197 L190.314,236.89 L189.648,235.603 L188.909,234.35 L188.518,233.748 L188.518,233.748 C188.515,233.743 188.512,233.738 188.508,233.733 L188.508,233.733 L188.113,233.151 L187.313,232.016 L186.492,230.908 L185.65,229.826 L184.788,228.771 L183.907,227.742 L183.007,226.739 L182.089,225.761 L181.152,224.81 L180.198,223.885 L179.227,222.984 L178.239,222.11 L177.235,221.26 L176.216,220.436 L175.182,219.636 L174.129,218.858 L172.525,217.74 L170.344,216.338 L168.115,215.032 L165.839,213.821 L163.521,212.705 L161.164,211.681 L158.773,210.75 L156.352,209.909 L153.903,209.157 L151.431,208.495 L148.94,207.919 L146.433,207.43 L143.914,207.027 L141.385,206.709 L138.851,206.474 L136.317,206.322 L133.786,206.251 L131.26,206.259 L128.745,206.347 L126.242,206.513 L123.757,206.756 L121.291,207.075 L118.848,207.471 L116.432,207.942 L114.046,208.487 L111.692,209.107 L109.373,209.801 L107.092,210.57 L104.853,211.413 L102.656,212.331 L100.506,213.326 L98.404,214.397 L96.354,215.548 L94.357,216.779 L92.421,218.093 L90.549,219.489 L88.749,220.969 L87.031,222.531 L85.433,224.137 L84.307,225.378 L83.572,226.247 L82.865,227.131 L82.19,228.03 L81.545,228.941 L80.934,229.864 L80.357,230.796 L79.814,231.738 L79.306,232.688 L78.833,233.646 L78.396,234.61 L77.994,235.581 L77.629,236.558 L77.299,237.54 L77.005,238.527 L76.747,239.521 L76.525,240.519 L76.34,241.523 L76.19,242.532 L76.076,243.547 L75.999,244.568 L75.957,245.594 L75.952,246.627 L75.983,247.667 L76.05,248.712 L76.155,249.765 L76.297,250.824 L76.476,251.889 L76.694,252.962 L76.949,254.042 L77.243,255.128 L77.576,256.221 L77.949,257.322 L78.358,258.423 L78.575,258.967 L78.575,258.967 C78.578,258.975 78.581,258.982 78.584,258.99 L78.584,258.99 L78.688,259.229 L78.905,259.655 L79.152,260.058 L79.427,260.437 L79.729,260.794 L80.057,261.129 L80.41,261.444 L80.795,261.745 L81.409,262.155 L82.288,262.63 L83.242,263.038 L84.264,263.382 L85.347,263.666 L86.485,263.894 L87.671,264.07 L88.898,264.195 L90.16,264.274 L91.451,264.309 L92.763,264.303 L94.09,264.259 L95.426,264.179 L96.765,264.065 L98.099,263.92 L99.422,263.748 L100.729,263.549 L102.013,263.326 L103.268,263.082 L104.488,262.817 L105.668,262.535 L106.801,262.237 L107.884,261.925 L108.914,261.599 L109.888,261.26 L110.81,260.903 L111.688,260.52 L112.478,260.127 L112.753,259.975 L112.753,259.975 C112.787,259.956 112.822,259.937 112.856,259.917 L112.856,259.917 L113.084,259.781 L113.487,259.53 L113.913,259.252 L114.368,258.945 L114.854,258.61 L115.37,258.248 L115.915,257.86 L116.488,257.45 L117.084,257.018 L117.703,256.568 L118.663,255.866 L119.988,254.894 L121.341,253.901 L122.694,252.912 L124.017,251.95 L125.288,251.037 L126.187,250.401 L126.747,250.01 L127.274,249.649 L127.762,249.32 L128.204,249.03 L128.593,248.782 L128.919,248.582 L129.165,248.437 L129.311,248.353 L129.397,248.305 L129.514,248.261 C129.514,248.261 129.514,248.261 129.514,248.261 C130.625,247.853 131.789,246.645 132.112,245.561 C132.436,244.478 131.797,243.931 130.686,244.339 L130.686,244.339" fill="#000000"/>
    <path d="M283.808,37.722 L283.477,37.876 L282.769,38.206 L282.002,38.565 L281.177,38.95 L280.298,39.363 L279.368,39.801 L278.386,40.264 L277.356,40.751 L276.281,41.262 L275.161,41.799 L273.998,42.359 L272.796,42.939 L271.556,43.54 L270.281,44.161 L268.972,44.801 L267.631,45.459 L266.262,46.134 L264.864,46.826 L262.724,47.892 L259.793,49.365 L256.788,50.894 L253.728,52.476 L250.628,54.098 L247.507,55.755 L244.38,57.44 L241.263,59.148 L238.174,60.872 L235.127,62.608 L232.139,64.352 L229.226,66.097 L226.403,67.836 L224.346,69.139 L223.007,70.006 L221.706,70.865 L220.437,71.719 L219.203,72.569 L218.004,73.414 L216.842,74.255 L215.718,75.09 L214.634,75.922 L213.591,76.749 L212.589,77.574 L211.629,78.397 L210.713,79.219 L209.839,80.044 L209.012,80.874 L208.229,81.711 L207.496,82.561 L206.815,83.425 L206.193,84.306 L205.64,85.201 L205.352,85.732 L205.352,85.732 C205.329,85.775 205.308,85.817 205.287,85.86 L205.287,85.86 L205.168,86.105 L204.893,86.722 L204.646,87.365 L204.449,87.985 L204.302,88.579 L204.205,89.144 L204.153,89.68 L204.145,90.185 L204.177,90.66 L204.246,91.104 L204.403,91.697 L204.707,92.416 L205.106,93.07 L205.574,93.65 L206.091,94.172 L206.644,94.648 L207.217,95.087 L208.082,95.696 L209.198,96.466 L209.937,97.03 L210.351,97.4 L210.702,97.779 L210.972,98.159 L211.153,98.534 L211.221,98.784 L211.239,98.925 L211.245,99.081 L211.235,99.226 L211.211,99.362 L211.175,99.488 L211.129,99.609 L211.072,99.731 L211.001,99.862 L210.911,100.009 L210.795,100.181 L210.645,100.386 L210.456,100.627 L210.219,100.909 L209.93,101.231 L209.585,101.595 L209.182,101.999 L208.717,102.442 L208.19,102.924 L207.6,103.443 L206.945,103.999 L206.224,104.591 L205.856,104.885 L205.904,104.847 L204.986,105.57 L203.216,106.909 L201.441,108.187 L199.631,109.433 L197.787,110.646 L195.912,111.831 L194.006,112.99 L192.074,114.124 L189.115,115.794 L185.106,117.954 L181.042,120.06 L176.925,122.143 L172.772,124.228 L168.6,126.34 L164.422,128.509 L160.255,130.76 L157.129,132.527 L155.047,133.751 L152.988,135.006 L150.94,136.302 L148.906,137.644 L146.886,139.036 L144.883,140.483 L142.898,141.987 L141.883,142.786 L141.883,142.786 C141.876,142.791 141.87,142.797 141.863,142.802 L141.863,142.802 L141.674,142.952 L141.308,143.239 L140.923,143.536 L140.506,143.852 L139.82,144.365 L138.821,145.099 L137.736,145.882 L136.57,146.713 L135.332,147.584 L134.033,148.489 L132.682,149.424 L131.289,150.381 L129.133,151.85 L126.196,153.836 L123.248,155.813 L121.07,157.266 L119.65,158.211 L118.264,159.132 L116.921,160.022 L115.63,160.877 L114.399,161.692 L113.237,162.461 L112.152,163.179 L111.394,163.682 L110.915,163.999 L110.462,164.3 L110.032,164.586 L109.629,164.855 L109.251,165.107 L108.901,165.342 L108.578,165.559 L108.284,165.758 L108.017,165.939 L107.777,166.104 L107.563,166.253 L107.368,166.391 L107.179,166.528 L106.955,166.7 L106.506,167.083 L105.278,168.604 L105.278,168.604 C104.69,169.636 104.639,170.555 105.145,170.972 L105.145,170.972 L105.15,170.976 L106.535,171.104 L107.15,170.87 L107.455,170.72 L107.7,170.591 L107.941,170.459 L108.199,170.318 L108.481,170.163 L108.789,169.994 L109.125,169.811 L109.49,169.613 L109.883,169.402 L110.303,169.18 L110.75,168.945 L111.475,168.573 L112.526,168.049 L113.66,167.504 L114.873,166.947 L116.157,166.387 L117.502,165.833 L118.9,165.296 L120.34,164.787 L121.814,164.314 L122.535,164.103 L122.502,164.112 L123.648,163.788 L125.963,163.152 L128.327,162.52 L130.736,161.886 L134.416,160.921 L139.39,159.59 L143.139,158.535 L145.638,157.794 L148.111,157.02 L150.56,156.207 L152.977,155.349 L155.353,154.44 L157.685,153.471 L159.965,152.438 L161.123,151.875 L161.123,151.875 C161.142,151.865 161.162,151.856 161.181,151.846 L161.181,151.846 L161.227,151.823 L161.378,151.745 L161.549,151.655 L161.733,151.557 L162.039,151.393 L162.516,151.135 L163.072,150.833 L163.698,150.493 L164.393,150.117 L165.147,149.71 L165.955,149.275 L166.811,148.818 L167.708,148.342 L168.637,147.852 L170.084,147.098 L172.064,146.087 L174.046,145.104 L175.492,144.41 L176.421,143.978 L177.325,143.569 L178.187,143.193 L179,142.854 L179.753,142.558 L180.435,142.309 L181.036,142.112 L181.543,141.971 L181.94,141.889 L182.125,141.87 L182.185,141.871 L182.236,141.877 L182.246,141.887 L182.215,141.892 L182.148,141.882 L182.056,141.842 L181.954,141.757 L181.877,141.63 L181.787,141.102 L181.786,141.122 L181.901,140.451 L181.986,140.217 L181.966,140.248 L181.878,140.408 L181.74,140.655 L181.56,140.971 L181.342,141.347 L181.09,141.778 L180.805,142.259 L180.491,142.787 L180.149,143.359 L179.779,143.973 L179.384,144.628 L178.965,145.319 L178.523,146.047 L178.059,146.809 L177.575,147.601 L177.072,148.425 L176.551,149.276 L176.013,150.153 L175.459,151.055 L174.601,152.451 L173.415,154.379 L172.187,156.373 L170.926,158.417 L169.643,160.499 L167.695,163.659 L165.746,166.822 L164.462,168.909 L163.201,170.962 L161.972,172.967 L160.784,174.91 L159.925,176.319 L159.369,177.232 L158.83,178.121 L158.306,178.985 L157.801,179.822 L157.313,180.631 L156.846,181.41 L156.399,182.158 L155.974,182.872 L155.572,183.551 L155.193,184.195 L154.839,184.8 L154.511,185.367 L154.209,185.895 L153.933,186.383 L153.684,186.83 L153.462,187.24 L153.265,187.614 L153.165,187.811 L153.201,187.741 L153.18,187.78 L153.229,187.687 L153.239,187.666 L153.194,187.732 L153.112,187.853 L153.001,188.014 L152.786,188.319 L152.444,188.797 L152.054,189.336 L151.408,190.221 L150.738,191.134 L150.3,191.729 L149.883,192.297 L149.5,192.82 L149.163,193.283 L148.942,193.59 L148.807,193.779 L148.687,193.951 L148.57,194.123 L148.434,194.333 L148.188,194.762 L147.798,196.081 L147.798,196.081 C147.788,196.535 147.951,196.876 148.267,197.057 L148.267,197.057 L148.358,197.109 L148.758,197.253 L149.574,197.259 L151.07,196.644 L152.587,195.355 L153.38,194.295 L153.847,193.4 L154.179,192.551 L154.406,191.905 L154.571,191.505 L154.572,191.553 L154.326,191.976 L153.927,192.479 L153.586,192.828 L153.964,192.468 L154.452,192.08 L154.997,191.7 L155.704,191.237 L156.995,190.422 L158.426,189.487 L159.516,188.705 L160.157,188.201 L160.157,188.201 C160.183,188.18 160.209,188.159 160.235,188.137 L160.235,188.137 L160.967,187.533 L162.353,186.416 L163.703,185.365 L165.041,184.355 L167.056,182.889 L169.738,181.024 L172.443,179.218 L175.223,177.406 L177.375,176.015 L178.853,175.057 L180.366,174.07 L181.917,173.049 L182.716,172.518 L182.7,172.529 L184.38,171.421 L187.731,169.268 L191.133,167.126 L194.585,164.959 L198.06,162.745 L201.533,160.461 L204.136,158.678 L205.869,157.445 L207.574,156.189 L209.261,154.897 L210.124,154.215 L210.124,154.215 C210.149,154.195 210.174,154.175 210.199,154.155 L210.199,154.155 L210.282,154.087 L210.588,153.828 L210.922,153.534 L211.261,153.226 L211.618,152.895 L211.998,152.537 L212.404,152.15 L212.835,151.735 L213.293,151.29 L213.779,150.816 L214.289,150.314 L214.825,149.785 L215.384,149.23 L215.967,148.65 L216.571,148.045 L217.196,147.417 L217.841,146.768 L218.504,146.099 L219.529,145.061 L220.95,143.615 L222.423,142.108 L223.937,140.553 L225.483,138.959 L227.835,136.521 L230.986,133.23 L233.32,130.773 L234.841,129.16 L236.319,127.585 L237.748,126.053 L239.116,124.575 L240.099,123.504 L240.732,122.811 L241.343,122.139 L241.932,121.488 L242.498,120.857 L243.041,120.248 L243.558,119.663 L244.051,119.101 L244.517,118.563 L244.956,118.05 L245.368,117.562 L245.752,117.099 L246.11,116.658 L246.441,116.239 L246.749,115.836 L247.037,115.442 L247.311,115.043 L247.582,114.61 L247.77,114.274 L247.77,114.274 C247.799,114.221 247.825,114.168 247.851,114.115 L247.851,114.115 L247.957,113.895 L248.215,113.311 L248.448,112.693 L248.63,112.097 L248.758,111.527 L248.835,110.987 L248.862,110.48 L248.842,110.006 L248.779,109.568 L248.676,109.164 L248.537,108.793 L248.367,108.452 L248.072,108.012 L247.595,107.498 L247.029,107.052 L246.404,106.677 L245.732,106.361 L245.026,106.094 L244.296,105.866 L243.553,105.67 L242.445,105.423 L241.007,105.144 L240.011,104.952 L239.42,104.825 L238.892,104.693 L238.446,104.554 L238.096,104.411 L237.859,104.268 L237.75,104.148 L237.775,104.13 L237.828,104.199 L237.866,104.293 L237.885,104.461 L237.861,104.704 L237.776,105 L237.642,105.3 L237.495,105.554 L237.375,105.727 L237.314,105.812 L237.326,105.813 L237.416,105.743 L237.582,105.614 L237.819,105.436 L237.934,105.354 L237.896,105.382 L238.736,104.777 L240.373,103.614 L241.978,102.493 L243.561,101.407 L245.121,100.356 L246.658,99.341 L248.174,98.36 L249.668,97.414 L251.14,96.502 L252.591,95.624 L254.02,94.78 L255.429,93.97 L256.818,93.193 L258.185,92.45 L259.533,91.74 L260.861,91.062 L262.169,90.417 L263.458,89.805 L264.729,89.224 L265.981,88.676 L267.214,88.159 L268.429,87.674 L269.627,87.221 L270.808,86.798 L271.972,86.406 L273.119,86.044 L274.251,85.713 L275.366,85.412 L276.466,85.141 L277.552,84.899 L278.622,84.687 L279.679,84.504 L280.188,84.425 L280.188,84.425 C281.491,84.223 283.135,82.861 283.86,81.384 C284.585,79.906 284.116,78.872 282.812,79.075 C282.812,79.075 282.812,79.075 282.812,79.075 L282.216,79.168 L281.04,79.375 L279.848,79.615 L278.64,79.887 L277.416,80.192 L276.176,80.53 L274.921,80.901 L273.649,81.305 L272.361,81.742 L271.056,82.212 L269.735,82.716 L268.397,83.252 L267.042,83.822 L265.671,84.424 L264.284,85.06 L262.879,85.73 L261.457,86.432 L260.017,87.169 L258.561,87.938 L257.086,88.742 L255.593,89.579 L254.083,90.449 L252.554,91.354 L251.007,92.291 L249.441,93.263 L247.856,94.269 L246.252,95.309 L244.629,96.383 L242.986,97.491 L241.323,98.632 L239.64,99.809 L237.946,101.013 L237.104,101.618 L237.104,101.618 C237.092,101.627 237.079,101.637 237.066,101.646 L237.066,101.646 L236.758,101.873 L236.217,102.288 L235.693,102.719 L235.177,103.177 L234.666,103.676 L234.161,104.228 L233.675,104.841 L233.236,105.507 L232.882,106.194 L232.646,106.853 L232.537,107.435 L232.536,107.919 L232.614,108.309 L232.766,108.654 L233.043,109.017 L233.449,109.346 L233.914,109.597 L234.431,109.799 L234.994,109.97 L235.598,110.12 L236.239,110.257 L237.235,110.449 L238.605,110.714 L239.626,110.94 L240.274,111.108 L240.886,111.296 L241.453,111.505 L241.963,111.736 L242.407,111.989 L242.778,112.261 L243.083,112.563 L243.26,112.808 L243.346,112.96 L243.412,113.112 L243.46,113.263 L243.492,113.412 L243.509,113.561 L243.512,113.711 L243.501,113.865 L243.475,114.027 L243.432,114.202 L243.369,114.394 L243.257,114.663 L243.149,114.885 L243.23,114.726 L243.328,114.56 L243.354,114.531 L243.302,114.613 L243.184,114.778 L243.01,115.008 L242.786,115.293 L242.516,115.627 L242.205,116.003 L241.855,116.418 L241.469,116.869 L241.049,117.354 L240.597,117.87 L240.115,118.416 L239.604,118.989 L239.067,119.587 L238.504,120.211 L237.918,120.856 L237.311,121.52 L236.36,122.554 L235.025,123.996 L233.625,125.497 L232.173,127.044 L230.681,128.625 L228.385,131.041 L225.268,134.295 L222.94,136.708 L221.414,138.281 L219.92,139.815 L218.469,141.298 L217.069,142.722 L216.06,143.744 L215.41,144.399 L214.781,145.033 L214.171,145.645 L213.585,146.231 L213.022,146.791 L212.484,147.325 L211.974,147.829 L211.491,148.303 L211.04,148.744 L210.62,149.152 L210.234,149.523 L209.887,149.854 L209.58,150.143 L209.32,150.385 L209.113,150.575 L208.974,150.699 L208.886,150.776 L208.801,150.845 L208.876,150.785 L208.168,151.346 L206.667,152.497 L205.127,153.633 L203.566,154.745 L201.148,156.403 L197.813,158.596 L194.4,160.769 L190.936,162.942 L187.447,165.138 L183.982,167.362 L182.3,168.471 L182.3,168.471 C182.295,168.475 182.29,168.478 182.284,168.482 L182.284,168.482 L181.528,168.984 L180.019,169.977 L178.533,170.945 L177.063,171.897 L174.877,173.31 L171.988,175.192 L169.1,177.122 L166.206,179.136 L164.013,180.732 L162.521,181.86 L161.009,183.039 L159.498,184.257 L158.765,184.863 L158.843,184.799 L158.681,184.938 L158.068,185.391 L156.776,186.236 L155.272,187.189 L154.149,187.941 L152.94,188.837 L151.795,189.811 L151.414,190.172 L151.414,190.172 C151.297,190.284 151.182,190.401 151.073,190.521 L151.073,190.521 L150.518,191.194 L149.985,192.02 L149.6,192.794 L149.316,193.508 L149.135,194.026 L149.061,194.263 L149.206,194.053 L149.766,193.359 L151.031,192.345 L152.25,191.897 L152.763,191.947 L152.825,191.995 L152.733,191.943 L153.202,192.919 L152.813,194.225 L152.607,194.576 L152.562,194.642 L152.584,194.609 L152.647,194.519 L152.736,194.392 L152.92,194.137 L153.234,193.706 L153.606,193.198 L154.021,192.634 L154.465,192.03 L155.156,191.089 L155.835,190.159 L156.265,189.565 L156.66,189.011 L156.929,188.629 L157.101,188.38 L157.266,188.136 L157.43,187.885 L157.606,187.601 L157.777,187.301 L157.799,187.259 L157.799,187.259 C157.811,187.236 157.823,187.212 157.835,187.189 L157.835,187.189 L157.875,187.109 L158.01,186.852 L158.185,186.529 L158.397,186.147 L158.643,185.712 L158.921,185.227 L159.229,184.694 L159.566,184.117 L159.93,183.499 L160.32,182.841 L160.734,182.145 L161.171,181.414 L161.631,180.649 L162.111,179.852 L162.61,179.026 L163.128,178.172 L163.663,177.291 L164.213,176.388 L165.066,174.99 L166.248,173.058 L167.473,171.061 L168.731,169.014 L170.012,166.932 L171.959,163.773 L173.908,160.614 L175.192,158.531 L176.455,156.484 L177.687,154.486 L178.878,152.551 L179.739,151.151 L180.296,150.244 L180.837,149.361 L181.363,148.503 L181.871,147.673 L182.36,146.871 L182.83,146.1 L183.28,145.361 L183.707,144.655 L184.112,143.985 L184.493,143.351 L184.85,142.755 L185.182,142.199 L185.487,141.683 L185.766,141.207 L186.018,140.77 L186.245,140.372 L186.45,140.005 L186.637,139.656 L186.821,139.287 L187.04,138.764 L187.213,137.92 L187.213,137.898 L187.213,137.898 C187.216,137.7 187.186,137.522 187.123,137.37 L187.123,137.37 L187.001,137.133 L186.766,136.86 L186.486,136.67 L186.179,136.549 L185.858,136.48 L185.527,136.451 L185.189,136.453 L184.815,136.485 L184.266,136.57 L183.54,136.736 L182.772,136.957 L181.959,137.227 L181.104,137.541 L180.208,137.895 L179.276,138.285 L178.311,138.707 L177.318,139.156 L176.296,139.633 L174.744,140.379 L172.665,141.411 L170.618,142.458 L169.132,143.232 L168.174,143.737 L167.254,144.226 L166.378,144.694 L165.553,145.138 L164.787,145.552 L164.087,145.931 L163.46,146.272 L162.916,146.567 L162.462,146.813 L162.188,146.96 L162.045,147.036 L161.939,147.092 L161.866,147.13 L161.819,147.154 L161.877,147.125 L160.937,147.586 L158.902,148.513 L156.773,149.401 L154.562,150.25 L152.281,151.062 L149.943,151.839 L147.559,152.586 L145.145,153.303 L141.468,154.339 L136.525,155.664 L132.839,156.63 L130.406,157.271 L128.003,157.914 L125.646,158.563 L124.498,158.888 L124.498,158.888 C124.487,158.891 124.476,158.894 124.465,158.897 L124.465,158.897 L123.593,159.156 L121.927,159.693 L120.306,160.27 L118.739,160.875 L117.236,161.496 L115.804,162.124 L114.456,162.746 L113.2,163.351 L112.051,163.926 L111.263,164.332 L110.771,164.59 L110.31,164.835 L109.882,165.065 L109.489,165.278 L109.133,165.473 L108.816,165.647 L108.543,165.797 L108.317,165.921 L108.151,166.012 L108.065,166.059 L108.117,166.037 L108.562,165.881 L109.861,166.033 L109.855,166.028 L109.722,168.396 L108.504,169.9 L108.133,170.211 L108.063,170.262 L108.102,170.233 L108.208,170.157 L108.363,170.049 L108.561,169.913 L108.797,169.752 L109.069,169.568 L109.374,169.362 L109.711,169.136 L110.077,168.891 L110.473,168.627 L110.895,168.346 L111.344,168.047 L111.817,167.733 L112.571,167.232 L113.655,166.514 L114.817,165.744 L116.051,164.926 L117.346,164.067 L118.696,163.171 L120.091,162.243 L121.524,161.288 L123.724,159.818 L126.706,157.815 L129.683,155.8 L131.871,154.307 L133.297,153.326 L134.686,152.364 L136.029,151.424 L137.32,150.513 L138.551,149.634 L139.715,148.791 L140.8,147.992 L141.56,147.422 L142.046,147.051 L142.513,146.69 L142.947,146.35 L143.137,146.198 L143.117,146.214 L143.947,145.556 L145.699,144.221 L147.487,142.924 L149.311,141.661 L151.169,140.43 L153.058,139.229 L154.975,138.056 L156.907,136.915 L159.862,135.237 L163.894,133.052 L167.991,130.918 L172.138,128.808 L176.317,126.699 L180.515,124.563 L184.716,122.374 L188.892,120.11 L191.999,118.347 L194.07,117.124 L196.13,115.864 L198.178,114.562 L200.212,113.215 L202.23,111.817 L204.23,110.365 L206.178,108.88 L207.096,108.153 L207.096,108.153 C207.112,108.14 207.128,108.127 207.144,108.115 L207.144,108.115 L207.621,107.728 L208.5,107 L209.33,106.289 L210.112,105.593 L210.849,104.909 L211.542,104.236 L212.194,103.57 L212.805,102.91 L213.376,102.252 L213.905,101.595 L214.391,100.939 L214.831,100.285 L215.221,99.637 L215.556,99 L215.832,98.381 L216.048,97.786 L216.204,97.222 L216.302,96.693 L216.348,96.202 L216.345,95.747 L216.301,95.328 L216.212,94.918 L216.024,94.383 L215.698,93.78 L215.298,93.248 L214.839,92.77 L214.328,92.326 L213.523,91.72 L212.414,90.964 L211.598,90.398 L211.092,90.017 L210.627,89.628 L210.216,89.228 L209.867,88.818 L209.588,88.399 L209.378,87.952 L209.271,87.6 L209.229,87.38 L209.204,87.159 L209.198,86.936 L209.21,86.711 L209.24,86.48 L209.289,86.241 L209.358,85.99 L209.451,85.722 L209.594,85.387 L209.713,85.14 L209.648,85.268 L209.671,85.206 L209.849,84.886 L210.097,84.512 L210.42,84.083 L210.822,83.602 L211.302,83.075 L211.858,82.506 L212.487,81.901 L213.187,81.263 L213.954,80.597 L214.783,79.906 L215.673,79.193 L216.619,78.459 L217.618,77.707 L218.668,76.94 L219.766,76.158 L220.908,75.363 L222.093,74.557 L223.317,73.741 L224.57,72.921 L226.52,71.672 L229.238,69.98 L232.061,68.271 L234.971,66.551 L237.95,64.826 L240.982,63.106 L244.047,61.397 L247.13,59.707 L250.212,58.043 L253.276,56.41 L256.306,54.817 L259.285,53.263 L262.198,51.757 L264.327,50.665 L265.715,49.958 L267.076,49.268 L268.409,48.594 L269.71,47.94 L270.979,47.304 L272.212,46.689 L273.408,46.094 L274.564,45.521 L275.68,44.97 L276.752,44.439 L277.778,43.931 L278.757,43.449 L279.685,42.992 L280.562,42.562 L281.384,42.16 L282.151,41.785 L282.859,41.44 L283.192,41.278 C283.192,41.278 283.192,41.278 283.192,41.278 C284.292,40.754 285.322,39.533 285.492,38.551 C285.662,37.569 284.908,37.198 283.808,37.722 L283.808,37.722" fill="#000000"/>
    <g>
      <path d="M203.5,448.5 C197.997,451.252 184.974,478.041 181.5,483.5 C164.736,509.844 148.469,536.83 130.5,562.5 C127.45,566.857 107.809,592.372 112.5,595.5 C121.699,601.633 134.866,579.345 138.5,574.5 C149.553,559.763 160.425,544.381 169.5,528.5 C172.52,523.215 178.169,519.497 181.5,514.5 C190.975,500.288 204.829,483.177 211.5,466.5 C212.561,463.847 218.748,450.748 215.5,447.5 C214.502,446.502 207.066,447.5 205.5,447.5 z" fill="#FFFFFF"/>
      <path d="M203.697,446.615 L203.568,446.682 L203.077,446.97 L202.528,447.342 L202.005,447.743 L201.509,448.167 L201.034,448.606 L200.385,449.262 L199.533,450.206 L198.68,451.237 L197.839,452.326 L197,453.475 L196.16,454.682 L195.316,455.943 L194.466,457.254 L193.612,458.609 L192.332,460.701 L190.622,463.589 L188.929,466.535 L187.282,469.465 L186.09,471.618 L185.323,473.014 L184.582,474.366 L183.869,475.67 L183.188,476.916 L182.542,478.096 L181.934,479.2 L181.368,480.22 L180.849,481.145 L180.495,481.765 L180.279,482.14 L180.075,482.487 L179.888,482.801 L179.719,483.079 L179.571,483.316 L179.515,483.401 L179.522,483.391 L176.357,488.335 L170.043,498.273 L163.746,508.232 L157.443,518.18 L151.11,528.093 L146.327,535.487 L143.119,540.389 L139.886,545.274 L136.629,550.134 L133.344,554.966 L130.027,559.767 L128.364,562.144 L128.379,562.123 L128.305,562.227 L128.156,562.435 L127.985,562.673 L127.786,562.947 L127.561,563.254 L127.314,563.592 L127.045,563.959 L126.756,564.353 L126.448,564.772 L126.123,565.215 L125.604,565.923 L124.861,566.939 L124.067,568.032 L123.228,569.193 L122.352,570.415 L121.449,571.688 L120.524,573.005 L119.12,575.037 L117.246,577.828 L115.856,579.969 L114.952,581.406 L114.086,582.821 L113.258,584.223 L112.473,585.604 L111.739,586.961 L111.064,588.286 L110.455,589.575 L110.036,590.538 L109.78,591.177 L109.553,591.785 L109.35,592.381 L109.172,592.966 L109.021,593.539 L108.898,594.099 L108.808,594.646 L108.753,595.176 L108.736,595.689 L108.763,596.181 L108.836,596.648 L108.961,597.086 L109.142,597.488 L109.381,597.848 L109.679,598.159 L109.886,598.323 L109.886,598.323 C109.903,598.335 109.921,598.347 109.939,598.359 L109.939,598.359 L110.154,598.497 L110.64,598.775 L111.155,599.02 L111.684,599.223 L112.229,599.384 L112.788,599.502 L113.364,599.578 L113.954,599.612 L114.832,599.583 L116.054,599.404 L117.362,599.054 L118.701,598.543 L120.05,597.884 L121.39,597.1 L122.702,596.211 L123.977,595.241 L125.206,594.209 L126.392,593.128 L127.532,592.011 L128.631,590.867 L129.689,589.704 L130.708,588.531 L132.144,586.791 L133.521,585.034 L134.405,583.864 L135.232,582.741 L136.019,581.651 L136.763,580.6 L137.462,579.599 L138.113,578.656 L138.714,577.78 L139.26,576.982 L139.749,576.272 L140.171,575.668 L140.432,575.304 L140.568,575.118 L140.616,575.054 L140.61,575.062 L142.681,572.293 L146.83,566.671 L150.95,560.97 L155.012,555.201 L158.016,550.82 L159.994,547.874 L161.939,544.923 L163.854,541.957 L165.739,538.974 L167.592,535.977 L169.408,532.966 L171.187,529.939 L172.071,528.404 L172.033,528.468 L172.323,527.979 L172.8,527.258 L173.272,526.626 L173.794,525.984 L174.371,525.32 L175.004,524.63 L176.078,523.513 L177.633,521.95 L179.299,520.254 L180.632,518.827 L181.559,517.768 L182.451,516.676 L183.321,515.515 L183.792,514.837 L183.792,514.837 C183.808,514.815 183.823,514.792 183.837,514.77 L183.837,514.77 L184.284,514.103 L185.177,512.782 L186.559,510.769 L188.476,508.019 L190.462,505.201 L192.503,502.313 L194.583,499.361 L196.684,496.351 L198.789,493.289 L200.879,490.179 L202.938,487.026 L204.947,483.836 L206.886,480.614 L208.74,477.363 L210.489,474.09 L212.114,470.801 L213.25,468.306 L213.961,466.632 L214.305,465.783 L214.305,465.783 C214.306,465.78 214.307,465.778 214.308,465.776 L214.308,465.776 L214.36,465.646 L214.472,465.376 L214.614,465.041 L214.785,464.638 L214.982,464.175 L215.2,463.66 L215.435,463.099 L215.685,462.496 L216.078,461.528 L216.626,460.131 L217.183,458.633 L217.725,457.067 L218.231,455.464 L218.678,453.849 L218.965,452.628 L219.127,451.813 L219.256,451.03 L219.352,450.262 L219.414,449.511 L219.435,448.782 L219.412,448.078 L219.339,447.404 L219.211,446.765 L219.021,446.165 L218.764,445.612 L218.431,445.113 L218.206,444.856 L218.206,444.856 C218.182,444.83 218.158,444.806 218.132,444.783 L218.132,444.783 L218.081,444.738 L217.827,444.565 L217.519,444.418 L217.203,444.314 L216.733,444.211 L216.047,444.125 L215.294,444.083 L214.5,444.075 L213.673,444.093 L212.825,444.13 L211.557,444.211 L210.323,444.308 L209.551,444.375 L208.847,444.436 L208.228,444.489 L207.714,444.527 L207.337,444.547 L207.238,444.549 L207.238,444.549 C206.834,444.556 206.362,444.689 205.866,444.938 L205.866,444.938 L203.866,445.945 L203.866,445.945 C202.254,446.751 200.783,448.548 200.581,449.959 C200.379,451.37 201.522,451.861 203.134,451.055 C203.134,451.055 203.134,451.055 203.134,451.055 L205.134,450.062 L203.762,450.451 L203.991,450.447 L204.456,450.425 L205.006,450.388 L205.636,450.34 L206.33,450.285 L207.069,450.227 L208.233,450.144 L209.416,450.078 L210.17,450.05 L210.877,450.039 L211.514,450.047 L212.052,450.075 L212.482,450.123 L212.712,450.166 L212.789,450.184 L212.81,450.18 L212.816,450.171 L212.868,450.217 L212.794,450.144 L212.86,450.205 L213.028,450.428 L213.169,450.699 L213.282,451.021 L213.363,451.392 L213.414,451.811 L213.432,452.275 L213.419,452.781 L213.376,453.324 L213.303,453.902 L213.202,454.511 L213.079,455.126 L212.849,456.101 L212.465,457.477 L212.017,458.881 L211.527,460.279 L211.014,461.64 L210.498,462.94 L210.122,463.853 L209.883,464.422 L209.655,464.959 L209.44,465.46 L209.241,465.925 L209.058,466.352 L208.891,466.745 L208.746,467.09 L208.692,467.224 L208.695,467.217 L208.403,467.932 L207.782,469.389 L206.774,471.598 L205.293,474.583 L203.684,477.581 L201.962,480.586 L200.141,483.597 L198.239,486.607 L196.27,489.611 L194.251,492.605 L192.197,495.583 L190.125,498.542 L188.049,501.477 L185.989,504.383 L183.96,507.258 L181.982,510.09 L180.543,512.184 L179.611,513.56 L179.163,514.23 L179.208,514.163 L179.041,514.415 L178.561,515.072 L178.016,515.751 L177.434,516.424 L176.398,517.54 L174.79,519.175 L173.04,520.936 L171.686,522.35 L170.753,523.378 L169.821,524.47 L168.906,525.627 L168.029,526.847 L167.258,528.039 L166.967,528.532 L166.967,528.532 C166.954,528.553 166.942,528.574 166.929,528.596 L166.929,528.596 L166.101,530.036 L164.395,532.941 L162.65,535.837 L160.868,538.723 L159.051,541.599 L157.202,544.465 L155.323,547.322 L153.425,550.157 L150.524,554.398 L146.57,560.029 L142.545,565.615 L138.458,571.166 L136.39,573.938 L136.39,573.938 C136.388,573.941 136.386,573.944 136.384,573.946 L136.384,573.946 L136.258,574.115 L136.026,574.434 L135.684,574.915 L135.212,575.594 L134.706,576.33 L134.164,577.122 L133.587,577.966 L132.976,578.855 L132.333,579.781 L131.66,580.736 L130.96,581.713 L130.237,582.702 L129.51,583.672 L128.369,585.141 L127.181,586.596 L126.399,587.507 L125.621,588.372 L124.854,589.184 L124.103,589.933 L123.377,590.612 L122.68,591.217 L122.018,591.743 L121.388,592.195 L120.784,592.577 L120.195,592.895 L119.606,593.153 L118.999,593.349 L118.325,593.474 L117.797,593.506 L117.459,593.496 L117.114,593.459 L116.76,593.392 L116.401,593.295 L116.036,593.163 L115.667,592.995 L115.279,592.78 L115.061,592.641 L115.114,592.677 L115.11,592.686 L115.039,592.64 L114.976,592.58 L114.922,592.5 L114.878,592.398 L114.845,592.269 L114.825,592.111 L114.822,591.92 L114.837,591.697 L114.873,591.44 L114.93,591.151 L115.009,590.83 L115.112,590.478 L115.237,590.098 L115.385,589.689 L115.547,589.275 L115.835,588.595 L116.305,587.583 L116.852,586.496 L117.468,585.346 L118.146,584.142 L118.877,582.894 L119.655,581.614 L120.461,580.323 L121.732,578.35 L123.504,575.696 L124.841,573.744 L125.72,572.482 L126.583,571.256 L127.421,570.076 L128.23,568.948 L129,567.88 L129.725,566.879 L130.235,566.178 L130.557,565.735 L130.864,565.314 L131.155,564.915 L131.43,564.537 L131.688,564.181 L131.929,563.848 L132.153,563.537 L132.361,563.246 L132.546,562.985 L132.621,562.877 L132.621,562.877 C132.626,562.87 132.631,562.863 132.636,562.856 L132.636,562.856 L134.332,560.412 L137.677,555.529 L140.984,550.623 L144.256,545.698 L147.494,540.756 L150.705,535.795 L155.472,528.34 L161.754,518.383 L167.979,508.42 L174.173,498.473 L180.366,488.558 L183.478,483.609 L183.478,483.609 C183.48,483.606 183.482,483.602 183.485,483.599 L183.485,483.599 L183.596,483.421 L183.801,483.085 L184.011,482.73 L184.231,482.353 L184.458,481.956 L184.697,481.532 L185.072,480.86 L185.601,479.895 L186.168,478.85 L186.77,477.731 L187.405,476.545 L188.07,475.3 L188.762,474.005 L189.479,472.665 L190.215,471.294 L191.353,469.19 L192.915,466.336 L194.503,463.494 L196.097,460.725 L197.279,458.739 L198.048,457.486 L198.798,456.296 L199.526,455.179 L200.222,454.149 L200.879,453.218 L201.486,452.401 L202.027,451.716 L202.509,451.151 L202.817,450.82 L202.958,450.676 L203.059,450.576 L203.115,450.518 L203.125,450.495 L203.171,450.455 L203.303,450.385 C204.522,449.74 205.599,448.374 205.708,447.333 C205.817,446.292 204.917,445.971 203.697,446.615 L203.697,446.615" fill="#000000"/>
    </g>
    <g>
      <path d="M246.5,526.5 C237.734,540.275 230.598,555.305 223.5,569.5 C219.331,577.838 209.356,592.964 223.5,596.5 C231.023,598.381 236.421,587.631 239.5,582.5 C252.612,560.646 266.489,539.185 279.5,517.5 C288.528,502.453 293.649,484.485 300.5,468.5 C307.85,451.349 300.465,436.535 286.5,450.5 z" fill="#FFFFFF"/>
      <path d="M245.452,526.448 L244.505,527.736 L242.483,530.366 L240.633,533.051 L238.904,535.763 L237.262,538.492 L235.684,541.234 L233.391,545.352 L230.447,550.859 L227.595,556.363 L224.822,561.829 L222.106,567.231 L220.76,569.896 L220.77,569.875 L220.569,570.27 L220.164,571.05 L219.732,571.869 L219.27,572.737 L218.534,574.121 L217.513,576.084 L216.481,578.168 L215.49,580.342 L214.792,582.041 L214.362,583.203 L213.985,584.343 L213.655,585.485 L213.379,586.623 L213.167,587.754 L213.024,588.872 L212.959,589.97 L212.98,591.042 L213.093,592.082 L213.304,593.083 L213.62,594.039 L214.045,594.944 L214.447,595.6 L214.755,596.022 L215.084,596.414 L215.443,596.79 L215.831,597.15 L216.251,597.493 L216.701,597.82 L217.182,598.129 L217.695,598.42 L218.24,598.694 L218.819,598.949 L219.43,599.186 L220.075,599.404 L220.754,599.604 L221.119,599.7 L221.119,599.7 C221.135,599.704 221.151,599.708 221.166,599.711 L221.166,599.711 L221.516,599.79 L222.318,599.916 L223.169,599.969 L224.038,599.94 L224.928,599.825 L225.841,599.623 L226.775,599.33 L227.724,598.947 L228.679,598.476 L229.627,597.924 L230.555,597.304 L231.453,596.629 L232.309,595.914 L233.12,595.17 L234.197,594.08 L235.524,592.569 L236.749,591.009 L237.842,589.478 L238.825,587.994 L239.711,586.574 L240.511,585.24 L241.227,584.017 L241.709,583.193 L241.998,582.704 L242.127,582.489 L242.114,582.51 L244.582,578.418 L249.546,570.285 L257.066,558.123 L267.145,541.927 L274.666,529.754 L279.633,521.605 L282.096,517.512 L282.096,517.512 C282.104,517.5 282.111,517.487 282.118,517.475 L282.118,517.475 L282.537,516.77 L283.399,515.274 L284.653,512.998 L286.247,509.923 L287.763,506.802 L289.203,503.657 L290.578,500.496 L291.897,497.323 L293.171,494.144 L295.014,489.385 L297.402,483.061 L299.177,478.372 L300.363,475.295 L301.564,472.258 L302.787,469.27 L303.402,467.815 L303.402,467.815 C303.406,467.805 303.41,467.795 303.414,467.785 L303.414,467.785 L303.746,466.985 L304.4,465.26 L304.977,463.521 L305.46,461.82 L305.852,460.159 L306.155,458.542 L306.372,456.974 L306.505,455.457 L306.556,453.996 L306.527,452.595 L306.42,451.257 L306.236,449.986 L305.976,448.789 L305.64,447.667 L305.23,446.625 L304.868,445.887 L304.599,445.419 L304.318,444.986 L304.017,444.577 L303.698,444.192 L303.359,443.832 L303,443.498 L302.621,443.191 L302.221,442.911 L301.801,442.66 L301.359,442.439 L300.895,442.249 L300.409,442.091 L299.899,441.968 L299.366,441.88 L298.808,441.829 L298.226,441.817 L297.619,441.846 L296.987,441.918 L296.331,442.035 L295.65,442.198 L294.948,442.409 L294.224,442.669 L293.482,442.978 L292.724,443.337 L291.952,443.745 L291.168,444.202 L290.377,444.706 L289.58,445.256 L288.78,445.849 L287.977,446.486 L287.175,447.164 L286.374,447.883 L285.574,448.64 L285.139,449.068 L285.139,449.068 C284.603,449.598 284.153,450.194 283.841,450.787 L283.841,450.787 L244.029,526.765 L244.029,526.765 C243.189,528.361 243.614,529.536 244.978,529.39 C246.343,529.243 248.13,527.831 248.971,526.235 L289.159,450.213 L287.861,451.932 L288.078,451.716 L288.568,451.248 L289.037,450.823 L289.484,450.439 L289.911,450.094 L290.319,449.785 L290.709,449.51 L291.083,449.265 L291.442,449.048 L291.791,448.857 L292.13,448.689 L292.463,448.543 L292.79,448.418 L293.115,448.314 L293.437,448.229 L293.759,448.165 L294.08,448.122 L294.401,448.101 L294.72,448.101 L295.038,448.124 L295.354,448.171 L295.666,448.242 L295.974,448.337 L296.278,448.457 L296.575,448.602 L296.865,448.771 L297.147,448.965 L297.421,449.184 L297.685,449.426 L297.94,449.694 L298.183,449.984 L298.415,450.297 L298.635,450.634 L298.836,450.979 L299.118,451.544 L299.455,452.386 L299.733,453.305 L299.952,454.297 L300.108,455.355 L300.2,456.475 L300.226,457.65 L300.185,458.875 L300.076,460.145 L299.896,461.454 L299.647,462.794 L299.327,464.162 L298.936,465.55 L298.474,466.953 L297.921,468.411 L297.586,469.215 L297.598,469.185 L296.938,470.738 L295.664,473.83 L294.424,476.944 L293.21,480.075 L291.422,484.773 L289.046,491.032 L287.231,495.696 L285.996,498.765 L284.73,501.797 L283.428,504.783 L282.083,507.713 L280.688,510.58 L279.229,513.392 L278.09,515.457 L277.304,516.815 L276.882,517.525 L276.904,517.488 L274.468,521.522 L269.535,529.602 L262.021,541.741 L251.91,557.972 L244.345,570.204 L239.352,578.395 L236.886,582.49 L236.886,582.49 C236.882,582.497 236.878,582.504 236.873,582.511 L236.873,582.511 L236.71,582.785 L236.394,583.321 L235.919,584.135 L235.265,585.255 L234.586,586.392 L233.888,587.52 L233.179,588.606 L232.476,589.615 L231.799,590.511 L231.121,591.318 L230.625,591.843 L230.355,592.106 L230.104,592.333 L229.869,592.529 L229.64,592.702 L229.404,592.859 L229.15,593.005 L228.865,593.141 L228.538,593.263 L228.166,593.364 L227.746,593.436 L227.279,593.467 L226.769,593.45 L226.186,593.367 L225.834,593.289 L225.881,593.3 L225.592,593.226 L225.015,593.061 L224.472,592.881 L223.963,592.688 L223.487,592.483 L223.042,592.266 L222.629,592.038 L222.245,591.798 L221.891,591.548 L221.564,591.289 L221.265,591.019 L220.992,590.742 L220.744,590.456 L220.53,590.176 L220.244,589.737 L219.927,589.108 L219.69,588.452 L219.527,587.768 L219.434,587.059 L219.405,586.323 L219.436,585.561 L219.524,584.774 L219.666,583.962 L219.858,583.126 L220.096,582.269 L220.379,581.392 L220.689,580.525 L221.227,579.174 L222.059,577.306 L222.975,575.424 L223.935,573.55 L224.656,572.174 L225.13,571.271 L225.593,570.381 L226.032,569.521 L226.23,569.125 L226.23,569.125 C226.233,569.118 226.236,569.111 226.24,569.104 L226.24,569.104 L227.557,566.428 L230.192,561.053 L232.832,555.659 L235.495,550.271 L238.203,544.899 L240.262,540.897 L241.648,538.256 L243.025,535.634 L244.375,533.031 L245.67,530.445 L246.86,527.854 L247.548,526.552 C247.548,526.552 247.548,526.552 247.548,526.552 C248.018,525.807 247.93,525.179 247.351,525.151 C246.772,525.122 245.922,525.703 245.452,526.448 L245.452,526.448" fill="#000000"/>
    </g>
    <g>
      <path d="M346.5,472.5 C339.005,493.112 327.966,509.661 317.5,528.5 C309.514,542.875 304.911,559.677 297.5,574.5 C296.21,577.081 286.763,603.184 293.5,601.5 C305.226,598.568 315.405,569.69 320.5,559.5 C327.211,546.079 335.88,531.979 339.5,517.5 C342.132,506.973 357.65,482.051 362.5,467.5 C364.591,461.226 375.28,446.67 370.5,439.5 C366.699,433.799 356.74,447.019 355.5,449.5 z" fill="#FFFFFF"/>
      <path d="M344.558,473.08 L343.957,474.116 L343.028,476.058 L342.276,477.909 L341.507,479.738 L340.323,482.455 L338.695,486.009 L337.013,489.491 L335.281,492.923 L333.498,496.317 L331.673,499.683 L329.806,503.033 L327.903,506.377 L324.993,511.408 L321.043,518.176 L318.051,523.346 L316.048,526.865 L315.043,528.652 L315.043,528.652 C315.034,528.669 315.025,528.686 315.016,528.702 L315.016,528.702 L314.273,530.055 L312.787,532.907 L311.361,535.822 L310.007,538.757 L308.711,541.709 L307.463,544.67 L305.66,549.113 L303.32,555.041 L300.989,560.919 L299.21,565.248 L297.997,568.074 L296.747,570.862 L295.455,573.596 L294.804,574.912 L294.804,574.912 C294.802,574.916 294.801,574.919 294.799,574.922 L294.799,574.922 L294.768,574.986 L294.653,575.229 L294.533,575.498 L294.414,575.774 L294.291,576.066 L294.163,576.38 L293.962,576.885 L293.668,577.644 L293.348,578.496 L293.007,579.43 L292.648,580.438 L292.275,581.513 L291.892,582.646 L291.504,583.828 L291.114,585.05 L290.541,586.931 L289.811,589.499 L289.307,591.447 L289,592.739 L288.725,593.998 L288.486,595.229 L288.285,596.422 L288.129,597.571 L288.023,598.669 L287.972,599.707 L287.976,600.461 L288.001,600.95 L288.046,601.405 L288.111,601.84 L288.199,602.256 L288.312,602.651 L288.454,603.024 L288.628,603.372 L288.839,603.693 L289.091,603.982 L289.392,604.234 L289.746,604.442 L290.159,604.597 L290.633,604.689 L291.17,604.709 L291.763,604.65 L292.16,604.573 L292.16,604.573 C292.205,604.563 292.251,604.551 292.297,604.539 L292.297,604.539 L292.57,604.466 L293.283,604.243 L294.393,603.807 L295.908,603.045 L297.479,602.059 L299.007,600.909 L300.467,599.633 L301.848,598.266 L303.15,596.83 L304.383,595.339 L305.555,593.799 L306.674,592.219 L307.75,590.599 L308.788,588.946 L309.79,587.264 L310.762,585.557 L311.704,583.832 L313.057,581.237 L314.776,577.76 L316.008,575.154 L316.796,573.444 L317.553,571.775 L318.283,570.144 L318.986,568.558 L319.661,567.029 L320.308,565.561 L320.925,564.167 L321.51,562.854 L322.064,561.632 L322.582,560.515 L323.062,559.513 L323.276,559.081 L323.258,559.118 L323.892,557.86 L325.174,555.363 L327.158,551.576 L329.869,546.439 L331.913,542.508 L333.266,539.842 L334.591,537.157 L335.88,534.446 L337.123,531.71 L338.307,528.95 L339.421,526.168 L340.453,523.366 L341.392,520.545 L342.225,517.709 L342.607,516.252 L342.607,516.252 C342.608,516.247 342.609,516.242 342.61,516.237 L342.61,516.237 L342.674,515.989 L342.8,515.536 L343.02,514.82 L343.371,513.79 L343.784,512.685 L344.261,511.495 L344.796,510.227 L345.387,508.887 L346.029,507.481 L346.718,506.016 L347.449,504.497 L348.217,502.928 L349.019,501.317 L349.849,499.668 L350.703,497.986 L352.022,495.409 L353.822,491.906 L355.637,488.36 L357.436,484.803 L358.756,482.145 L359.614,480.384 L360.446,478.645 L361.251,476.927 L362.023,475.234 L362.759,473.57 L363.454,471.94 L364.105,470.345 L364.705,468.792 L365.252,467.282 L365.513,466.519 L365.506,466.54 L365.609,466.242 L365.805,465.736 L366.035,465.201 L366.312,464.593 L366.632,463.922 L366.992,463.194 L367.387,462.413 L367.812,461.585 L368.495,460.266 L369.457,458.396 L370.449,456.413 L371.432,454.344 L372.368,452.211 L373.024,450.562 L373.43,449.441 L373.79,448.342 L374.109,447.244 L374.381,446.152 L374.6,445.068 L374.76,443.997 L374.855,442.944 L374.878,441.913 L374.824,440.91 L374.687,439.94 L374.462,439.009 L374.144,438.122 L373.73,437.285 L373.468,436.858 L373.468,436.858 C373.456,436.838 373.443,436.818 373.429,436.799 L373.429,436.799 L373.247,436.547 L372.78,436.028 L372.227,435.586 L371.604,435.254 L370.909,435.037 L370.141,434.941 L369.306,434.97 L368.415,435.125 L367.488,435.401 L366.546,435.784 L365.606,436.257 L364.686,436.802 L363.792,437.401 L362.931,438.04 L361.756,439.008 L360.263,440.381 L358.848,441.824 L357.561,443.256 L356.658,444.329 L356.093,445.029 L355.583,445.684 L355.107,446.315 L354.667,446.919 L354.262,447.493 L353.894,448.035 L353.562,448.547 L353.263,449.032 L352.992,449.504 L352.828,449.811 L352.828,449.811 C352.744,449.972 352.671,450.132 352.61,450.289 L352.61,450.289 L344.501,473.045 L344.501,473.045 C344.049,474.199 344.578,474.891 345.682,474.59 C346.786,474.289 348.047,473.109 348.499,471.955 L358.39,448.711 L358.172,449.189 L358.137,449.248 L358.198,449.135 L358.325,448.925 L358.507,448.644 L358.736,448.305 L359.007,447.921 L359.314,447.5 L359.652,447.052 L360.017,446.582 L360.384,446.125 L360.97,445.422 L361.813,444.471 L362.655,443.593 L363.501,442.793 L364.106,442.28 L364.435,442.024 L364.728,441.814 L364.984,441.646 L365.206,441.514 L365.405,441.411 L365.593,441.33 L365.787,441.269 L365.999,441.233 L366.236,441.233 L366.498,441.285 L366.78,441.406 L367.073,441.612 L367.388,441.946 L367.571,442.201 L367.532,442.142 L367.696,442.398 L368.001,442.988 L368.235,443.607 L368.403,444.254 L368.508,444.929 L368.554,445.631 L368.545,446.361 L368.483,447.117 L368.372,447.899 L368.213,448.706 L368.009,449.536 L367.764,450.388 L367.481,451.259 L367.171,452.122 L366.64,453.465 L365.827,455.32 L364.935,457.194 L363.996,459.066 L363.044,460.914 L362.343,462.266 L361.886,463.153 L361.444,464.028 L361.019,464.889 L360.615,465.736 L360.238,466.57 L359.891,467.393 L359.599,468.158 L359.494,468.46 L359.494,468.46 C359.492,468.467 359.49,468.474 359.487,468.481 L359.487,468.481 L359.277,469.098 L358.795,470.432 L358.254,471.832 L357.659,473.289 L357.014,474.8 L356.323,476.359 L355.592,477.96 L354.824,479.598 L354.022,481.269 L353.196,482.962 L351.91,485.549 L350.135,489.057 L348.325,492.59 L346.516,496.108 L345.182,498.715 L344.309,500.432 L343.455,502.128 L342.624,503.798 L341.821,505.436 L341.049,507.041 L340.312,508.609 L339.615,510.135 L338.963,511.617 L338.358,513.053 L337.806,514.438 L337.312,515.772 L336.886,517.035 L336.612,517.937 L336.454,518.512 L336.39,518.763 L336.393,518.748 L336.068,520.004 L335.318,522.579 L334.467,525.15 L333.525,527.72 L332.5,530.29 L331.401,532.86 L330.236,535.431 L329.015,538.003 L327.747,540.577 L326.445,543.145 L324.434,547.017 L321.713,552.185 L319.692,556.052 L318.377,558.62 L317.742,559.882 L317.742,559.882 C317.736,559.894 317.73,559.906 317.724,559.919 L317.724,559.919 L317.453,560.469 L316.919,561.588 L316.365,562.786 L315.79,564.058 L315.193,565.4 L314.573,566.806 L313.93,568.269 L313.264,569.782 L312.577,571.335 L311.868,572.923 L311.139,574.536 L310.394,576.157 L309.244,578.599 L307.639,581.865 L306.393,584.268 L305.554,585.814 L304.708,587.311 L303.857,588.749 L303.007,590.117 L302.162,591.402 L301.329,592.594 L300.518,593.678 L299.738,594.645 L299.001,595.486 L298.315,596.198 L297.683,596.787 L297.096,597.272 L296.529,597.673 L295.884,598.035 L295.361,598.26 L294.979,598.387 L294.703,598.461 L294.84,598.427 L294.927,598.419 L294.935,598.437 L294.933,598.457 L294.913,598.474 L294.875,598.48 L294.821,598.468 L294.754,598.432 L294.68,598.367 L294.602,598.27 L294.526,598.138 L294.455,597.972 L294.391,597.772 L294.336,597.538 L294.292,597.272 L294.259,596.975 L294.239,596.665 L294.23,596.137 L294.261,595.322 L294.342,594.419 L294.47,593.44 L294.64,592.395 L294.849,591.297 L295.093,590.155 L295.364,588.993 L295.821,587.201 L296.502,584.772 L297.042,582.979 L297.407,581.823 L297.77,580.705 L298.128,579.635 L298.476,578.623 L298.809,577.679 L299.122,576.814 L299.41,576.039 L299.67,575.362 L299.841,574.928 L299.939,574.684 L300.025,574.478 L300.093,574.316 L300.139,574.21 L300.169,574.144 L300.201,574.078 L300.196,574.088 L300.919,572.613 L302.284,569.703 L303.586,566.773 L304.841,563.822 L306.639,559.398 L308.945,553.515 L311.225,547.671 L312.961,543.342 L314.143,540.506 L315.353,537.715 L316.6,534.977 L317.889,532.299 L319.249,529.654 L319.984,528.298 L319.957,528.348 L320.918,526.616 L322.859,523.167 L325.798,518.029 L329.715,511.223 L332.623,506.119 L334.537,502.693 L336.423,499.24 L338.276,495.753 L340.082,492.225 L341.84,488.646 L343.536,485.011 L345.162,481.323 L346.33,478.514 L347.084,476.61 L347.819,474.687 L348.335,472.81 L348.442,471.92 C348.442,471.92 348.442,471.92 348.442,471.92 C348.847,470.819 348.305,470.187 347.232,470.507 C346.159,470.827 344.962,471.979 344.558,473.08 L344.558,473.08" fill="#000000"/>
    </g>
    <path d="M278.556,164.227 L278.647,164.921 L278.821,166.338 L278.982,167.799 L279.132,169.306 L279.27,170.857 L279.398,172.451 L279.514,174.087 L279.62,175.762 L279.715,177.476 L279.801,179.225 L279.879,181.008 L279.946,182.825 L280.004,184.674 L280.052,186.554 L280.106,189.428 L280.145,193.352 L280.149,197.369 L280.119,201.467 L280.056,205.635 L279.961,209.861 L279.837,214.131 L279.691,218.431 L279.517,222.751 L279.21,229.246 L278.85,235.716 L278.583,239.995 L278.297,244.236 L277.992,248.423 L277.67,252.546 L277.334,256.592 L276.984,260.548 L276.625,264.401 L276.254,268.14 L275.874,271.753 L275.584,274.371 L275.388,276.07 L275.191,277.731 L274.992,279.353 L274.792,280.933 L274.591,282.47 L274.389,283.962 L274.186,285.407 L274.085,286.109 L274.085,286.109 C274.085,286.112 274.085,286.114 274.084,286.117 L274.084,286.117 L273.95,287.075 L273.702,289.03 L273.485,291.005 L273.3,292.991 L273.076,295.979 L272.869,299.997 L272.755,304.048 L272.721,308.12 L272.754,312.207 L272.842,316.301 L273.047,322.439 L273.388,330.594 L273.637,336.655 L273.776,340.652 L273.879,344.609 L273.934,348.517 L273.938,350.443 L273.938,350.435 L273.937,350.639 L273.934,351.083 L273.928,351.579 L273.92,352.127 L273.909,352.725 L273.896,353.371 L273.88,354.063 L273.863,354.798 L273.843,355.574 L273.821,356.391 L273.785,357.685 L273.73,359.53 L273.669,361.497 L273.602,363.571 L273.53,365.738 L273.454,367.979 L273.374,370.281 L273.25,373.813 L273.078,378.589 L272.948,382.153 L272.861,384.491 L272.775,386.782 L272.691,389.01 L272.609,391.159 L272.531,393.213 L272.456,395.159 L272.385,396.979 L272.336,398.252 L272.305,399.054 L272.275,399.816 L272.247,400.536 L272.22,401.212 L272.195,401.843 L272.172,402.426 L272.151,402.959 L272.132,403.441 L272.115,403.869 L272.101,404.242 L272.088,404.557 L272.078,404.813 L272.07,405.008 L272.065,405.14 L272.062,405.207 L272.062,405.216 L272.062,405.216 C272.03,406.019 272.546,406.444 273.4,406.318 L273.4,406.318 L273.413,406.316 L273.521,406.3 L273.729,406.27 L274.031,406.226 L274.42,406.169 L274.89,406.1 L275.432,406.021 L276.04,405.932 L276.707,405.834 L277.427,405.729 L278.192,405.617 L278.994,405.5 L280.255,405.315 L282.005,405.06 L283.783,404.8 L285.533,404.544 L286.794,404.359 L287.596,404.242 L288.361,404.13 L289.081,404.025 L289.748,403.927 L290.356,403.838 L290.898,403.759 L291.367,403.691 L291.756,403.634 L292.058,403.589 L292.267,403.559 L292.374,403.543 L292.388,403.541 L292.388,403.541 C293.668,403.353 295.293,402.018 296.018,400.559 C296.237,400.117 296.356,399.696 296.363,399.335 L296.363,399.335 L296.363,399.327 L296.364,399.259 L296.367,399.124 L296.371,398.923 L296.377,398.658 L296.383,398.328 L296.391,397.936 L296.4,397.482 L296.41,396.968 L296.422,396.394 L296.434,395.761 L296.448,395.071 L296.463,394.325 L296.479,393.523 L296.496,392.667 L296.513,391.758 L296.532,390.796 L296.552,389.783 L296.572,388.721 L296.593,387.609 L296.615,386.449 L296.638,385.243 L296.662,383.99 L296.686,382.693 L296.711,381.352 L296.737,379.967 L296.763,378.542 L296.79,377.075 L296.818,375.57 L296.847,374.025 L296.89,371.638 L296.95,368.33 L297.013,364.887 L297.076,361.317 L297.142,357.629 L297.209,353.83 L297.276,349.929 L297.345,345.935 L297.415,341.857 L297.485,337.701 L297.555,333.477 L297.625,329.194 L297.696,324.859 L297.797,318.28 L297.931,309.407 L298.059,300.479 L298.182,291.565 L298.269,284.927 L298.325,280.541 L298.378,276.195 L298.428,271.9 L298.475,267.662 L298.52,263.49 L298.561,259.392 L298.598,255.378 L298.63,251.456 L298.658,247.632 L298.682,243.918 L298.703,240.319 L298.718,236.845 L298.729,233.505 L298.734,231.091 L298.736,229.528 L298.737,228.003 L298.736,226.517 L298.734,225.071 L298.73,223.666 L298.725,222.304 L298.719,220.984 L298.712,219.709 L298.702,218.478 L298.692,217.294 L298.68,216.157 L298.666,215.069 L298.651,214.03 L298.634,213.04 L298.616,212.102 L298.595,211.217 L298.574,210.383 L298.55,209.605 L298.525,208.881 L298.498,208.212 L298.469,207.6 L298.438,207.044 L298.405,206.545 L298.369,206.102 L298.331,205.715 L298.288,205.38 L298.24,205.09 L298.207,204.933 L298.24,205.281 L298.261,203.823 L298.299,200.948 L298.333,198.131 L298.364,195.371 L298.391,192.668 L298.413,190.021 L298.431,187.43 L298.446,184.892 L298.458,182.408 L298.466,179.977 L298.471,177.597 L298.474,175.269 L298.473,172.991 L298.47,170.763 L298.464,168.583 L298.456,166.452 L298.445,164.368 L298.432,162.33 L298.416,160.338 L298.399,158.391 L298.379,156.489 L298.358,154.629 L298.335,152.813 L298.31,151.038 L298.283,149.305 L298.256,147.612 L298.226,145.958 L298.196,144.343 L298.164,142.767 L298.132,141.228 L298.081,138.987 L298.011,136.124 L297.939,133.394 L297.865,130.795 L297.792,128.319 L297.717,125.96 L297.643,123.713 L297.572,121.57 L297.504,119.526 L297.44,117.576 L297.381,115.712 L297.327,113.928 L297.28,112.219 L297.24,110.579 L297.209,109.001 L297.186,107.48 L297.174,106.009 L297.172,105.294 L297.172,105.326 L297.192,104.056 L297.234,101.569 L297.279,99.151 L297.325,96.801 L297.373,94.518 L297.422,92.301 L297.473,90.148 L297.525,88.059 L297.579,86.033 L297.633,84.068 L297.689,82.164 L297.746,80.319 L297.803,78.532 L297.861,76.803 L297.92,75.129 L297.979,73.511 L298.038,71.947 L298.098,70.436 L298.158,68.976 L298.217,67.568 L298.275,66.21 L298.334,64.9 L298.392,63.638 L298.449,62.423 L298.507,61.252 L298.563,60.126 L298.619,59.044 L298.674,58.003 L298.727,57.004 L298.78,56.044 L298.832,55.123 L298.882,54.24 L298.954,52.984 L299.045,51.43 L299.129,50.009 L299.204,48.71 L299.271,47.523 L299.327,46.44 L299.372,45.452 L299.406,44.548 L299.426,43.721 L299.433,42.96 L299.424,42.255 L299.398,41.6 L299.354,40.985 L299.291,40.403 L299.158,39.594 L299.038,39.056 L299.038,39.056 C299.036,39.045 299.033,39.035 299.031,39.025 L299.031,39.025 L298.881,38.438 L298.578,37.296 L298.273,36.207 L297.968,35.173 L297.663,34.194 L297.358,33.269 L297.053,32.396 L296.748,31.575 L296.442,30.804 L296.137,30.083 L295.832,29.412 L295.526,28.787 L295.22,28.209 L294.914,27.677 L294.607,27.189 L294.299,26.744 L293.989,26.342 L293.676,25.981 L293.359,25.661 L293.036,25.38 L292.705,25.138 L292.362,24.935 L292.003,24.772 L291.622,24.651 L291.211,24.575 L290.757,24.554 L290.251,24.599 L289.682,24.728 L288.821,25.066 L287.552,25.849 L286.273,26.991 L285.277,28.195 L284.53,29.356 L283.942,30.485 L283.454,31.615 L283.032,32.771 L282.661,33.968 L282.332,35.212 L282.042,36.503 L281.788,37.841 L281.57,39.222 L281.386,40.642 L281.238,42.096 L281.127,43.579 L281.053,45.084 L281.017,46.605 L281.014,47.381 L281.015,47.35 L278.928,163.816 L278.928,163.816 C278.91,164.522 279.599,164.683 280.467,164.177 C281.335,163.671 282.053,162.689 282.071,161.984 L285.985,44.45 L285.985,44.45 C285.986,44.44 285.986,44.429 285.986,44.419 L285.986,44.419 L285.992,43.705 L286.033,42.266 L286.11,40.848 L286.22,39.461 L286.364,38.11 L286.538,36.805 L286.74,35.556 L286.969,34.371 L287.22,33.262 L287.489,32.241 L287.77,31.325 L288.051,30.533 L288.314,29.893 L288.524,29.445 L288.618,29.235 L288.504,29.291 L288.146,29.519 L287.833,29.638 L287.712,29.649 L287.646,29.645 L287.65,29.628 L287.715,29.617 L287.828,29.626 L287.978,29.664 L288.157,29.737 L288.358,29.85 L288.576,30.005 L288.808,30.203 L289.051,30.446 L289.302,30.735 L289.56,31.07 L289.825,31.453 L290.094,31.883 L290.368,32.363 L290.646,32.892 L290.926,33.47 L291.209,34.1 L291.495,34.781 L291.782,35.515 L292.07,36.301 L292.36,37.142 L292.651,38.037 L292.943,38.988 L293.235,39.995 L293.528,41.059 L293.821,42.185 L293.969,42.775 L293.962,42.744 L294.053,43.145 L294.164,43.814 L294.216,44.29 L294.252,44.809 L294.273,45.382 L294.279,46.017 L294.271,46.724 L294.249,47.511 L294.213,48.384 L294.165,49.353 L294.105,50.423 L294.035,51.605 L293.955,52.904 L293.865,54.33 L293.768,55.889 L293.69,57.152 L293.636,58.04 L293.581,58.967 L293.524,59.932 L293.466,60.938 L293.407,61.986 L293.347,63.076 L293.285,64.209 L293.223,65.387 L293.161,66.611 L293.097,67.881 L293.033,69.199 L292.969,70.565 L292.905,71.981 L292.842,73.448 L292.778,74.967 L292.715,76.538 L292.652,78.164 L292.589,79.845 L292.526,81.582 L292.464,83.377 L292.403,85.229 L292.343,87.141 L292.283,89.114 L292.225,91.148 L292.167,93.245 L292.111,95.405 L292.056,97.631 L292.003,99.922 L291.951,102.28 L291.9,104.705 L291.852,107.2 L291.828,108.474 L291.828,108.474 C291.828,108.484 291.828,108.495 291.828,108.506 L291.828,108.506 L291.829,109.24 L291.838,110.734 L291.857,112.275 L291.884,113.869 L291.92,115.523 L291.964,117.242 L292.013,119.034 L292.068,120.905 L292.127,122.86 L292.191,124.907 L292.257,127.051 L292.324,129.298 L292.394,131.656 L292.465,134.129 L292.535,136.725 L292.603,139.449 L292.67,142.308 L292.717,144.546 L292.748,146.082 L292.777,147.657 L292.806,149.268 L292.833,150.919 L292.859,152.609 L292.883,154.34 L292.905,156.112 L292.926,157.925 L292.945,159.781 L292.962,161.681 L292.978,163.625 L292.99,165.614 L293.001,167.649 L293.009,169.73 L293.015,171.859 L293.018,174.036 L293.019,176.261 L293.017,178.537 L293.011,180.862 L293.003,183.239 L292.992,185.668 L292.977,188.15 L292.959,190.685 L292.938,193.274 L292.913,195.919 L292.886,198.618 L292.855,201.374 L292.82,204.187 L292.781,207.059 L292.76,208.519 L292.76,208.519 C292.758,208.643 292.769,208.76 292.793,208.867 L292.793,208.867 L292.801,208.893 L292.832,209.066 L292.865,209.322 L292.898,209.653 L292.93,210.052 L292.961,210.518 L292.991,211.047 L293.019,211.637 L293.045,212.287 L293.07,212.996 L293.093,213.762 L293.114,214.582 L293.134,215.458 L293.152,216.388 L293.168,217.368 L293.183,218.401 L293.196,219.483 L293.208,220.614 L293.219,221.793 L293.227,223.019 L293.235,224.29 L293.241,225.606 L293.245,226.965 L293.248,228.366 L293.25,229.809 L293.25,231.292 L293.249,232.815 L293.247,234.375 L293.242,236.784 L293.23,240.122 L293.213,243.592 L293.192,247.188 L293.167,250.9 L293.138,254.72 L293.105,258.641 L293.069,262.652 L293.03,266.746 L292.989,270.914 L292.944,275.149 L292.897,279.442 L292.847,283.783 L292.794,288.166 L292.711,294.799 L292.594,303.708 L292.472,312.63 L292.344,321.498 L292.247,328.073 L292.184,332.403 L292.12,336.682 L292.056,340.901 L291.992,345.052 L291.929,349.126 L291.866,353.116 L291.805,357.013 L291.744,360.807 L291.684,364.492 L291.625,368.059 L291.569,371.498 L291.514,374.802 L291.474,377.187 L291.448,378.729 L291.422,380.234 L291.397,381.699 L291.373,383.123 L291.349,384.505 L291.326,385.846 L291.304,387.141 L291.282,388.393 L291.261,389.598 L291.241,390.757 L291.222,391.867 L291.203,392.929 L291.186,393.94 L291.169,394.9 L291.154,395.808 L291.139,396.662 L291.125,397.463 L291.112,398.208 L291.1,398.897 L291.089,399.528 L291.079,400.101 L291.07,400.615 L291.062,401.068 L291.055,401.459 L291.049,401.788 L291.044,402.053 L291.041,402.254 L291.039,402.388 L291.037,402.456 L291.037,402.465 L295.012,398.259 L294.998,398.261 L294.89,398.277 L294.682,398.308 L294.379,398.353 L293.99,398.411 L293.52,398.48 L292.977,398.561 L292.369,398.651 L291.7,398.751 L290.98,398.858 L290.215,398.971 L289.411,399.091 L288.148,399.278 L286.396,399.538 L284.616,399.803 L282.864,400.063 L281.602,400.25 L280.797,400.37 L280.032,400.483 L279.312,400.59 L278.644,400.69 L278.035,400.78 L277.492,400.861 L277.023,400.93 L276.633,400.988 L276.33,401.033 L276.122,401.064 L276.014,401.08 L276,401.082 L277.338,402.185 L277.339,402.176 L277.341,402.109 L277.346,401.977 L277.353,401.782 L277.363,401.526 L277.375,401.211 L277.389,400.839 L277.404,400.411 L277.422,399.929 L277.442,399.397 L277.464,398.814 L277.487,398.184 L277.512,397.509 L277.538,396.789 L277.566,396.028 L277.595,395.227 L277.642,393.955 L277.708,392.136 L277.778,390.193 L277.851,388.141 L277.928,385.994 L278.007,383.768 L278.087,381.479 L278.168,379.142 L278.29,375.58 L278.45,370.809 L278.565,367.279 L278.637,364.979 L278.706,362.739 L278.771,360.574 L278.83,358.5 L278.885,356.532 L278.933,354.685 L278.965,353.388 L278.984,352.57 L279.001,351.79 L279.016,351.051 L279.029,350.354 L279.04,349.702 L279.049,349.096 L279.056,348.536 L279.06,348.027 L279.062,347.57 L279.062,347.365 L279.062,347.365 C279.062,347.362 279.062,347.359 279.062,347.357 L279.062,347.357 L279.05,345.397 L278.981,341.459 L278.864,337.484 L278.71,333.476 L278.439,327.426 L278.071,319.315 L277.846,313.225 L277.743,309.181 L277.692,305.157 L277.706,301.161 L277.797,297.2 L277.98,293.275 L278.184,290.362 L278.354,288.442 L278.554,286.538 L278.786,284.64 L278.916,283.683 L278.915,283.691 L279.014,282.975 L279.212,281.514 L279.409,280.009 L279.605,278.459 L279.799,276.868 L279.992,275.237 L280.183,273.565 L280.372,271.855 L280.652,269.222 L281.017,265.596 L281.372,261.846 L281.714,257.983 L282.042,254.022 L282.353,249.972 L282.649,245.847 L282.927,241.657 L283.186,237.415 L283.425,233.13 L283.744,226.658 L284.009,220.165 L284.155,215.843 L284.273,211.54 L284.358,207.274 L284.413,203.051 L284.436,198.885 L284.428,194.787 L284.385,190.769 L284.308,186.845 L284.226,183.97 L284.16,182.088 L284.084,180.235 L283.999,178.413 L283.904,176.624 L283.797,174.87 L283.678,173.153 L283.549,171.474 L283.409,169.833 L283.258,168.232 L283.097,166.673 L282.924,165.157 L282.741,163.685 L282.546,162.262 L282.444,161.573 C282.334,160.78 281.373,160.732 280.299,161.465 C279.225,162.198 278.445,163.435 278.556,164.227 L278.556,164.227" fill="#000000"/>
  </g>
</svg>
