<?xml version="1.0" encoding="UTF-8"?>
<!DOCTYPE svg PUBLIC "-//W3C//DTD SVG 1.1//EN" "http://www.w3.org/Graphics/SVG/1.1/DTD/svg11.dtd">
<svg version="1.1" xmlns="http://www.w3.org/2000/svg" xmlns:xlink="http://www.w3.org/1999/xlink" x="0" y="0" width="318.539" height="187.219" viewBox="0, 0, 318.539, 187.219">
  <g id="Layer_1" transform="translate(-190.567, -121.115)">
    <path d="M225.919,277.715 L226.153,277.104 L226.595,276.072 L227.059,275.116 L227.567,274.169 L228.119,273.229 L228.714,272.291 L229.354,271.353 L230.037,270.412 L230.762,269.468 L231.53,268.519 L232.339,267.565 L233.187,266.607 L234.559,265.127 L236.487,263.165 L238.496,261.229 L240.594,259.289 L242.755,257.352 L244.954,255.421 L247.167,253.5 L249.369,251.588 L251.54,249.682 L253.146,248.245 L254.209,247.275 L254.745,246.777 L254.746,246.777 L255.478,246.097 L256.916,244.785 L258.378,243.479 L259.884,242.161 L261.433,240.831 L263.022,239.493 L264.652,238.145 L266.319,236.789 L268.906,234.731 L272.47,231.975 L276.15,229.218 L279.953,226.453 L283.865,223.689 L287.881,220.931 L291.988,218.187 L296.178,215.464 L300.441,212.768 L304.767,210.105 L309.146,207.483 L313.571,204.906 L318.03,202.383 L322.514,199.919 L327.015,197.52 L331.523,195.192 L336.029,192.942 L340.523,190.775 L344.995,188.699 L349.437,186.718 L352.731,185.304 L354.909,184.396 L357.085,183.511 L359.247,182.654 L361.394,181.825 L363.525,181.027 L365.638,180.258 L367.731,179.521 L369.805,178.816 L371.858,178.143 L373.889,177.503 L375.896,176.898 L377.878,176.327 L379.835,175.791 L381.765,175.292 L383.666,174.829 L384.591,174.616 L384.545,174.626 L385.25,174.472 L386.569,174.218 L387.867,174.006 L389.177,173.824 L391.176,173.596 L393.859,173.347 L396.571,173.116 L399.332,172.848 L402.152,172.485 L404.337,172.112 L405.84,171.795 L406.625,171.608 L406.625,171.608 C408.616,171.13 410.956,169.015 411.851,166.885 C412.747,164.755 411.858,163.416 409.867,163.894 C409.867,163.894 409.867,163.894 409.867,163.894 L409.287,164.035 L408.064,164.298 L406.164,164.629 L403.54,164.969 L400.851,165.231 L398.093,165.466 L395.277,165.728 L393.123,165.976 L391.649,166.183 L390.15,166.431 L388.655,166.721 L387.948,166.876 L387.948,166.876 C387.932,166.879 387.917,166.883 387.901,166.886 L387.901,166.886 L386.886,167.121 L384.866,167.613 L382.821,168.144 L380.751,168.711 L378.657,169.315 L376.541,169.954 L374.405,170.627 L372.248,171.335 L370.071,172.076 L367.876,172.849 L365.666,173.654 L363.438,174.489 L361.197,175.355 L358.941,176.25 L356.673,177.173 L354.382,178.129 L350.932,179.611 L346.317,181.67 L341.675,183.827 L337.015,186.075 L332.346,188.408 L327.676,190.821 L323.013,193.308 L318.367,195.862 L313.745,198.479 L309.158,201.151 L304.613,203.874 L300.12,206.641 L295.685,209.447 L291.318,212.287 L287.028,215.155 L282.822,218.045 L278.709,220.953 L274.698,223.872 L270.795,226.799 L267.026,229.716 L264.287,231.897 L262.49,233.358 L260.729,234.816 L259.001,236.273 L257.31,237.726 L255.655,239.175 L254.037,240.622 L252.48,242.044 L251.746,242.725 L251.746,242.725 C249.726,244.6 248.761,247.026 249.589,248.145 C250.417,249.264 252.725,248.652 254.745,246.777 C256.765,244.903 257.732,242.476 256.904,241.357 C256.075,240.238 253.767,240.85 251.747,242.725 L251.747,242.725 L251.321,243.12 L250.41,243.953 L248.948,245.263 L246.859,247.097 L244.653,249.012 L242.359,251.004 L240.003,253.073 L237.61,255.223 L235.204,257.454 L232.81,259.773 L230.486,262.151 L228.797,263.981 L227.676,265.256 L226.582,266.555 L225.52,267.88 L224.492,269.231 L223.506,270.606 L222.567,272.003 L221.681,273.421 L220.854,274.857 L220.092,276.307 L219.4,277.767 L218.808,279.173 L218.573,279.787 C217.766,281.894 218.757,283.138 220.786,282.566 C222.815,281.993 225.113,279.822 225.919,277.715 L225.919,277.715" fill="#000000"/>
    <path d="M259.066,240.274 L259.224,239.703 L259.544,238.668 L259.897,237.658 L260.292,236.631 L260.728,235.589 L261.207,234.53 L261.726,233.456 L262.286,232.366 L262.884,231.262 L263.523,230.142 L264.198,229.009 L264.912,227.862 L265.662,226.701 L266.447,225.529 L267.708,223.724 L269.498,221.294 L271.391,218.858 L273.399,216.396 L275.509,213.916 L277.714,211.423 L280.001,208.927 L282.361,206.435 L284.783,203.953 L287.257,201.489 L289.771,199.049 L292.315,196.641 L294.879,194.27 L297.449,191.946 L300.019,189.673 L302.575,187.458 L305.107,185.307 L307.604,183.228 L310.056,181.226 L311.849,179.788 L313.022,178.858 L314.185,177.945 L315.331,177.055 L316.455,176.191 L317.558,175.351 L318.638,174.538 L319.692,173.753 L320.721,172.995 L321.722,172.267 L322.694,171.568 L323.636,170.901 L324.083,170.587 L324.071,170.595 L332.124,164.961 L344.179,156.507 L352.2,150.837 L356.21,147.981 L356.074,148.077 L356.12,148.045 L355.975,148.144 L355.963,148.155 L356.081,148.089 L356.284,147.978 L356.551,147.834 L356.873,147.663 L357.243,147.468 L357.658,147.252 L358.114,147.016 L358.609,146.762 L359.14,146.492 L359.705,146.205 L360.303,145.904 L360.93,145.589 L361.586,145.261 L362.622,144.746 L364.085,144.024 L365.629,143.268 L367.243,142.484 L368.913,141.679 L370.625,140.859 L373.251,139.617 L376.779,137.974 L379.378,136.788 L381.064,136.031 L382.706,135.306 L384.284,134.621 L385.784,133.985 L386.841,133.548 L387.509,133.276 L388.156,133.019 L388.773,132.778 L389.356,132.556 L389.904,132.354 L390.414,132.172 L390.883,132.011 L391.307,131.873 L391.682,131.759 L392.004,131.669 L392.267,131.605 L392.461,131.567 L392.578,131.553 L392.605,131.559 L392.522,131.573 L392.312,131.566 L391.975,131.469 L391.659,131.232 L391.489,130.988 L391.518,131.042 L391.429,130.86 L391.376,130.636 L391.363,130.502 L391.357,130.46 L391.34,130.503 L391.301,130.619 L391.24,130.8 L391.153,131.037 L391.041,131.324 L390.906,131.655 L390.748,132.027 L390.568,132.436 L390.368,132.876 L390.027,133.607 L389.516,134.662 L388.952,135.796 L388.335,137.007 L387.677,138.28 L386.984,139.603 L386.266,140.964 L385.154,143.057 L383.655,145.872 L382.548,147.964 L381.829,149.336 L381.138,150.67 L380.479,151.964 L379.86,153.206 L379.285,154.393 L378.881,155.254 L378.626,155.816 L378.391,156.35 L378.17,156.869 L377.965,157.373 L377.776,157.866 L377.604,158.346 L377.449,158.82 L377.314,159.292 L377.201,159.767 L377.118,160.253 L377.078,160.76 L377.104,161.293 L377.245,161.842 L377.574,162.36 L378.167,162.745 L378.756,162.872 L378.756,162.872 C379.032,162.896 379.34,162.869 379.67,162.793 L379.67,162.793 L379.679,162.791 L381.076,162.238 L382.042,161.623 L382.666,161.137 L383.135,160.739 L383.569,160.356 L384.02,159.949 L384.504,159.508 L385.024,159.028 L385.581,158.511 L386.171,157.959 L386.792,157.377 L387.441,156.767 L388.449,155.815 L389.845,154.491 L391.265,153.14 L392.666,151.802 L393.682,150.831 L394.333,150.208 L394.955,149.611 L395.546,149.045 L396.099,148.514 L396.61,148.023 L397.073,147.577 L397.484,147.182 L397.838,146.841 L398.13,146.56 L398.354,146.344 L398.477,146.225 L398.538,146.166 L398.565,146.14 L398.533,146.171 L399.059,145.666 L399.978,144.814 L400.822,144.068 L401.632,143.388 L402.413,142.767 L403.165,142.202 L403.894,141.687 L404.607,141.214 L405.307,140.781 L406,140.38 L406.692,140.01 L407.388,139.664 L408.49,139.168 L409.982,138.588 L411.505,138.087 L413.121,137.631 L414.841,137.206 L416.676,136.796 L418.635,136.383 L420.19,136.06 L421.277,135.831 L422.399,135.59 L423.56,135.333 L424.761,135.058 L426.003,134.761 L426.65,134.602 L426.61,134.611 L427.733,134.346 L429.816,133.941 L431.849,133.654 L433.882,133.47 L435.914,133.383 L437.947,133.391 L439.978,133.487 L442.008,133.667 L444.036,133.926 L446.063,134.258 L448.089,134.658 L450.112,135.119 L452.133,135.635 L454.155,136.201 L457.193,137.131 L461.241,138.483 L465.29,139.916 L469.359,141.381 L473.455,142.827 L476.554,143.868 L478.639,144.53 L480.733,145.156 L482.841,145.741 L484.965,146.278 L487.107,146.76 L489.269,147.181 L491.454,147.533 L492.573,147.684 L492.302,147.628 L492.684,147.74 L493.39,147.961 L494.044,148.185 L494.656,148.414 L495.226,148.646 L495.755,148.882 L496.246,149.122 L496.697,149.364 L497.111,149.607 L497.489,149.852 L498.002,150.23 L498.564,150.732 L498.987,151.216 L499.296,151.683 L499.501,152.126 L499.618,152.534 L499.662,152.901 L499.651,153.219 L499.602,153.487 L499.532,153.707 L499.449,153.891 L499.36,154.05 L499.26,154.203 L499.146,154.364 L499.009,154.543 L498.691,154.933 L498.201,155.46 L497.871,155.782 L497.635,156.007 L497.346,156.277 L497.056,156.54 L496.767,156.799 L496.48,157.054 L496.184,157.318 L495.855,157.62 L495.578,157.885 L495.578,157.885 C495.565,157.898 495.552,157.911 495.538,157.924 L495.538,157.924 L494.867,158.584 L493.666,159.705 L492.469,160.757 L491.214,161.809 L489.2,163.417 L486.393,165.561 L483.476,167.749 L480.454,170.056 L478.116,171.921 L476.518,173.259 L474.946,174.642 L473.38,176.101 L472.541,176.921 L472.541,176.921 C472.537,176.925 472.532,176.929 472.528,176.934 L472.528,176.934 L471.402,178.044 L469.276,180.055 L467.161,181.958 L465.007,183.817 L462.815,185.643 L460.583,187.45 L457.155,190.162 L452.503,193.797 L448.948,196.61 L446.53,198.568 L444.107,200.586 L441.672,202.688 L439.231,204.886 L436.79,207.193 L435.523,208.439 L435.528,208.434 L435.041,208.913 L434.228,209.672 L433.465,210.336 L432.688,210.97 L431.894,211.578 L431.078,212.166 L430.236,212.736 L429.364,213.293 L428.461,213.837 L427.526,214.37 L426.028,215.171 L423.935,216.199 L421.743,217.195 L420.627,217.679 L420.695,217.649 L419.438,218.177 L417.055,219.108 L414.719,219.933 L412.385,220.672 L410.054,221.325 L407.724,221.893 L405.396,222.377 L403.069,222.778 L400.743,223.096 L398.419,223.332 L396.094,223.487 L393.772,223.562 L391.45,223.557 L389.129,223.473 L386.811,223.312 L384.493,223.073 L382.177,222.759 L379.863,222.37 L377.551,221.907 L375.241,221.371 L372.932,220.763 L370.626,220.086 L368.321,219.338 L366.02,218.523 L363.719,217.641 L361.421,216.693 L359.124,215.681 L356.83,214.605 L354.537,213.467 L352.246,212.269 L349.956,211.012 L347.668,209.696 L346.53,209.021 L346.53,209.021 C346.522,209.015 346.513,209.01 346.504,209.005 L346.504,209.005 L346.397,208.945 L346.049,208.77 L345.628,208.582 L345.149,208.383 L344.61,208.17 L344.012,207.943 L343.359,207.703 L342.656,207.449 L341.908,207.185 L341.122,206.91 L339.883,206.484 L338.151,205.898 L336.369,205.303 L334.589,204.714 L332.859,204.144 L331.624,203.738 L330.842,203.481 L330.101,203.236 L329.408,203.007 L328.768,202.794 L328.187,202.6 L327.673,202.426 L327.232,202.275 L326.873,202.148 L326.604,202.05 L326.445,201.986 L326.445,201.981 L326.799,202.234 L327.126,204.026 L327.136,203.978 L323.804,208.506 L321.188,209.593 L320.934,209.6 L321.055,209.648 L321.325,209.754 L321.687,209.909 L322.12,210.107 L322.61,210.344 L323.148,210.615 L323.728,210.915 L324.343,211.243 L325.32,211.776 L326.691,212.549 L328.102,213.366 L329.512,214.205 L330.881,215.038 L331.855,215.644 L332.469,216.033 L333.051,216.407 L333.595,216.763 L334.094,217.096 L334.543,217.403 L334.936,217.68 L335.266,217.922 L335.525,218.125 L335.702,218.276 L335.733,218.309 L335.706,218.282 L335.978,218.557 L336.549,219.152 L337.165,219.814 L337.827,220.543 L338.528,221.332 L339.264,222.175 L340.029,223.065 L340.82,223.998 L341.631,224.966 L342.458,225.965 L343.719,227.508 L345.413,229.616 L347.088,231.742 L348.309,233.318 L349.099,234.35 L349.865,235.362 L350.601,236.346 L351.304,237.298 L351.968,238.21 L352.589,239.078 L353.162,239.894 L353.682,240.653 L354.145,241.349 L354.545,241.974 L354.877,242.519 L355.074,242.865 L355.177,243.059 L355.262,243.229 L355.323,243.366 L355.358,243.458 L355.363,243.49 L355.339,243.418 L355.301,243.115 L355.374,242.436 L355.601,241.714 L355.568,241.798 L355.96,240.985 L356.81,239.808 L357.68,238.94 L358.313,238.45 L358.68,238.216 L358.786,238.143 L358.607,238.178 L358.211,238.264 L357.643,238.369 L356.97,238.469 L356.239,238.557 L355.481,238.63 L354.725,238.687 L353.993,238.731 L353.309,238.762 L352.695,238.782 L352.171,238.793 L351.76,238.798 L351.61,238.798 L351.626,238.798 L350.408,238.794 L347.96,238.76 L345.474,238.697 L342.945,238.606 L340.375,238.492 L337.77,238.357 L333.8,238.124 L328.417,237.771 L322.956,237.396 L317.439,237.025 L311.893,236.684 L306.344,236.4 L302.19,236.241 L299.429,236.167 L296.685,236.122 L293.958,236.11 L291.249,236.135 L288.561,236.199 L285.897,236.307 L283.259,236.462 L280.65,236.668 L278.073,236.928 L275.527,237.247 L273.017,237.628 L270.543,238.077 L268.105,238.598 L266.866,238.894 L266.866,238.894 C266.831,238.903 266.795,238.912 266.759,238.922 L266.759,238.922 L266.526,238.984 L265.831,239.201 L265.055,239.489 L264.274,239.822 L263.489,240.196 L262.704,240.606 L261.915,241.049 L261.126,241.521 L260.334,242.021 L259.54,242.546 L258.744,243.095 L257.944,243.666 L257.141,244.257 L256.333,244.869 L255.135,245.806 L253.51,247.124 L251.848,248.52 L250.175,249.968 L248.493,251.461 L246.805,252.989 L245.116,254.545 L242.603,256.899 L239.288,260.056 L236.852,262.4 L235.273,263.924 L233.738,265.403 L232.253,266.831 L230.824,268.197 L229.459,269.49 L228.168,270.697 L227.262,271.531 L226.693,272.049 L226.141,272.545 L225.614,273.01 L225.117,273.442 L224.651,273.84 L224.219,274.199 L223.824,274.518 L223.471,274.794 L223.164,275.024 L222.91,275.205 L222.715,275.334 L222.589,275.407 L222.542,275.426 L222.642,275.367 L222.642,275.367 C220.47,276.495 218.532,278.925 218.313,280.794 C218.094,282.663 219.678,283.263 221.85,282.135 C221.85,282.135 221.85,282.135 221.85,282.135 L222.267,281.912 L222.896,281.543 L223.502,281.154 L224.093,280.749 L224.677,280.324 L225.26,279.882 L225.845,279.42 L226.437,278.939 L227.036,278.439 L227.645,277.918 L228.266,277.377 L228.898,276.817 L229.543,276.238 L230.209,275.632 L231.223,274.698 L232.606,273.404 L234.035,272.05 L235.506,270.644 L237.013,269.195 L238.551,267.712 L240.11,266.208 L242.476,263.931 L245.67,260.888 L248.062,258.646 L249.627,257.204 L251.167,255.808 L252.671,254.472 L254.131,253.206 L255.535,252.023 L256.894,250.917 L257.873,250.149 L258.485,249.684 L259.074,249.248 L259.635,248.844 L260.17,248.473 L260.675,248.135 L261.148,247.833 L261.587,247.565 L261.989,247.334 L262.354,247.136 L262.68,246.973 L262.967,246.842 L263.214,246.739 L263.496,246.644 L263.733,246.58 L263.626,246.607 L264.67,246.355 L266.879,245.879 L269.156,245.464 L271.495,245.106 L273.889,244.805 L276.336,244.556 L278.829,244.358 L281.366,244.208 L283.941,244.103 L286.551,244.04 L289.192,244.016 L291.86,244.027 L294.551,244.071 L297.258,244.143 L301.352,244.3 L306.854,244.581 L312.374,244.92 L317.885,245.291 L323.361,245.667 L328.773,246.021 L332.776,246.257 L335.415,246.393 L338.024,246.509 L340.603,246.601 L343.147,246.666 L345.645,246.699 L346.866,246.704 L346.866,246.704 C346.871,246.704 346.876,246.704 346.882,246.704 L346.882,246.704 L347.073,246.703 L347.54,246.698 L348.123,246.685 L348.805,246.662 L349.569,246.627 L350.397,246.577 L351.273,246.509 L352.183,246.419 L353.115,246.304 L354.062,246.156 L355.031,245.963 L356.052,245.697 L357.129,245.321 L358.049,244.899 L358.889,244.412 L359.932,243.652 L361.146,242.495 L362.269,241.011 L362.857,239.874 L362.891,239.787 L362.891,239.787 C362.99,239.539 363.066,239.297 363.118,239.066 L363.118,239.066 L363.207,238.318 L363.167,237.837 L363.097,237.539 L363.017,237.296 L362.924,237.067 L362.818,236.837 L362.698,236.597 L362.559,236.338 L362.324,235.927 L361.959,235.33 L361.535,234.667 L361.052,233.942 L360.515,233.159 L359.928,232.323 L359.295,231.439 L358.621,230.513 L357.909,229.549 L357.164,228.553 L356.39,227.53 L355.591,226.486 L354.356,224.893 L352.666,222.749 L350.959,220.624 L349.687,219.068 L348.851,218.058 L348.031,217.078 L347.229,216.133 L346.451,215.228 L345.701,214.369 L344.982,213.56 L344.3,212.808 L343.656,212.117 L343.06,211.497 L342.786,211.22 L342.786,211.22 C342.777,211.211 342.768,211.202 342.759,211.193 L342.759,211.193 L342.625,211.068 L342.362,210.847 L342.047,210.602 L341.676,210.331 L341.253,210.032 L340.78,209.709 L340.26,209.363 L339.7,208.996 L339.102,208.612 L338.471,208.213 L337.475,207.593 L336.081,206.745 L334.645,205.891 L333.206,205.057 L331.804,204.268 L330.8,203.719 L330.159,203.379 L329.547,203.061 L328.969,202.771 L328.426,202.509 L327.92,202.278 L327.448,202.079 L326.998,201.911 L326.523,201.774 L325.806,201.689 L322.873,202.784 L319.377,207.425 L319.366,207.476 L319.366,207.476 C319.202,208.248 319.317,208.877 319.693,209.268 L319.693,209.268 L320.073,209.548 L320.277,209.643 L320.513,209.736 L320.819,209.848 L321.201,209.982 L321.656,210.139 L322.18,210.316 L322.767,210.513 L323.413,210.727 L324.109,210.957 L324.851,211.202 L325.632,211.459 L326.866,211.864 L328.591,212.432 L330.363,213.019 L332.133,213.611 L333.852,214.192 L335.076,214.613 L335.849,214.882 L336.58,215.141 L337.262,215.387 L337.888,215.618 L338.451,215.831 L338.942,216.024 L339.351,216.193 L339.662,216.33 L339.879,216.435 L339.988,216.497 L339.962,216.481 L341.133,217.177 L343.468,218.518 L345.807,219.802 L348.151,221.027 L350.5,222.192 L352.856,223.295 L355.217,224.336 L357.586,225.311 L359.961,226.221 L362.344,227.064 L364.735,227.838 L367.134,228.542 L369.542,229.174 L371.96,229.733 L374.388,230.217 L376.826,230.625 L379.276,230.955 L381.737,231.206 L384.211,231.376 L386.698,231.463 L389.198,231.465 L391.712,231.381 L394.241,231.208 L396.786,230.946 L399.347,230.591 L401.923,230.143 L404.517,229.598 L407.127,228.956 L409.754,228.215 L412.398,227.371 L415.06,226.425 L417.694,225.392 L418.954,224.864 L418.954,224.864 C418.976,224.854 418.999,224.844 419.022,224.834 L419.022,224.834 L420.338,224.262 L422.894,223.094 L425.401,221.851 L427.26,220.85 L428.522,220.125 L429.784,219.356 L431.046,218.542 L432.308,217.675 L433.567,216.756 L434.822,215.779 L436.067,214.747 L437.301,213.656 L438.461,212.564 L438.952,212.081 L438.952,212.081 C438.953,212.079 438.955,212.077 438.957,212.076 L438.957,212.076 L439.934,211.109 L442.019,209.131 L444.149,207.208 L446.321,205.329 L448.537,203.481 L450.782,201.661 L454.252,198.916 L458.991,195.212 L462.593,192.361 L465.032,190.384 L467.487,188.335 L469.952,186.201 L472.421,183.97 L474.837,181.68 L475.964,180.568 L475.951,180.581 L476.435,180.101 L477.576,179.028 L478.782,177.96 L480.023,176.914 L482.037,175.303 L484.932,173.091 L487.986,170.8 L491.121,168.4 L493.494,166.497 L495.11,165.133 L496.729,163.697 L498.278,162.242 L498.954,161.578 L498.914,161.617 L498.808,161.715 L498.913,161.617 L499.162,161.394 L499.513,161.082 L499.943,160.696 L500.437,160.243 L500.981,159.729 L501.614,159.108 L502.62,158.054 L503.895,156.571 L504.822,155.342 L505.45,154.397 L506.032,153.404 L506.544,152.379 L506.966,151.339 L507.281,150.308 L507.479,149.302 L507.554,148.337 L507.508,147.42 L507.343,146.555 L507.061,145.74 L506.664,144.97 L506.151,144.242 L505.519,143.552 L504.778,142.906 L504.14,142.443 L503.666,142.139 L503.157,141.842 L502.612,141.553 L502.033,141.272 L501.417,140.998 L500.762,140.733 L500.07,140.475 L499.338,140.226 L498.575,139.987 L498.19,139.874 L498.19,139.874 C498.104,139.849 498.014,139.83 497.919,139.818 L497.919,139.818 L496.904,139.682 L494.841,139.351 L492.784,138.952 L490.731,138.491 L488.683,137.974 L486.639,137.408 L484.599,136.798 L482.565,136.153 L479.511,135.128 L475.434,133.689 L471.349,132.218 L467.245,130.766 L463.12,129.389 L460.005,128.437 L457.908,127.851 L455.797,127.313 L453.668,126.83 L451.522,126.408 L449.355,126.056 L447.164,125.779 L444.947,125.587 L442.703,125.485 L440.426,125.483 L438.117,125.588 L435.769,125.81 L433.383,126.157 L431.006,126.625 L429.882,126.891 L429.882,126.891 C429.868,126.894 429.855,126.897 429.842,126.9 L429.842,126.9 L429.256,127.045 L428.086,127.325 L426.945,127.587 L425.831,127.833 L424.739,128.068 L423.671,128.293 L422.094,128.621 L420.041,129.054 L418.022,129.507 L416.016,130.008 L414,130.588 L411.952,131.281 L409.902,132.098 L408.346,132.811 L407.263,133.359 L406.163,133.959 L405.051,134.613 L403.926,135.322 L402.79,136.087 L401.643,136.909 L400.488,137.788 L399.325,138.723 L398.153,139.717 L396.971,140.769 L395.816,141.844 L395.286,142.353 L395.286,142.353 C395.275,142.363 395.264,142.374 395.253,142.384 L395.253,142.384 L395.24,142.397 L395.191,142.444 L395.078,142.554 L394.86,142.764 L394.575,143.039 L394.226,143.374 L393.82,143.765 L393.362,144.205 L392.857,144.691 L392.309,145.217 L391.725,145.777 L391.109,146.367 L390.467,146.981 L389.466,147.939 L388.085,149.257 L386.691,150.584 L385.323,151.881 L384.34,152.809 L383.719,153.394 L383.129,153.947 L382.578,154.462 L382.07,154.933 L381.616,155.353 L381.224,155.712 L380.908,155.997 L380.696,156.187 L380.647,156.234 L380.894,156.054 L381.675,155.572 L382.997,155.059 L382.985,155.062 L383.898,154.983 L384.362,155.099 L384.75,155.401 L384.933,155.754 L384.985,156.059 L384.977,156.272 L384.955,156.385 L384.942,156.407 L384.949,156.349 L384.981,156.222 L385.039,156.033 L385.124,155.791 L385.233,155.502 L385.367,155.169 L385.524,154.798 L385.702,154.391 L385.895,153.965 L386.224,153.259 L386.73,152.212 L387.297,151.076 L387.913,149.864 L388.573,148.59 L389.266,147.269 L390.356,145.207 L391.86,142.382 L392.989,140.257 L393.732,138.851 L394.457,137.466 L395.157,136.11 L395.827,134.793 L396.46,133.52 L397.044,132.31 L397.446,131.446 L397.703,130.879 L397.945,130.326 L398.173,129.786 L398.386,129.258 L398.582,128.74 L398.763,128.23 L398.924,127.723 L399.064,127.213 L399.178,126.695 L399.254,126.159 L399.273,125.602 L399.198,125.026 L399.033,124.569 L399.003,124.514 L399.003,124.514 C398.955,124.425 398.898,124.344 398.833,124.27 L398.833,124.27 L398.446,123.953 L397.89,123.737 L397.363,123.668 L396.868,123.675 L396.389,123.725 L395.912,123.806 L395.427,123.912 L394.927,124.039 L394.407,124.187 L393.865,124.354 L393.298,124.54 L392.706,124.744 L392.089,124.965 L391.447,125.203 L390.779,125.457 L390.088,125.727 L389.374,126.012 L388.63,126.314 L387.482,126.789 L385.895,127.463 L384.241,128.18 L382.532,128.936 L380.775,129.725 L378.091,130.95 L374.489,132.627 L371.815,133.893 L370.066,134.73 L368.36,135.552 L366.711,136.354 L365.13,137.128 L363.633,137.867 L362.571,138.395 L361.893,138.734 L361.242,139.061 L360.619,139.375 L360.026,139.675 L359.463,139.962 L358.933,140.234 L358.436,140.491 L357.972,140.733 L357.541,140.96 L357.142,141.172 L356.773,141.372 L356.428,141.563 L356.088,141.756 L355.712,141.98 L355.301,142.246 L355.251,142.28 L355.251,142.28 C355.205,142.312 355.16,142.343 355.114,142.376 L355.114,142.376 L351.156,145.195 L343.186,150.828 L331.149,159.27 L323.092,164.907 L323.092,164.907 C323.088,164.91 323.084,164.912 323.079,164.915 L323.079,164.915 L322.564,165.278 L321.534,166.009 L320.478,166.768 L319.394,167.557 L318.286,168.373 L317.154,169.216 L315.999,170.086 L314.822,170.982 L313.624,171.904 L312.407,172.849 L311.171,173.82 L309.909,174.82 L307.991,176.361 L305.397,178.479 L302.754,180.681 L300.074,182.958 L297.366,185.307 L294.64,187.72 L291.904,190.195 L289.171,192.724 L286.448,195.304 L283.745,197.929 L281.074,200.594 L278.442,203.294 L275.86,206.025 L273.338,208.781 L270.887,211.558 L268.515,214.353 L266.234,217.16 L264.054,219.975 L262.005,222.767 L260.553,224.85 L259.615,226.255 L258.711,227.658 L257.845,229.058 L257.015,230.456 L256.226,231.847 L255.478,233.235 L254.774,234.616 L254.116,235.989 L253.505,237.353 L252.943,238.708 L252.433,240.05 L251.976,241.381 L251.586,242.655 L251.427,243.228 C250.864,245.253 252.119,246.233 254.228,245.417 C256.338,244.601 258.503,242.298 259.066,240.274 L259.066,240.274" fill="#000000"/>
    <path d="M224.443,274.145 L224.301,274.13 L223.773,274.118 L223.13,274.173 L222.455,274.302 L221.759,274.501 L221.054,274.761 L220.349,275.074 L219.651,275.431 L218.964,275.824 L218.291,276.246 L217.363,276.884 L216.133,277.821 L214.895,278.854 L213.691,279.937 L212.515,281.06 L211.36,282.22 L210.221,283.41 L208.567,285.212 L206.398,287.686 L204.292,290.185 L202.777,292.03 L201.811,293.222 L200.894,294.365 L200.02,295.459 L199.197,296.493 L198.43,297.459 L197.725,298.342 L197.245,298.941 L196.952,299.305 L196.677,299.643 L196.426,299.949 L196.2,300.221 L196.003,300.455 L195.839,300.645 L195.715,300.784 L195.641,300.863 L195.636,300.864 L195.732,300.763 L195.993,300.515 L196.556,300.056 L197.684,299.361 L198.995,298.92 L200.096,298.977 L200.081,298.972 L201.002,300.112 L200.832,301.502 L200.564,302.149 L200.413,302.434 L200.355,302.535 L200.363,302.531 L200.421,302.454 L200.521,302.326 L200.655,302.157 L200.82,301.956 L201.011,301.728 L201.363,301.323 L201.899,300.734 L202.484,300.127 L203.125,299.497 L203.809,298.867 L204.524,298.252 L205.255,297.671 L205.994,297.136 L206.728,296.66 L207.453,296.251 L207.705,296.129 L207.47,296.246 L207.748,296.115 L208.06,295.998 L208.47,295.865 L209.03,295.699 L210.073,295.421 L211.627,295.042 L213.263,294.641 L214.517,294.305 L215.377,294.045 L216.226,293.754 L217.111,293.396 L218.101,292.908 L219.339,292.129 L220.468,291.221 L220.468,291.221 C220.801,290.922 221.115,290.599 221.403,290.26 L221.403,290.26 L221.48,290.169 L222.656,288.397 L223.194,286.951 L223.327,286.079 L223.337,285.438 L223.299,284.897 L223.205,284.185 L223.053,283.293 L222.929,282.502 L222.888,282.05 L222.893,281.89 L222.91,281.856 L222.887,282.113 L222.686,282.737 L222.478,283.178 L222.712,282.726 L223.061,282.125 L223.362,281.675 L223.667,281.261 L223.987,280.86 L224.337,280.448 L224.98,279.729 L225.967,278.663 L227.139,277.358 L228.193,276.089 L228.966,275.063 L229.679,274.009 L230.352,272.883 L230.718,272.197 L230.718,272.197 C231.85,270.025 231.254,268.438 229.387,268.653 C227.52,268.868 225.089,270.803 223.957,272.975 C223.957,272.975 223.957,272.975 223.957,272.975 L223.926,273.053 L223.751,273.383 L223.551,273.705 L223.356,273.989 L222.87,274.596 L221.873,275.708 L220.62,277.07 L219.577,278.255 L218.815,279.18 L218.045,280.188 L217.288,281.272 L216.564,282.421 L215.934,283.537 L215.699,283.993 L215.699,283.993 C215.622,284.141 215.552,284.289 215.491,284.434 L215.491,284.434 L215.187,285.301 L215.027,286.11 L214.988,286.708 L215.004,287.246 L215.075,287.937 L215.208,288.777 L215.339,289.541 L215.408,290.023 L215.431,290.229 L215.448,290.282 L215.52,290.036 L215.916,289.135 L216.854,287.816 L216.774,287.91 L217.708,286.95 L218.504,286.341 L218.917,286.127 L218.891,286.165 L218.594,286.298 L218.119,286.468 L217.54,286.647 L216.471,286.936 L214.836,287.336 L213.101,287.762 L211.785,288.118 L210.871,288.399 L209.913,288.738 L208.99,289.124 L208.708,289.257 L208.708,289.257 C208.63,289.294 208.551,289.333 208.473,289.374 L208.473,289.374 L207.594,289.843 L206.089,290.74 L204.649,291.711 L203.282,292.731 L201.993,293.779 L200.787,294.836 L199.664,295.888 L198.628,296.919 L197.68,297.917 L196.843,298.846 L196.278,299.503 L195.915,299.939 L195.574,300.361 L195.252,300.771 L194.948,301.174 L194.656,301.577 L194.369,301.996 L194.074,302.459 L193.745,303.042 L193.36,303.919 L193.136,305.466 L194.068,306.686 L194.084,306.692 L194.084,306.692 C194.394,306.796 194.767,306.815 195.184,306.748 L195.184,306.748 L196.554,306.298 L197.834,305.53 L198.595,304.926 L199.099,304.464 L199.482,304.082 L199.808,303.738 L200.104,303.411 L200.392,303.084 L200.677,302.751 L200.967,302.406 L201.264,302.048 L201.57,301.675 L201.887,301.285 L202.217,300.875 L202.73,300.235 L203.451,299.331 L204.214,298.371 L205.017,297.361 L205.856,296.311 L206.725,295.228 L207.611,294.134 L208.972,292.474 L210.832,290.262 L212.704,288.119 L214.081,286.614 L214.942,285.708 L215.759,284.882 L216.518,284.147 L217.201,283.519 L217.792,283.009 L218.321,282.588 L218.662,282.341 L218.808,282.241 L218.917,282.169 L218.991,282.12 L219.032,282.089 L219.046,282.07 L219.041,282.055 L219.028,282.041 L219.017,282.024 L219.088,282.013 L219.233,282.027 C220.875,282.193 223.372,280.563 224.811,278.386 C226.25,276.209 226.085,274.31 224.443,274.145 L224.443,274.145" fill="#000000"/>
  </g>
</svg>
