<?xml version="1.0" encoding="UTF-8"?>
<!DOCTYPE svg PUBLIC "-//W3C//DTD SVG 1.1//EN" "http://www.w3.org/Graphics/SVG/1.1/DTD/svg11.dtd">
<svg version="1.1" xmlns="http://www.w3.org/2000/svg" xmlns:xlink="http://www.w3.org/1999/xlink" x="0" y="0" width="387.795" height="328.35" viewBox="0, 0, 387.795, 328.35">
  <g id="Layer_1" transform="translate(-122, -156.693)">
    <path d="M127.109,481.145 L128.385,481.179 L130.903,481.242 L133.374,481.298 L135.781,481.377 L138.143,481.447 L140.461,481.51 L142.679,481.662 L144.838,481.834 L146.9,482.094 L148.967,482.27 L151.049,482.347 L153.102,482.399 L155.143,482.401 L157.145,482.398 L159.11,482.389 L161.038,482.375 L162.936,482.347 L164.806,482.3 L166.641,482.249 L168.442,482.193 L171.081,482.103 L174.487,481.969 L177.772,481.823 L180.945,481.657 L184.011,481.474 L186.971,481.284 L189.832,481.087 L192.602,480.882 L195.286,480.669 L197.889,480.455 L200.417,480.238 L202.877,480.02 L205.272,479.805 L207.609,479.596 L209.894,479.393 L212.132,479.197 L214.329,479.012 L216.492,478.837 L219.688,478.599 L223.886,478.333 L225.963,478.225 L225.963,478.225 C225.977,478.224 225.991,478.223 226.006,478.222 L226.006,478.222 L227.537,478.109 L230.571,477.885 L233.567,477.665 L236.526,477.449 L239.445,477.236 L242.329,477.027 L245.175,476.821 L247.984,476.619 L250.757,476.42 L253.493,476.224 L256.194,476.032 L258.859,475.843 L261.489,475.657 L264.085,475.474 L266.646,475.294 L269.172,475.117 L272.898,474.858 L277.748,474.525 L282.466,474.204 L287.053,473.896 L291.513,473.6 L295.848,473.317 L300.059,473.046 L304.151,472.788 L308.124,472.541 L311.981,472.305 L315.725,472.081 L319.358,471.868 L322.882,471.666 L326.3,471.476 L329.613,471.297 L332.825,471.129 L335.937,470.971 L338.952,470.824 L341.873,470.687 L344.701,470.56 L347.44,470.444 L350.09,470.337 L352.655,470.24 L355.137,470.153 L357.539,470.075 L359.863,470.007 L362.11,469.947 L364.285,469.896 L366.387,469.854 L368.422,469.82 L370.39,469.794 L372.294,469.777 L374.136,469.768 L375.919,469.767 L377.645,469.774 L379.315,469.788 L380.935,469.81 L382.504,469.838 L384.025,469.874 L385.502,469.917 L386.935,469.967 L388.329,470.023 L389.684,470.086 L391.004,470.155 L392.925,470.27 L395.384,470.443 L397.742,470.639 L400.021,470.856 L402.239,471.092 L404.417,471.347 L405.493,471.48 L405.489,471.48 L406.189,471.568 L407.644,471.759 L409.154,471.967 L410.696,472.194 L412.244,472.44 L413.772,472.707 L415.254,472.995 L416.663,473.304 L417.322,473.464 L417.203,473.429 L417.339,473.476 L417.425,473.552 L417.594,473.699 L417.836,473.913 L418.116,474.152 L418.448,474.384 L418.832,474.562 L419.359,474.657 L420.335,474.504 L422.211,473.432 L423.486,472.116 L423.486,472.116 C423.622,471.938 423.748,471.757 423.861,471.574 L423.861,471.574 L424.061,471.252 L424.669,470.091 L425.156,468.859 L425.49,467.69 L425.719,466.548 L425.869,465.405 L425.956,464.249 L425.989,463.071 L425.975,461.869 L425.92,460.642 L425.828,459.392 L425.703,458.121 L425.548,456.831 L425.367,455.527 L425.056,453.558 L424.583,450.917 L424.066,448.291 L423.534,445.724 L423.141,443.861 L422.888,442.66 L422.646,441.495 L422.42,440.373 L422.211,439.3 L422.024,438.28 L421.861,437.32 L421.727,436.427 L421.624,435.608 L421.555,434.872 L421.536,434.558 L421.537,434.577 L421.445,432.824 L421.254,429.286 L420.954,423.92 L420.549,416.666 L420.161,409.32 L419.818,401.902 L419.546,394.433 L419.372,386.935 L419.32,381.309 L419.33,377.562 L419.379,373.815 L419.471,370.076 L419.607,366.346 L419.793,362.63 L420.03,358.93 L420.322,355.248 L420.673,351.587 L421.085,347.95 L421.561,344.342 L422.105,340.763 L422.72,337.217 L423.408,333.708 L424.173,330.239 L425.016,326.813 L425.942,323.433 L426.951,320.103 L427.48,318.483 L427.473,318.503 L427.549,318.276 L427.72,317.749 L427.91,317.153 L428.114,316.499 L428.328,315.789 L428.552,315.029 L428.781,314.222 L429.014,313.374 L429.362,312.041 L429.816,310.158 L430.239,308.179 L430.61,306.146 L430.907,304.095 L431.069,302.551 L431.142,301.526 L431.183,300.53 L431.189,299.554 L431.158,298.6 L431.086,297.674 L430.969,296.779 L430.804,295.921 L430.586,295.104 L430.311,294.333 L429.974,293.615 L429.569,292.954 L429.092,292.358 L428.536,291.836 L428.195,291.581 L428.195,291.581 C428.167,291.56 428.138,291.541 428.108,291.524 L428.108,291.524 L428.012,291.468 L427.624,291.295 L427.159,291.152 L426.653,291.038 L426.094,290.941 L425.479,290.858 L424.804,290.784 L424.07,290.72 L423.276,290.663 L422.425,290.613 L421.516,290.57 L420.553,290.534 L419.538,290.504 L418.472,290.48 L417.358,290.461 L416.198,290.448 L414.995,290.441 L413.752,290.438 L412.469,290.44 L411.151,290.447 L409.112,290.465 L406.292,290.504 L403.371,290.557 L400.373,290.624 L395.776,290.746 L389.566,290.939 L384.935,291.102 L381.901,291.215 L378.934,291.33 L376.056,291.446 L373.285,291.561 L371.289,291.646 L370.004,291.702 L368.757,291.756 L367.552,291.809 L366.391,291.86 L365.276,291.91 L364.21,291.958 L363.196,292.004 L362.236,292.047 L361.333,292.088 L360.49,292.126 L359.709,292.162 L358.993,292.194 L358.343,292.223 L357.765,292.248 L357.26,292.27 L356.83,292.288 L356.481,292.302 L356.339,292.307 L356.344,292.307 L352.479,292.437 L344.752,292.665 L337.02,292.853 L329.284,293.005 L317.668,293.171 L302.172,293.297 L286.67,293.341 L271.169,293.329 L255.673,293.291 L240.19,293.255 L232.453,293.248 L232.462,293.248 L231.365,293.242 L229.204,293.196 L227.059,293.109 L224.915,292.982 L221.698,292.725 L217.42,292.272 L213.157,291.714 L208.897,291.073 L202.502,290.007 L193.969,288.515 L187.541,287.443 L183.229,286.794 L178.9,286.226 L174.544,285.764 L171.25,285.5 L169.039,285.369 L166.826,285.279 L164.603,285.232 L163.476,285.226 L163.476,285.226 C163.472,285.226 163.468,285.226 163.464,285.226 L163.464,285.226 L146.967,285.223 L130.469,285.219 L130.469,285.219 C129.019,285.219 126.963,286.688 125.876,288.5 C125.452,289.205 125.222,289.892 125.219,290.458 L125.219,290.458 L124.256,482.435 L124.256,482.435 C124.248,483.873 125.694,484.173 127.486,483.104 C129.278,482.035 130.737,480.003 130.744,478.565 C130.744,478.565 130.744,478.565 130.744,478.565 L131.781,286.542 L126.531,291.781 L143.033,291.777 L159.536,291.774 L159.524,291.774 L160.587,291.779 L162.734,291.823 L164.878,291.909 L167.011,292.033 L170.215,292.286 L174.489,292.736 L178.757,293.291 L183.02,293.93 L189.425,294.993 L197.988,296.485 L204.436,297.554 L208.762,298.201 L213.111,298.766 L217.482,299.225 L220.777,299.485 L222.991,299.614 L225.215,299.702 L227.438,299.747 L228.538,299.752 L228.538,299.752 C228.541,299.752 228.544,299.752 228.547,299.752 L228.547,299.752 L236.281,299.755 L251.772,299.777 L267.284,299.8 L282.809,299.797 L298.341,299.739 L313.873,299.598 L325.516,299.421 L333.278,299.261 L341.035,299.065 L348.786,298.828 L352.656,298.693 L352.656,298.693 C352.658,298.693 352.659,298.693 352.661,298.693 L352.661,298.693 L352.815,298.687 L353.176,298.673 L353.611,298.654 L354.122,298.632 L354.704,298.605 L355.354,298.575 L356.072,298.542 L356.855,298.506 L357.698,298.466 L358.602,298.424 L359.561,298.38 L360.575,298.333 L361.641,298.283 L362.755,298.232 L363.916,298.179 L365.12,298.125 L366.365,298.069 L367.65,298.012 L369.642,297.925 L372.409,297.806 L375.285,297.687 L378.246,297.568 L381.272,297.451 L385.889,297.283 L392.085,297.082 L396.667,296.955 L399.652,296.885 L402.555,296.828 L405.359,296.786 L407.382,296.765 L408.687,296.757 L409.955,296.753 L411.183,296.754 L412.368,296.76 L413.508,296.771 L414.599,296.788 L415.639,296.81 L416.625,296.838 L417.553,296.871 L418.421,296.911 L419.226,296.956 L419.964,297.008 L420.63,297.065 L421.22,297.127 L421.729,297.194 L422.149,297.263 L422.47,297.329 L422.675,297.381 L422.795,297.42 L422.892,297.476 L422.805,297.419 L422.968,297.529 L423.329,297.844 L423.653,298.225 L423.94,298.669 L424.189,299.176 L424.4,299.74 L424.573,300.36 L424.709,301.031 L424.808,301.749 L424.872,302.509 L424.902,303.307 L424.9,304.138 L424.868,304.997 L424.81,305.864 L424.674,307.209 L424.412,309.057 L424.079,310.911 L423.693,312.732 L423.273,314.491 L422.949,315.741 L422.734,316.527 L422.523,317.274 L422.317,317.978 L422.12,318.634 L421.934,319.236 L421.761,319.78 L421.603,320.268 L421.527,320.497 L421.527,320.497 C421.525,320.504 421.522,320.51 421.52,320.517 L421.52,320.517 L420.946,322.286 L419.888,325.8 L418.924,329.346 L418.05,332.921 L417.261,336.525 L416.555,340.155 L415.927,343.811 L415.373,347.489 L414.89,351.188 L414.474,354.906 L414.122,358.639 L413.83,362.387 L413.595,366.148 L413.413,369.917 L413.281,373.694 L413.196,377.476 L413.153,381.26 L413.15,385.049 L413.211,390.724 L413.4,398.264 L413.687,405.76 L414.043,413.193 L414.444,420.542 L414.862,427.788 L415.171,433.143 L415.368,436.67 L415.463,438.423 L415.463,438.423 C415.463,438.429 415.464,438.435 415.464,438.442 L415.464,438.442 L415.492,438.859 L415.573,439.695 L415.688,440.587 L415.832,441.533 L416.004,442.532 L416.198,443.58 L416.413,444.673 L416.645,445.807 L416.89,446.977 L417.145,448.18 L417.539,450.031 L418.07,452.566 L418.582,455.141 L419.05,457.719 L419.356,459.629 L419.532,460.875 L419.681,462.096 L419.801,463.285 L419.89,464.435 L419.943,465.539 L419.96,466.588 L419.938,467.572 L419.878,468.478 L419.783,469.288 L419.661,469.978 L419.533,470.513 L419.439,470.845 L419.341,471.1 L419.139,471.426 L419.514,470.884 L420.709,469.673 L422.409,468.742 L423.192,468.648 L423.509,468.73 L423.549,468.774 L423.38,468.666 L423.125,468.451 L422.808,468.175 L422.411,467.873 L421.935,467.619 L421.797,467.571 L421.797,467.571 C421.759,467.558 421.719,467.546 421.678,467.536 L421.678,467.536 L420.959,467.364 L419.482,467.045 L417.945,466.751 L416.371,466.48 L414.787,466.232 L413.215,466.004 L411.681,465.797 L410.212,465.608 L409.511,465.52 L409.511,465.52 C409.509,465.52 409.508,465.52 409.507,465.52 L409.507,465.52 L408.407,465.386 L406.193,465.132 L403.935,464.897 L401.614,464.682 L399.213,464.488 L396.714,464.318 L394.764,464.205 L393.421,464.138 L392.043,464.078 L390.627,464.023 L389.172,463.976 L387.674,463.936 L386.131,463.903 L384.541,463.877 L382.902,463.859 L381.211,463.848 L379.466,463.845 L377.665,463.85 L375.805,463.863 L373.884,463.884 L371.899,463.914 L369.848,463.953 L367.729,464 L365.539,464.056 L363.276,464.122 L360.938,464.197 L358.521,464.281 L356.025,464.375 L353.446,464.479 L350.782,464.593 L348.031,464.717 L345.19,464.851 L342.258,464.995 L339.231,465.151 L336.107,465.317 L332.884,465.494 L329.559,465.682 L326.13,465.881 L322.595,466.092 L318.952,466.314 L315.197,466.549 L311.329,466.795 L307.344,467.054 L303.242,467.326 L299.019,467.611 L294.672,467.908 L290.201,468.218 L285.601,468.54 L280.872,468.877 L276.011,469.226 L272.277,469.497 L269.744,469.682 L267.177,469.87 L264.576,470.062 L261.939,470.258 L259.266,470.458 L256.558,470.662 L253.813,470.869 L251.033,471.08 L248.216,471.295 L245.362,471.513 L242.471,471.735 L239.543,471.96 L236.577,472.189 L233.573,472.422 L230.53,472.658 L228.994,472.778 L229.037,472.775 L226.908,472.896 L222.651,473.191 L219.419,473.453 L217.234,473.643 L215.018,473.844 L212.765,474.054 L210.469,474.272 L208.125,474.497 L205.725,474.727 L203.264,474.96 L200.734,475.198 L198.127,475.44 L195.441,475.681 L192.665,475.924 L189.794,476.168 L186.823,476.407 L183.748,476.64 L180.555,476.872 L177.241,477.103 L173.8,477.325 L171.134,477.483 L169.315,477.585 L167.462,477.684 L165.573,477.779 L163.639,477.885 L161.663,477.995 L159.65,478.103 L157.597,478.206 L155.505,478.306 L153.346,478.444 L151.135,478.598 L148.828,478.839 L146.43,479.154 L144.045,479.369 L141.631,479.552 L139.23,479.633 L136.783,479.709 L134.289,479.78 L131.765,479.815 L129.195,479.843 L127.891,479.855 C127.607,479.853 127.202,480.139 126.987,480.495 C126.771,480.852 126.826,481.142 127.109,481.145 L127.109,481.145" fill="#000000"/>
    <path d="M129.073,287.002 L129.05,286.942 L128.977,286.837 L128.764,286.758 L127.958,287.242 L127.662,287.791 L127.572,288.201 L127.539,288.584 L127.546,288.923 L127.589,289.138 L127.673,289.282 L127.981,289.379 L128.872,288.841 L129.146,288.463 L129.146,288.463 C129.148,288.458 129.151,288.454 129.153,288.449 L129.153,288.449 L129.184,288.401 L129.195,288.41 L129.22,288.404 L129.288,288.35 L129.392,288.257 L129.534,288.136 L129.708,287.991 L129.913,287.825 L130.146,287.64 L130.407,287.439 L130.85,287.099 L131.522,286.595 L132.284,286.037 L133.131,285.42 L134.063,284.754 L135.075,284.036 L136.16,283.265 L137.319,282.451 L138.547,281.595 L139.839,280.694 L141.192,279.75 L142.604,278.772 L144.072,277.76 L145.59,276.708 L147.157,275.626 L148.77,274.518 L150.424,273.38 L152.117,272.215 L153.845,271.03 L155.605,269.826 L157.393,268.599 L160.124,266.731 L163.834,264.194 L167.6,261.624 L171.397,259.041 L175.197,256.452 L178.975,253.884 L182.706,251.354 L185.456,249.491 L187.261,248.268 L189.04,247.064 L190.788,245.882 L192.504,244.722 L194.183,243.588 L195.822,242.482 L197.418,241.406 L198.968,240.362 L200.469,239.352 L201.917,238.378 L203.309,237.442 L204.641,236.547 L205.912,235.694 L207.116,234.887 L208.251,234.127 L209.314,233.416 L210.301,232.756 L211.21,232.149 L212.036,231.597 L212.777,231.103 L213.274,230.772 L213.578,230.57 L213.858,230.383 L214.115,230.212 L214.347,230.057 L214.556,229.919 L214.65,229.856 L214.65,229.856 C215.648,229.191 216.39,228.044 216.307,227.295 C216.225,226.547 215.348,226.479 214.35,227.144 C214.35,227.144 214.35,227.144 214.35,227.144 L214.255,227.208 L214.046,227.347 L213.813,227.503 L213.556,227.674 L213.275,227.862 L212.971,228.065 L212.473,228.399 L211.731,228.895 L210.903,229.448 L209.993,230.055 L209.005,230.716 L207.94,231.428 L206.803,232.189 L205.597,232.995 L204.325,233.845 L202.99,234.738 L201.596,235.671 L200.145,236.642 L198.642,237.65 L197.089,238.691 L195.49,239.763 L193.847,240.866 L192.165,241.996 L190.447,243.152 L188.694,244.331 L186.912,245.531 L185.103,246.751 L182.346,248.615 L178.609,251.149 L174.822,253.722 L171.013,256.317 L167.209,258.928 L163.435,261.526 L159.718,264.101 L156.983,266.008 L155.191,267.261 L153.427,268.504 L151.696,269.728 L149.999,270.93 L148.342,272.113 L146.726,273.275 L145.155,274.409 L143.632,275.513 L142.162,276.594 L140.745,277.641 L139.387,278.652 L138.089,279.628 L136.857,280.571 L135.692,281.469 L134.595,282.323 L133.574,283.137 L132.629,283.905 L131.761,284.622 L130.975,285.291 L130.276,285.906 L129.808,286.33 L129.52,286.601 L129.253,286.859 L129.005,287.105 L128.775,287.342 L128.562,287.57 L128.363,287.796 L128.179,288.028 L128.004,288.274 L127.869,288.502 L127.847,288.551 L127.854,288.537 L128.067,288.266 L128.85,287.848 L129.063,287.949 L129.069,288.001 L129.024,287.936 L128.969,287.726 L128.935,287.49 L128.908,287.351 L128.701,287.619 L127.973,288.011 L127.853,287.937 L127.89,287.95 L127.927,287.998 C127.927,287.998 127.927,287.998 127.927,287.998 C128.033,288.187 128.376,288.118 128.693,287.843 C129.009,287.568 129.179,287.191 129.073,287.002 L129.073,287.002" fill="#000000"/>
    <path d="M428.199,297.026 L428.691,296.713 L429.731,296.032 L430.811,295.263 L431.92,294.423 L433.061,293.535 L434.228,292.595 L435.423,291.619 L436.64,290.604 L437.876,289.556 L439.132,288.48 L441.04,286.824 L443.623,284.549 L446.23,282.225 L448.837,279.882 L451.424,277.556 L453.967,275.273 L455.827,273.605 L457.039,272.524 L458.229,271.469 L459.392,270.447 L460.525,269.459 L461.623,268.512 L462.685,267.609 L463.705,266.754 L464.682,265.95 L465.61,265.203 L466.041,264.862 L466.041,264.862 C466.102,264.813 466.163,264.762 466.223,264.709 L466.223,264.709 L467.006,264.03 L468.544,262.689 L470.038,261.379 L471.488,260.102 L472.892,258.86 L474.254,257.651 L475.573,256.474 L476.85,255.33 L478.086,254.217 L479.282,253.136 L480.438,252.086 L481.554,251.067 L482.633,250.077 L483.674,249.117 L484.676,248.186 L485.643,247.284 L486.575,246.411 L487.472,245.565 L488.335,244.748 L489.165,243.959 L489.962,243.197 L490.728,242.461 L491.462,241.752 L492.166,241.07 L492.84,240.413 L493.486,239.781 L494.103,239.175 L494.692,238.593 L495.255,238.036 L495.791,237.502 L496.301,236.993 L496.786,236.507 L497.247,236.045 L497.684,235.605 L498.097,235.188 L498.487,234.795 L498.855,234.424 L499.201,234.075 L499.68,233.593 L500.248,233.026 L500.73,232.552 L501.127,232.172 L501.434,231.892 L501.639,231.719 L501.726,231.66 L501.673,231.716 L501.469,231.86 L501.15,232.029 L500.818,232.146 L500.579,232.186 L500.472,232.192 L500.42,232.182 L500.359,232.152 L500.487,232.222 L500.661,232.345 L500.813,232.485 L500.967,232.656 L501.118,232.859 L501.267,233.093 L501.41,233.359 L501.547,233.655 L501.743,234.165 L501.972,234.936 L502.162,235.796 L502.318,236.748 L502.439,237.783 L502.527,238.888 L502.583,240.057 L502.609,241.278 L502.608,242.542 L502.581,243.84 L502.499,245.838 L502.324,248.53 L502.094,251.187 L501.899,253.115 L501.763,254.354 L501.626,255.55 L501.489,256.691 L501.355,257.768 L501.227,258.773 L501.107,259.696 L500.998,260.531 L500.903,261.27 L500.823,261.906 L500.762,262.434 L500.729,262.767 L500.713,262.969 L500.706,263.076 L500.711,263.011 L500.555,264.73 L500.251,268.075 L499.96,271.295 L499.68,274.392 L499.411,277.37 L499.154,280.231 L498.909,282.978 L498.675,285.612 L498.451,288.138 L498.238,290.558 L498.034,292.875 L497.839,295.091 L497.654,297.21 L497.477,299.233 L497.31,301.165 L497.15,303.006 L496.999,304.761 L496.856,306.431 L496.72,308.02 L496.591,309.53 L496.47,310.964 L496.357,312.324 L496.251,313.613 L496.151,314.834 L496.057,315.989 L495.968,317.083 L495.886,318.116 L495.808,319.092 L495.736,320.014 L495.668,320.884 L495.605,321.706 L495.547,322.48 L495.492,323.211 L495.441,323.901 L495.372,324.865 L495.29,326.031 L495.219,327.083 L495.157,328.041 L495.102,328.926 L495.028,330.162 L494.935,331.754 L494.86,332.998 L494.804,333.891 L494.742,334.863 L494.67,335.934 L494.609,336.816 L494.564,337.446 L494.516,338.114 L494.465,338.822 L494.437,339.191 L494.437,339.191 C494.437,339.193 494.437,339.195 494.437,339.197 L494.437,339.197 L494.429,339.304 L494.411,339.587 L494.389,339.938 L494.365,340.353 L494.338,340.834 L494.308,341.377 L494.276,341.981 L494.241,342.644 L494.203,343.363 L494.162,344.137 L494.119,344.963 L494.074,345.839 L494.026,346.761 L493.976,347.729 L493.924,348.739 L493.87,349.79 L493.785,351.436 L493.665,353.751 L493.538,356.184 L493.407,358.715 L493.27,361.327 L493.128,364 L492.907,368.085 L492.6,373.571 L492.363,377.629 L492.203,380.274 L492.042,382.847 L491.88,385.33 L491.719,387.703 L491.559,389.948 L491.44,391.533 L491.361,392.539 L491.283,393.503 L491.206,394.421 L491.129,395.29 L491.054,396.108 L490.979,396.873 L490.906,397.58 L490.834,398.228 L490.764,398.811 L490.696,399.327 L490.631,399.769 L490.57,400.13 L490.517,400.395 L490.479,400.537 L490.486,400.482 L490.613,400.138 L492.29,397.861 L491.062,398.996 L488.64,401.245 L486.275,403.452 L483.968,405.616 L481.72,407.734 L479.53,409.809 L477.396,411.842 L475.318,413.832 L473.294,415.78 L471.324,417.686 L469.407,419.551 L467.542,421.374 L465.728,423.156 L463.964,424.899 L462.249,426.602 L460.583,428.265 L458.963,429.89 L457.391,431.476 L455.864,433.024 L454.382,434.535 L452.944,436.008 L451.549,437.445 L450.196,438.845 L448.884,440.209 L447.613,441.538 L446.381,442.831 L445.188,444.09 L444.033,445.315 L442.915,446.505 L441.832,447.662 L440.785,448.786 L439.772,449.877 L438.793,450.934 L437.847,451.96 L436.933,452.954 L436.049,453.917 L435.196,454.848 L434.373,455.748 L433.578,456.617 L432.811,457.456 L432.072,458.265 L431.359,459.044 L430.672,459.793 L430.011,460.513 L429.373,461.203 L428.76,461.864 L428.17,462.497 L427.603,463.101 L427.058,463.675 L426.535,464.221 L426.033,464.738 L425.553,465.227 L424.857,465.92 L423.997,466.748 L423.227,467.453 L422.531,468.051 L421.904,468.549 L421.339,468.958 L421.15,469.081 L421.15,469.081 C419.335,470.325 418.02,472.416 418.214,473.752 C418.407,475.088 420.035,475.163 421.85,473.919 C421.85,473.919 421.85,473.919 421.85,473.919 L422.472,473.487 L423.554,472.677 L424.62,471.811 L425.679,470.887 L426.738,469.909 L427.798,468.884 L428.61,468.071 L429.171,467.5 L429.741,466.911 L430.322,466.303 L430.917,465.674 L431.524,465.027 L432.147,464.358 L432.787,463.666 L433.445,462.952 L434.122,462.215 L434.819,461.453 L435.536,460.667 L436.277,459.855 L437.041,459.018 L437.83,458.152 L438.645,457.26 L439.486,456.34 L440.355,455.391 L441.253,454.413 L442.182,453.404 L443.141,452.365 L444.132,451.296 L445.155,450.196 L446.213,449.063 L447.306,447.897 L448.435,446.698 L449.6,445.465 L450.803,444.199 L452.045,442.898 L453.327,441.561 L454.649,440.189 L456.013,438.78 L457.42,437.336 L458.87,435.853 L460.364,434.334 L461.904,432.776 L463.49,431.18 L465.124,429.544 L466.806,427.869 L468.537,426.155 L470.318,424.399 L472.151,422.602 L474.034,420.765 L475.971,418.886 L477.962,416.964 L480.008,414.999 L482.109,412.992 L484.266,410.94 L486.482,408.842 L488.754,406.702 L491.086,404.515 L493.483,402.28 L494.71,401.139 L494.71,401.139 C495.448,400.455 496.046,399.643 496.387,398.862 L496.387,398.862 L496.577,398.372 L496.713,397.914 L496.808,397.507 L496.889,397.081 L496.965,396.612 L497.039,396.094 L497.112,395.521 L497.185,394.893 L497.259,394.211 L497.332,393.475 L497.407,392.688 L497.481,391.85 L497.556,390.965 L497.631,390.034 L497.707,389.058 L497.783,388.04 L497.898,386.44 L498.051,384.184 L498.204,381.803 L498.358,379.314 L498.51,376.736 L498.661,374.088 L498.884,370.026 L499.173,364.544 L499.38,360.462 L499.512,357.791 L499.64,355.182 L499.762,352.654 L499.875,350.227 L499.983,347.919 L500.059,346.277 L500.107,345.23 L500.154,344.223 L500.199,343.258 L500.241,342.339 L500.282,341.467 L500.32,340.645 L500.356,339.875 L500.39,339.16 L500.421,338.503 L500.45,337.905 L500.477,337.369 L500.501,336.899 L500.522,336.496 L500.541,336.166 L500.556,335.91 L500.563,335.803 L500.563,335.809 L500.588,335.437 L500.636,334.726 L500.681,334.054 L500.723,333.42 L500.779,332.531 L500.846,331.452 L500.904,330.473 L500.955,329.573 L501.023,328.327 L501.108,326.746 L501.175,325.524 L501.224,324.652 L501.281,323.709 L501.345,322.672 L501.419,321.518 L501.483,320.564 L501.53,319.88 L501.58,319.156 L501.634,318.388 L501.693,317.574 L501.755,316.71 L501.822,315.794 L501.894,314.824 L501.971,313.797 L502.053,312.71 L502.141,311.56 L502.234,310.346 L502.333,309.063 L502.439,307.709 L502.549,306.283 L502.666,304.781 L502.79,303.2 L502.921,301.538 L503.06,299.792 L503.205,297.959 L503.359,296.037 L503.52,294.023 L503.69,291.914 L503.868,289.708 L504.055,287.4 L504.251,284.991 L504.456,282.477 L504.67,279.853 L504.893,277.12 L505.124,274.274 L505.365,271.311 L505.616,268.23 L505.877,265.027 L506.149,261.701 L506.289,259.989 L506.289,259.989 C506.291,259.967 506.293,259.946 506.294,259.924 L506.294,259.924 L506.295,259.9 L506.302,259.786 L506.325,259.522 L506.377,259.036 L506.449,258.422 L506.536,257.692 L506.638,256.858 L506.75,255.929 L506.87,254.915 L506.996,253.825 L507.125,252.668 L507.254,251.452 L507.381,250.183 L507.559,248.205 L507.763,245.48 L507.909,242.716 L507.969,240.657 L507.98,239.301 L507.965,237.97 L507.921,236.673 L507.843,235.419 L507.731,234.214 L507.578,233.067 L507.383,231.984 L507.139,230.974 L506.845,230.055 L506.588,229.428 L506.392,229.032 L506.178,228.66 L505.943,228.314 L505.685,227.997 L505.401,227.709 L505.089,227.454 L504.771,227.249 L504.641,227.179 L504.641,227.179 C504.621,227.169 504.601,227.159 504.58,227.149 L504.58,227.149 L504.349,227.059 L503.882,226.963 L503.269,226.984 L502.536,227.17 L501.78,227.505 L501.089,227.919 L500.488,228.352 L499.954,228.788 L499.453,229.232 L498.958,229.697 L498.444,230.198 L497.895,230.748 L497.3,231.354 L496.814,231.853 L496.468,232.208 L496.105,232.582 L495.723,232.975 L495.322,233.387 L494.9,233.82 L494.456,234.275 L493.99,234.751 L493.5,235.249 L492.987,235.77 L492.448,236.315 L491.883,236.883 L491.291,237.476 L490.672,238.094 L490.025,238.737 L489.348,239.406 L488.641,240.101 L487.904,240.823 L487.135,241.573 L486.334,242.349 L485.5,243.155 L484.633,243.988 L483.73,244.851 L482.792,245.743 L481.818,246.666 L480.809,247.619 L479.762,248.604 L478.677,249.62 L477.553,250.668 L476.388,251.748 L475.184,252.86 L473.938,254.005 L472.65,255.184 L471.32,256.397 L469.945,257.644 L468.527,258.925 L467.064,260.241 L465.553,261.595 L464.777,262.291 L464.959,262.138 L464.457,262.549 L463.454,263.387 L462.417,264.271 L461.348,265.199 L460.249,266.168 L459.123,267.174 L457.97,268.213 L456.794,269.284 L455.596,270.383 L454.378,271.507 L452.523,273.23 L450.014,275.584 L447.477,277.974 L444.933,280.369 L442.404,282.747 L439.911,285.08 L438.079,286.784 L436.883,287.889 L435.708,288.965 L434.559,290.013 L433.439,291.028 L432.348,292.003 L431.293,292.944 L430.274,293.842 L429.298,294.711 L428.362,295.562 L427.897,295.974 C427.897,295.974 427.897,295.974 427.897,295.974 C427.471,296.296 427.193,296.793 427.277,297.084 C427.36,297.374 427.773,297.349 428.199,297.026 L428.199,297.026" fill="#000000"/>
    <path d="M260.164,247.134 L259.588,247.654 L258.463,248.605 L257.344,249.497 L256.212,250.347 L255.074,251.15 L253.936,251.909 L252.808,252.624 L251.698,253.301 L250.615,253.949 L249.567,254.56 L248.562,255.135 L247.609,255.675 L246.714,256.185 L245.883,256.667 L245.118,257.129 L244.417,257.583 L243.904,257.945 L243.549,258.221 L243.212,258.509 L242.864,258.844 L242.504,259.25 L242.154,259.742 L241.869,260.294 L241.719,260.829 L241.715,261.266 L241.817,261.592 L241.983,261.832 L242.19,262.017 L242.433,262.166 L242.708,262.291 L243.02,262.4 L243.369,262.498 L243.759,262.587 L244.192,262.669 L244.669,262.744 L245.195,262.813 L245.769,262.877 L246.394,262.936 L247.071,262.992 L247.802,263.043 L248.589,263.09 L249.432,263.133 L250.334,263.174 L251.295,263.211 L252.317,263.245 L253.401,263.277 L254.548,263.306 L255.76,263.332 L256.392,263.345 L256.392,263.345 C256.394,263.345 256.396,263.345 256.397,263.345 L256.397,263.345 L258.197,263.366 L261.808,263.375 L267.221,263.318 L274.434,263.139 L281.649,262.872 L288.852,262.582 L296.05,262.306 L303.241,262.094 L308.625,262.01 L312.21,262 L314,262.008 L313.996,262.008 L332.412,262.147 L350.842,262.263 L350.829,262.263 L351.08,262.267 L351.59,262.285 L352.152,262.317 L352.772,262.363 L353.442,262.42 L354.158,262.487 L355.309,262.603 L356.958,262.778 L358.713,262.964 L360.541,263.148 L362.416,263.318 L364.308,263.462 L366.189,263.566 L368.034,263.618 L369.388,263.614 L370.275,263.587 L371.133,263.539 L371.97,263.466 L372.787,263.367 L373.586,263.236 L374.372,263.067 L375.154,262.852 L375.951,262.574 L376.791,262.202 L377.364,261.897 L377.364,261.897 C377.43,261.86 377.497,261.82 377.563,261.779 L377.563,261.779 L377.916,261.563 L378.797,260.984 L380.097,260.035 L381.743,258.698 L383.298,257.332 L384.73,256.03 L386.058,254.836 L387.289,253.79 L388.113,253.152 L388.6,252.808 L388.801,252.676 L388.559,252.833 L388.806,252.682 L388.984,252.616 L389.345,252.484 L389.916,252.287 L391.005,251.947 L392.182,251.602 L392.987,251.366 L393.783,251.122 L394.557,250.863 L395.319,250.572 L396.142,250.186 L397.079,249.617 L398.157,248.724 L399.261,247.379 L399.944,245.856 L399.985,244.849 L399.761,244.306 L399.47,243.982 L399.149,243.753 L398.952,243.642 L398.952,243.642 C398.937,243.635 398.922,243.627 398.907,243.62 L398.907,243.62 L398.654,243.498 L398.04,243.246 L397.351,243.015 L396.61,242.813 L395.82,242.637 L394.98,242.485 L394.092,242.355 L393.158,242.246 L392.179,242.158 L391.156,242.088 L390.09,242.037 L388.984,242.002 L387.839,241.984 L386.656,241.981 L385.438,241.993 L384.186,242.018 L382.902,242.056 L381.587,242.107 L380.242,242.17 L378.871,242.244 L376.771,242.373 L373.89,242.578 L370.931,242.815 L367.91,243.078 L364.842,243.365 L361.743,243.668 L357.068,244.141 L352.405,244.619 L349.33,244.933 L346.298,245.236 L343.326,245.523 L340.428,245.791 L337.619,246.032 L335.584,246.193 L334.266,246.289 L332.975,246.375 L331.719,246.451 L330.497,246.517 L329.314,246.571 L328.169,246.613 L327.067,246.642 L326.008,246.658 L324.996,246.66 L324.031,246.647 L323.117,246.62 L322.256,246.577 L321.451,246.518 L320.703,246.444 L320.016,246.353 L319.711,246.304 L319.722,246.306 L319.556,246.278 L319.17,246.216 L318.728,246.148 L318.234,246.075 L317.69,245.996 L317.098,245.912 L316.458,245.823 L315.773,245.729 L315.044,245.631 L314.274,245.529 L313.464,245.424 L312.617,245.314 L311.279,245.144 L309.381,244.908 L307.366,244.664 L305.249,244.412 L303.047,244.157 L300.775,243.901 L297.271,243.518 L292.496,243.025 L288.905,242.679 L286.535,242.464 L284.205,242.263 L281.929,242.08 L279.722,241.917 L277.599,241.776 L275.576,241.659 L274.129,241.589 L273.202,241.551 L272.309,241.521 L271.452,241.499 L270.629,241.485 L269.845,241.479 L269.098,241.482 L268.391,241.495 L267.724,241.517 L267.097,241.55 L266.508,241.594 L265.954,241.652 L265.428,241.725 L264.916,241.82 L264.388,241.952 L263.772,242.161 L262.893,242.581 L261.385,243.688 L259.997,245.326 L261.04,244.04 L259.04,246.04 L259.04,246.04 C257.427,247.653 256.774,249.614 257.58,250.42 C258.386,251.226 260.347,250.573 261.96,248.96 C261.96,248.96 261.96,248.96 261.96,248.96 L263.96,246.96 L263.96,246.96 C264.36,246.559 264.716,246.121 265.003,245.674 L265.003,245.674 L263.696,247.186 L262.449,248.057 L261.959,248.265 L261.854,248.285 L261.956,248.251 L262.19,248.202 L262.521,248.153 L262.932,248.108 L263.412,248.071 L263.954,248.042 L264.552,248.021 L265.201,248.009 L265.899,248.005 L266.644,248.01 L267.43,248.023 L268.258,248.044 L269.123,248.072 L270.023,248.108 L271.435,248.174 L273.428,248.287 L275.525,248.423 L277.711,248.582 L279.968,248.76 L282.283,248.956 L284.636,249.167 L288.207,249.506 L292.968,249.988 L296.465,250.361 L298.732,250.611 L300.928,250.859 L303.039,251.104 L305.048,251.342 L306.941,251.573 L308.274,251.738 L309.118,251.845 L309.923,251.948 L310.688,252.047 L311.411,252.142 L312.089,252.233 L312.721,252.319 L313.305,252.4 L313.837,252.476 L314.317,252.546 L314.741,252.609 L315.11,252.667 L315.278,252.694 L315.278,252.694 C315.282,252.695 315.286,252.695 315.289,252.696 L315.289,252.696 L315.683,252.756 L316.479,252.856 L317.323,252.936 L318.215,252.996 L319.153,253.038 L320.137,253.063 L321.163,253.072 L322.233,253.066 L323.342,253.045 L324.492,253.01 L325.678,252.962 L326.9,252.902 L328.156,252.83 L329.444,252.747 L330.763,252.654 L332.113,252.55 L334.187,252.379 L337.032,252.124 L339.96,251.843 L342.956,251.539 L346.005,251.219 L349.092,250.889 L353.76,250.388 L358.431,249.893 L361.519,249.576 L364.571,249.275 L367.568,248.995 L370.498,248.742 L373.346,248.521 L375.42,248.38 L376.765,248.299 L378.081,248.229 L379.364,248.171 L380.615,248.125 L381.828,248.093 L383.003,248.074 L384.138,248.069 L385.232,248.079 L386.28,248.104 L387.282,248.145 L388.234,248.202 L389.137,248.275 L389.985,248.365 L390.778,248.472 L391.512,248.597 L392.186,248.737 L392.795,248.894 L393.34,249.066 L393.837,249.261 L394.093,249.38 L394.048,249.358 L394.085,249.372 L394.141,249.389 L394.108,249.308 L394.03,249.005 L394.111,248.236 L394.733,246.949 L395.684,245.838 L396.521,245.177 L396.944,244.954 L396.832,245.029 L396.417,245.198 L395.82,245.404 L395.101,245.63 L394.293,245.873 L392.979,246.269 L391.632,246.706 L390.69,247.052 L389.685,247.485 L388.691,248.012 L388.441,248.167 L388.441,248.167 C388.36,248.217 388.279,248.269 388.199,248.324 L388.199,248.324 L387.684,248.68 L386.754,249.365 L385.483,250.379 L383.968,251.688 L382.584,252.946 L381.319,254.111 L380.17,255.144 L379.087,256.055 L378.312,256.644 L377.791,257 L377.436,257.221 L377.636,257.103 L377.751,257.056 L377.587,257.152 L377.27,257.279 L376.837,257.411 L376.313,257.534 L375.715,257.641 L375.053,257.731 L374.34,257.801 L373.582,257.853 L372.795,257.886 L371.545,257.904 L369.783,257.873 L367.957,257.792 L366.1,257.671 L364.243,257.522 L362.416,257.357 L360.649,257.19 L358.97,257.034 L357.787,256.93 L357.038,256.87 L356.324,256.819 L355.649,256.778 L355.012,256.751 L354.427,256.738 L354.171,256.737 L354.171,256.737 C354.167,256.737 354.163,256.737 354.158,256.737 L354.158,256.737 L335.588,256.853 L317.004,256.992 L317.004,256.992 C317.003,256.992 317.002,256.992 317,256.992 L317,256.992 L315.165,257.012 L311.499,257.089 L306.011,257.275 L298.712,257.622 L291.421,258.045 L284.134,258.501 L276.853,258.933 L269.561,259.312 L264.087,259.526 L260.436,259.623 L258.603,259.655 L258.608,259.655 L257.967,259.667 L256.734,259.687 L255.568,259.702 L254.469,259.712 L253.434,259.717 L252.463,259.717 L251.555,259.711 L250.708,259.701 L249.922,259.684 L249.196,259.662 L248.527,259.634 L247.917,259.601 L247.363,259.562 L246.866,259.517 L246.423,259.467 L246.036,259.412 L245.704,259.352 L245.426,259.29 L245.204,259.226 L245.036,259.166 L244.923,259.116 L244.86,259.088 L244.839,259.103 L244.836,259.189 L244.804,259.373 L244.701,259.638 L244.538,259.907 L244.38,260.099 L244.281,260.19 L244.26,260.194 L244.314,260.135 L244.41,260.046 L244.684,259.83 L245.223,259.451 L245.899,259.008 L246.69,258.51 L247.579,257.961 L248.551,257.362 L249.594,256.714 L250.698,256.016 L251.85,255.268 L253.039,254.456 L254.254,253.589 L255.484,252.669 L256.719,251.694 L257.948,250.664 L259.154,249.573 L260.302,248.433 L260.836,247.866 C260.836,247.866 260.836,247.866 260.836,247.866 C261.229,247.482 261.396,247.007 261.21,246.805 C261.025,246.602 260.556,246.75 260.164,247.134 L260.164,247.134" fill="#000000"/>
    <path d="M212.835,231.517 L213.814,231.447 L215.872,231.299 L218.055,231.142 L220.352,230.979 L222.755,230.81 L225.256,230.636 L227.846,230.461 L230.515,230.284 L233.255,230.107 L236.057,229.932 L238.912,229.76 L241.812,229.593 L246.226,229.353 L252.183,229.064 L258.156,228.819 L262.602,228.671 L265.532,228.592 L268.43,228.531 L271.282,228.488 L274.081,228.465 L276.816,228.464 L279.48,228.486 L282.063,228.532 L284.556,228.604 L286.949,228.703 L289.234,228.83 L290.867,228.945 L291.915,229.031 L292.935,229.124 L293.92,229.226 L294.871,229.336 L295.785,229.454 L296.223,229.515 L296.223,229.515 C296.279,229.523 296.338,229.528 296.398,229.53 L296.398,229.53 L297.838,229.579 L300.688,229.677 L303.496,229.773 L306.262,229.867 L308.987,229.959 L311.671,230.048 L314.314,230.137 L316.917,230.223 L319.481,230.307 L322.004,230.39 L324.488,230.47 L326.934,230.549 L329.34,230.626 L331.708,230.702 L334.039,230.776 L336.331,230.847 L338.587,230.918 L340.805,230.986 L342.987,231.053 L345.132,231.118 L348.283,231.213 L352.36,231.334 L356.298,231.448 L360.099,231.556 L363.767,231.659 L367.303,231.755 L370.711,231.846 L373.993,231.931 L377.152,232.011 L380.189,232.086 L383.11,232.156 L385.915,232.221 L388.607,232.281 L391.19,232.337 L393.665,232.388 L396.036,232.434 L398.306,232.476 L400.476,232.514 L402.549,232.548 L404.529,232.579 L406.418,232.606 L408.218,232.629 L409.932,232.65 L411.563,232.668 L413.113,232.682 L414.585,232.694 L415.982,232.704 L417.307,232.711 L418.561,232.716 L419.749,232.718 L420.871,232.719 L421.933,232.718 L422.934,232.716 L423.879,232.711 L424.77,232.706 L425.61,232.699 L426.401,232.692 L427.147,232.683 L427.848,232.674 L428.509,232.664 L429.428,232.648 L430.536,232.627 L431.529,232.606 L432.424,232.587 L433.244,232.571 L434.378,232.555 L435.094,232.552 L435.086,232.552 L436.299,232.552 L438.692,232.552 L441.04,232.551 L443.344,232.551 L445.604,232.551 L447.819,232.55 L449.99,232.55 L452.116,232.55 L454.197,232.55 L456.234,232.549 L458.225,232.549 L460.172,232.549 L462.074,232.549 L463.931,232.549 L465.742,232.548 L467.509,232.548 L469.232,232.547 L470.908,232.546 L472.54,232.544 L474.127,232.543 L475.667,232.542 L477.163,232.541 L478.613,232.54 L480.017,232.539 L481.376,232.538 L482.689,232.537 L483.956,232.536 L485.178,232.536 L486.353,232.535 L487.483,232.534 L488.568,232.533 L489.605,232.532 L490.597,232.532 L491.542,232.531 L492.442,232.53 L493.295,232.53 L494.102,232.529 L494.863,232.529 L495.577,232.528 L496.245,232.528 L496.866,232.527 L497.44,232.527 L497.969,232.527 L498.45,232.526 L498.884,232.526 L499.272,232.526 L499.613,232.525 L499.907,232.525 L500.154,232.525 L500.354,232.525 L500.507,232.525 L500.613,232.525 L500.672,232.525 L500.683,232.525 L504.278,226.475 L504.195,226.475 L504.064,226.475 L503.886,226.476 L503.66,226.476 L503.387,226.476 L503.066,226.476 L502.697,226.476 L502.281,226.477 L501.817,226.477 L501.566,226.477 L501.566,226.477 C500.231,226.477 498.336,227.83 497.335,229.5 C496.333,231.169 496.603,232.523 497.939,232.523 C497.939,232.523 497.939,232.523 497.939,232.523 L498.188,232.523 L498.652,232.523 L499.068,232.524 L499.436,232.524 L499.757,232.524 L500.03,232.524 L500.255,232.524 L500.434,232.525 L500.564,232.525 L500.647,232.525 L504.314,226.475 L504.302,226.475 L504.244,226.475 L504.138,226.475 L503.985,226.475 L503.785,226.475 L503.538,226.475 L503.245,226.475 L502.904,226.474 L502.517,226.474 L502.082,226.474 L501.601,226.473 L501.074,226.473 L500.5,226.473 L499.879,226.472 L499.212,226.472 L498.498,226.471 L497.738,226.471 L496.932,226.47 L496.079,226.47 L495.181,226.469 L494.236,226.468 L493.245,226.468 L492.208,226.467 L491.125,226.466 L489.996,226.465 L488.822,226.464 L487.601,226.464 L486.335,226.463 L485.022,226.462 L483.665,226.461 L482.262,226.46 L480.813,226.459 L479.319,226.458 L477.779,226.457 L476.194,226.456 L474.564,226.454 L472.888,226.453 L471.168,226.452 L469.402,226.452 L467.59,226.451 L465.734,226.451 L463.832,226.451 L461.885,226.451 L459.894,226.451 L457.858,226.45 L455.777,226.45 L453.651,226.45 L451.481,226.45 L449.266,226.449 L447.007,226.449 L444.703,226.449 L442.354,226.448 L439.962,226.448 L438.748,226.448 L438.748,226.448 C438.745,226.448 438.743,226.448 438.74,226.448 L438.74,226.448 L437.986,226.452 L436.829,226.467 L436.004,226.483 L435.109,226.502 L434.125,226.523 L433.026,226.544 L432.114,226.559 L431.46,226.568 L430.766,226.577 L430.028,226.586 L429.244,226.593 L428.411,226.6 L427.527,226.605 L426.589,226.609 L425.594,226.611 L424.54,226.612 L423.424,226.611 L422.242,226.608 L420.994,226.603 L419.675,226.596 L418.283,226.586 L416.816,226.573 L415.271,226.558 L413.645,226.54 L411.936,226.52 L410.141,226.495 L408.257,226.468 L406.281,226.437 L404.212,226.402 L402.045,226.364 L399.78,226.322 L397.412,226.275 L394.939,226.226 L392.359,226.171 L389.668,226.113 L386.866,226.05 L383.947,225.981 L380.91,225.908 L377.753,225.83 L374.473,225.747 L371.066,225.658 L367.531,225.563 L363.864,225.463 L360.064,225.357 L356.127,225.245 L352.05,225.126 L348.899,225.033 L346.754,224.97 L344.572,224.904 L342.354,224.837 L340.099,224.768 L337.806,224.697 L335.476,224.625 L333.108,224.551 L330.701,224.475 L328.256,224.397 L325.772,224.318 L323.248,224.237 L320.685,224.154 L318.082,224.069 L315.439,223.982 L312.754,223.893 L310.03,223.803 L307.263,223.71 L304.455,223.616 L301.604,223.519 L300.163,223.47 L300.338,223.485 L299.867,223.42 L298.91,223.297 L297.921,223.184 L296.898,223.079 L295.845,222.983 L294.757,222.895 L293.074,222.778 L290.738,222.649 L288.298,222.549 L285.764,222.478 L283.143,222.432 L280.446,222.411 L277.679,222.414 L274.853,222.438 L271.975,222.483 L269.054,222.547 L266.096,222.628 L261.618,222.779 L255.612,223.028 L249.631,223.319 L245.202,223.559 L242.292,223.727 L239.428,223.899 L236.617,224.074 L233.87,224.251 L231.194,224.427 L228.599,224.603 L226.094,224.776 L223.686,224.945 L221.387,225.108 L219.204,225.264 L217.145,225.412 L216.165,225.483 C216.165,225.483 216.165,225.483 216.165,225.483 C214.771,225.583 212.897,227.015 211.977,228.682 C211.058,230.348 211.442,231.618 212.835,231.517 L212.835,231.517" fill="#000000"/>
    <g>
      <path d="M276.1,260.3 C300.468,234.681 318.469,203.531 343.7,178.3 C350.024,171.976 354.353,162.858 363.7,161.3 C371.273,160.038 387.933,170.352 396.7,172.3 C401.434,173.352 421.804,170.404 424.7,173.3 C426.96,175.56 398.533,199.034 395.7,201.3 C381.397,212.742 355.689,254.307 350.9,257.5 C350.047,258.068 281.734,260.3 276.1,260.3 z" fill="#FFFFFF"/>
      <path d="M277.154,261.136 L278.3,259.939 L280.607,257.478 L282.892,254.975 L285.139,252.445 L287.355,249.892 L289.541,247.319 L291.701,244.728 L293.836,242.122 L296.988,238.194 L301.133,232.918 L307.26,224.964 L313.337,217.007 L317.386,211.743 L321.46,206.529 L325.572,201.381 L328.686,197.586 L330.78,195.093 L332.903,192.616 L335.049,190.167 L337.217,187.749 L339.413,185.363 L341.639,183.012 L343.896,180.698 L345.017,179.576 L345.017,179.576 C345.03,179.563 345.042,179.55 345.055,179.537 L345.055,179.537 L345.644,178.938 L346.943,177.54 L348.784,175.409 L351.063,172.641 L352.668,170.719 L353.665,169.587 L354.648,168.545 L355.602,167.624 L356.26,167.052 L356.669,166.726 L357.118,166.391 L357.57,166.081 L358.03,165.794 L358.504,165.527 L358.999,165.277 L359.522,165.046 L360.078,164.832 L360.671,164.639 L361.306,164.469 L361.983,164.325 L362.302,164.271 L362.201,164.288 L362.561,164.238 L363.155,164.206 L363.799,164.224 L364.532,164.29 L365.337,164.407 L366.201,164.575 L367.116,164.79 L368.075,165.049 L369.072,165.351 L370.102,165.69 L371.161,166.062 L372.246,166.465 L373.914,167.12 L376.188,168.064 L378.492,169.063 L380.806,170.087 L383.104,171.109 L385.36,172.098 L387.013,172.801 L388.092,173.246 L389.146,173.665 L390.174,174.057 L391.175,174.417 L392.146,174.742 L393.085,175.028 L393.991,175.273 L394.447,175.381 L394.447,175.381 C394.462,175.385 394.478,175.388 394.494,175.391 L394.494,175.391 L394.726,175.438 L395.338,175.53 L396.038,175.597 L396.793,175.639 L397.605,175.662 L398.47,175.669 L399.384,175.661 L400.344,175.642 L401.344,175.612 L402.38,175.575 L403.985,175.508 L406.203,175.407 L408.46,175.307 L410.708,175.222 L412.899,175.166 L414.468,175.151 L415.465,175.157 L416.426,175.178 L417.335,175.216 L418.187,175.271 L418.974,175.345 L419.689,175.439 L420.323,175.552 L420.868,175.685 L421.314,175.834 L421.652,175.995 L421.874,176.153 L421.896,176.189 L421.791,176.081 L421.837,176.137 L421.746,176.028 L421.654,175.777 L421.636,175.496 L421.671,175.242 L421.721,175.054 L421.754,174.952 L421.75,174.936 L421.7,174.998 L421.601,175.129 L421.452,175.319 L421.257,175.559 L421.018,175.843 L420.738,176.164 L420.42,176.519 L420.067,176.903 L419.682,177.313 L419.266,177.746 L418.579,178.448 L417.583,179.436 L416.514,180.472 L415.372,181.555 L414.169,182.675 L412.268,184.412 L409.642,186.762 L407.661,188.504 L406.348,189.646 L405.047,190.769 L403.776,191.86 L402.546,192.909 L401.365,193.91 L400.246,194.853 L399.456,195.516 L398.954,195.936 L398.471,196.339 L398.011,196.722 L397.575,197.084 L397.165,197.424 L396.781,197.741 L396.424,198.035 L396.098,198.303 L395.802,198.545 L395.539,198.76 L395.31,198.946 L395.118,199.103 L394.965,199.226 L394.911,199.269 L394.911,199.269 C394.899,199.279 394.887,199.288 394.874,199.298 L394.874,199.298 L394.539,199.57 L393.734,200.247 L392.891,200.99 L392.049,201.763 L391.208,202.567 L390.364,203.4 L389.52,204.259 L388.672,205.147 L387.822,206.059 L386.969,206.996 L385.695,208.433 L383.976,210.434 L382.235,212.527 L380.484,214.691 L378.727,216.913 L376.968,219.182 L375.213,221.487 L372.601,224.979 L369.169,229.662 L366.654,233.148 L365.02,235.429 L363.431,237.657 L361.887,239.825 L360.397,241.919 L359.316,243.434 L358.618,244.411 L357.935,245.364 L357.268,246.291 L356.622,247.187 L355.994,248.052 L355.387,248.884 L354.801,249.681 L354.239,250.441 L353.699,251.162 L353.185,251.841 L352.699,252.477 L352.241,253.066 L351.814,253.605 L351.42,254.09 L351.065,254.517 L350.751,254.881 L350.486,255.176 L350.281,255.391 L350.152,255.515 L350.121,255.533 L350.229,255.428 L350.488,255.228 L351.589,254.606 L351.558,254.619 L352.118,254.424 L352.094,254.42 L351.85,254.445 L351.479,254.478 L351.007,254.514 L350.444,254.554 L349.798,254.596 L349.071,254.641 L348.269,254.687 L347.394,254.736 L346.451,254.786 L345.443,254.838 L344.372,254.891 L343.242,254.945 L342.056,255.001 L340.817,255.058 L339.527,255.116 L338.192,255.176 L336.812,255.236 L334.665,255.327 L331.676,255.455 L328.565,255.585 L325.356,255.717 L322.074,255.848 L318.741,255.98 L313.7,256.174 L308.679,256.366 L305.383,256.493 L302.156,256.615 L299.022,256.732 L296.006,256.843 L293.835,256.921 L292.438,256.971 L291.083,257.019 L289.774,257.065 L288.513,257.108 L287.304,257.151 L286.149,257.191 L285.052,257.229 L284.016,257.264 L283.044,257.296 L282.139,257.325 L281.304,257.351 L280.542,257.374 L279.857,257.394 L279.251,257.41 L278.727,257.423 L278.29,257.432 L277.945,257.437 L277.812,257.438 L277.812,257.438 C276.545,257.442 274.752,258.726 273.807,260.306 C272.862,261.887 273.122,263.165 274.388,263.162 C274.388,263.162 274.388,263.162 274.388,263.162 L274.542,263.162 L274.905,263.161 L275.352,263.157 L275.88,263.151 L276.489,263.143 L277.175,263.132 L277.935,263.119 L278.768,263.104 L279.669,263.086 L280.636,263.067 L281.667,263.045 L282.758,263.022 L283.906,262.997 L285.108,262.969 L286.362,262.939 L287.665,262.906 L289.014,262.873 L290.405,262.837 L292.565,262.781 L295.565,262.702 L298.682,262.617 L301.893,262.528 L305.172,262.435 L310.171,262.286 L315.195,262.128 L318.517,262.021 L321.789,261.913 L324.988,261.805 L328.09,261.698 L331.072,261.591 L333.216,261.51 L334.595,261.456 L335.932,261.403 L337.221,261.351 L338.461,261.299 L339.649,261.249 L340.782,261.2 L341.857,261.151 L342.871,261.104 L343.821,261.058 L344.705,261.013 L345.52,260.97 L346.263,260.928 L346.934,260.887 L347.529,260.847 L348.05,260.809 L348.502,260.77 L348.904,260.728 L349.343,260.661 L350.178,260.408 L350.211,260.394 L350.211,260.394 C350.573,260.242 350.945,260.031 351.312,259.772 L351.312,259.772 L351.803,259.408 L352.421,258.893 L352.959,258.394 L353.455,257.896 L353.932,257.386 L354.404,256.859 L354.881,256.306 L355.367,255.723 L355.865,255.111 L356.379,254.466 L356.908,253.788 L357.455,253.078 L358.019,252.334 L358.6,251.56 L359.2,250.754 L359.816,249.918 L360.448,249.054 L361.098,248.162 L361.763,247.243 L362.444,246.3 L363.139,245.333 L363.85,244.342 L364.939,242.821 L366.436,240.726 L367.976,238.571 L369.556,236.364 L371.165,234.124 L373.626,230.723 L376.976,226.155 L379.509,222.769 L381.189,220.564 L382.857,218.414 L384.505,216.33 L386.125,214.328 L387.71,212.421 L389.262,210.611 L390.396,209.329 L391.125,208.526 L391.835,207.76 L392.526,207.034 L393.197,206.348 L393.842,205.706 L394.463,205.109 L395.056,204.56 L395.617,204.06 L396.186,203.577 L396.526,203.302 L396.489,203.331 L396.577,203.26 L396.764,203.11 L396.981,202.933 L397.232,202.729 L397.513,202.499 L397.826,202.242 L398.168,201.961 L398.539,201.655 L398.938,201.324 L399.364,200.971 L399.814,200.597 L400.288,200.202 L400.785,199.786 L401.306,199.35 L402.124,198.662 L403.275,197.691 L404.49,196.659 L405.759,195.576 L407.071,194.448 L408.415,193.284 L409.79,192.083 L411.874,190.244 L414.625,187.773 L416.634,185.929 L417.94,184.707 L419.205,183.502 L420.419,182.32 L421.565,181.176 L422.377,180.344 L422.906,179.789 L423.416,179.242 L423.91,178.7 L424.387,178.163 L424.846,177.629 L425.288,177.095 L425.714,176.557 L426.123,176.011 L426.517,175.449 L426.892,174.865 L427.242,174.25 L427.557,173.598 L427.812,172.912 L427.973,172.212 L428.001,171.542 L427.872,170.959 L427.657,170.576 L427.609,170.519 L427.609,170.519 C427.577,170.48 427.542,170.444 427.504,170.411 L427.504,170.411 L427.229,170.184 L426.709,169.866 L426.12,169.613 L425.464,169.408 L424.744,169.243 L423.964,169.111 L423.126,169.007 L422.234,168.929 L421.293,168.874 L420.308,168.838 L419.284,168.821 L418.22,168.819 L416.579,168.842 L414.33,168.91 L412.048,169.006 L409.78,169.116 L407.574,169.226 L405.988,169.299 L404.979,169.34 L404.014,169.373 L403.101,169.396 L402.247,169.407 L401.46,169.405 L400.749,169.39 L400.122,169.359 L399.593,169.315 L399.141,169.254 L398.906,169.209 L398.953,169.219 L398.575,169.133 L397.749,168.917 L396.872,168.657 L395.949,168.356 L394.986,168.018 L393.986,167.645 L392.954,167.243 L391.894,166.815 L390.255,166.132 L387.998,165.162 L385.685,164.154 L383.342,163.137 L380.994,162.139 L378.666,161.192 L376.949,160.533 L375.818,160.122 L374.705,159.74 L373.608,159.391 L372.533,159.078 L371.479,158.804 L370.447,158.573 L369.437,158.39 L368.446,158.26 L367.467,158.189 L366.491,158.187 L365.562,158.26 L365.199,158.312 L365.199,158.312 C365.165,158.317 365.132,158.323 365.098,158.329 L365.098,158.329 L364.548,158.432 L363.53,158.667 L362.525,158.958 L361.53,159.306 L360.548,159.708 L359.58,160.164 L358.629,160.67 L357.699,161.222 L356.795,161.814 L355.92,162.44 L355.076,163.093 L354.223,163.804 L353.044,164.871 L351.635,166.271 L350.336,167.676 L349.112,169.087 L347.454,171.096 L345.402,173.624 L343.921,175.372 L342.931,176.46 L342.345,177.063 L342.383,177.024 L341.149,178.276 L338.758,180.76 L336.412,183.27 L334.108,185.804 L331.845,188.361 L329.621,190.937 L327.432,193.531 L325.265,196.151 L322.077,200.096 L317.923,205.376 L313.849,210.683 L309.832,216 L303.871,223.951 L297.917,231.851 L293.916,237.058 L290.883,240.923 L288.849,243.471 L286.798,245.997 L284.726,248.499 L282.631,250.975 L280.511,253.424 L278.365,255.846 L276.176,258.251 L275.046,259.464 C274.033,260.538 273.683,261.782 274.265,262.244 C274.847,262.705 276.14,262.209 277.154,261.136 L277.154,261.136" fill="#000000"/>
    </g>
    <path d="M179.011,360.312 L179.758,361.909 L181.262,365.06 L182.757,368.195 L184.223,371.341 L186.408,376.058 L189.308,382.347 L191.517,387.049 L193.028,390.169 L194.577,393.27 L196.173,396.352 L197.831,399.406 L199.559,402.429 L201.365,405.418 L203.261,408.368 L204.251,409.832 L204.251,409.832 C204.252,409.833 204.253,409.834 204.254,409.835 L204.254,409.835 L204.708,410.502 L205.57,411.803 L206.378,413.064 L207.134,414.281 L207.839,415.444 L208.492,416.546 L209.096,417.575 L209.649,418.525 L210.031,419.18 L210.271,419.588 L210.498,419.972 L210.714,420.332 L210.917,420.665 L211.11,420.973 L211.292,421.254 L211.465,421.509 L211.63,421.739 L211.791,421.944 L211.955,422.13 L212.135,422.302 L212.37,422.472 L212.787,422.646 L213.948,422.617 L216.979,420.714 L218.325,418.878 L218.325,418.878 C218.403,418.728 218.472,418.579 218.532,418.433 L218.532,418.433 L218.696,418.035 L219.092,416.946 L219.465,415.747 L219.805,414.491 L220.123,413.166 L220.424,411.767 L220.71,410.297 L220.985,408.757 L221.251,407.152 L221.508,405.488 L221.758,403.772 L222.001,402.01 L222.351,399.3 L222.795,395.59 L223.222,391.823 L223.632,388.062 L224.025,384.37 L224.316,381.683 L224.508,379.946 L224.695,378.261 L224.881,376.637 L225.068,375.08 L225.255,373.599 L225.442,372.204 L225.631,370.901 L225.816,369.704 L226.001,368.622 L226.091,368.144 L226.087,368.166 L226.177,367.703 L226.345,366.856 L226.499,366.101 L226.64,365.428 L226.766,364.833 L226.881,364.307 L226.986,363.846 L227.079,363.443 L227.163,363.091 L227.238,362.782 L227.305,362.509 L227.365,362.263 L227.446,361.926 L227.541,361.494 L227.626,361.013 L227.683,360.493 L227.706,359.963 L227.707,359.537 L227.7,359.235 L227.691,358.91 L227.678,358.547 L227.664,358.138 L227.648,357.676 L227.627,357.156 L227.601,356.573 L227.573,355.918 L227.52,355.201 L227.472,354.825 L227.472,354.825 C227.472,353.454 226.082,353.177 224.368,354.206 C222.654,355.234 221.265,357.18 221.266,358.551 C221.266,358.551 221.266,358.551 221.266,358.551 L221.218,358.992 L221.17,359.783 L221.149,360.477 L221.132,361.094 L221.123,361.638 L221.118,362.115 L221.113,362.531 L221.109,362.891 L221.104,363.199 L221.099,363.45 L221.091,363.732 L221.079,363.975 L221.065,364.119 L221.036,364.285 L220.965,364.574 L220.883,364.882 L220.813,365.138 L220.732,365.437 L220.641,365.782 L220.539,366.178 L220.426,366.627 L220.302,367.134 L220.166,367.705 L220.017,368.346 L219.857,369.06 L219.685,369.854 L219.5,370.73 L219.403,371.198 L219.403,371.198 C219.401,371.205 219.4,371.212 219.398,371.219 L219.398,371.219 L219.284,371.795 L219.065,372.984 L218.851,374.263 L218.645,375.628 L218.442,377.075 L218.24,378.596 L218.04,380.186 L217.84,381.837 L217.641,383.543 L217.446,385.293 L217.151,387.99 L216.754,391.678 L216.352,395.416 L215.94,399.143 L215.512,402.801 L215.181,405.46 L214.956,407.174 L214.724,408.833 L214.488,410.429 L214.245,411.953 L213.996,413.394 L213.743,414.744 L213.487,415.987 L213.23,417.112 L212.976,418.099 L212.737,418.92 L212.5,419.611 L212.339,420.01 L212.546,419.564 L213.847,417.815 L216.768,416.024 L217.793,416.027 L218.047,416.154 L218.092,416.202 L218.057,416.178 L217.978,416.096 L217.871,415.965 L217.741,415.791 L217.592,415.577 L217.426,415.328 L217.243,415.045 L217.046,414.73 L216.833,414.385 L216.607,414.011 L216.365,413.611 L215.976,412.962 L215.409,412.015 L214.785,410.985 L214.105,409.88 L213.371,408.71 L212.581,407.483 L211.736,406.21 L210.84,404.903 L210.375,404.243 L210.377,404.247 L209.393,402.842 L207.48,399.987 L205.649,397.089 L203.891,394.152 L202.195,391.182 L200.548,388.185 L198.944,385.162 L197.372,382.121 L195.044,377.533 L191.951,371.394 L189.595,366.798 L187.974,363.756 L186.309,360.732 L184.562,357.76 L183.642,356.312 C183.22,355.542 181.841,355.813 180.563,356.918 C179.284,358.022 178.589,359.542 179.011,360.312 L179.011,360.312" fill="#000000"/>
    <path d="M258.955,411.66 L258.354,411.517 L257.193,411.251 L255.987,411.147 L254.807,411.017 L253.671,410.82 L252.572,410.568 L251.518,410.246 L250.499,409.867 L249.526,409.418 L248.593,408.909 L247.701,408.34 L246.854,407.708 L246.049,407.02 L245.285,406.278 L244.567,405.48 L243.893,404.63 L243.259,403.735 L242.67,402.793 L242.126,401.806 L241.627,400.778 L241.169,399.715 L240.755,398.615 L240.387,397.482 L240.063,396.321 L239.78,395.134 L239.543,393.923 L239.35,392.69 L239.199,391.44 L239.089,390.178 L239.024,388.903 L239.003,387.62 L239.025,386.33 L239.091,385.039 L239.197,383.75 L239.342,382.467 L239.529,381.192 L239.757,379.927 L240.025,378.679 L240.334,377.449 L240.681,376.241 L241.065,375.061 L241.486,373.912 L241.936,372.799 L242.419,371.725 L242.931,370.697 L243.47,369.716 L244.033,368.788 L244.616,367.917 L245.215,367.104 L245.828,366.351 L246.455,365.656 L247.093,365.018 L247.747,364.431 L248.424,363.888 L249.132,363.384 L249.88,362.915 L250.677,362.48 L251.532,362.079 L252.45,361.716 L253.432,361.398 L254.48,361.132 L255.592,360.923 L256.767,360.779 L258.003,360.705 L258.613,360.698 L258.587,360.698 L259.455,360.697 L261.211,360.704 L262.96,360.748 L264.683,360.861 L265.94,361.007 L266.757,361.139 L267.572,361.306 L268.372,361.509 L269.156,361.753 L269.923,362.042 L270.671,362.378 L271.398,362.766 L271.739,362.972 L271.713,362.956 L272.026,363.158 L272.605,363.572 L273.159,364.019 L273.698,364.505 L274.223,365.03 L274.733,365.592 L275.226,366.189 L275.703,366.82 L276.162,367.485 L276.603,368.182 L277.026,368.908 L277.43,369.663 L277.814,370.445 L278.18,371.253 L278.525,372.085 L278.849,372.939 L279.153,373.815 L279.436,374.711 L279.697,375.625 L279.936,376.556 L280.256,377.988 L280.602,379.94 L280.853,381.923 L281.011,383.934 L281.07,385.96 L281.033,387.987 L280.896,390.002 L280.661,391.99 L280.325,393.937 L280.012,395.342 L279.777,396.247 L279.512,397.152 L279.225,398.034 L278.915,398.892 L278.584,399.721 L278.234,400.521 L277.865,401.288 L277.479,402.02 L277.079,402.713 L276.667,403.368 L276.245,403.981 L275.813,404.553 L275.375,405.084 L274.928,405.576 L274.473,406.033 L274.004,406.459 L273.518,406.859 L273.009,407.237 L272.469,407.598 L271.891,407.944 L271.271,408.275 L270.601,408.588 L269.881,408.882 L269.109,409.153 L268.283,409.395 L267.89,409.494 L268.503,409.408 L260.414,409.355 L260.414,409.355 C259.114,409.355 257.27,410.672 256.295,412.297 C255.32,413.922 255.583,415.24 256.883,415.24 L265.036,415.187 L265.036,415.187 C265.225,415.187 265.431,415.158 265.649,415.101 L265.649,415.101 L266.285,414.929 L267.468,414.558 L268.635,414.125 L269.788,413.627 L270.924,413.064 L272.042,412.435 L273.136,411.742 L274.204,410.988 L275.236,410.177 L276.229,409.316 L277.174,408.413 L278.068,407.476 L278.909,406.513 L279.696,405.527 L280.427,404.527 L281.107,403.513 L281.735,402.49 L282.316,401.457 L282.852,400.417 L283.344,399.37 L283.797,398.316 L284.211,397.255 L284.588,396.187 L284.931,395.114 L285.239,394.034 L285.521,392.929 L285.88,391.278 L286.249,389.087 L286.502,386.885 L286.645,384.682 L286.679,382.486 L286.608,380.306 L286.436,378.151 L286.165,376.031 L285.798,373.965 L285.461,372.454 L285.206,371.461 L284.927,370.485 L284.625,369.528 L284.3,368.591 L283.952,367.676 L283.581,366.783 L283.189,365.915 L282.774,365.071 L282.336,364.255 L281.877,363.467 L281.395,362.709 L280.892,361.982 L280.367,361.287 L279.819,360.626 L279.25,360 L278.658,359.412 L278.043,358.861 L277.406,358.351 L276.758,357.891 L276.444,357.687 L276.444,357.687 C276.436,357.682 276.427,357.676 276.418,357.671 L276.418,357.671 L275.988,357.414 L275.138,356.967 L274.268,356.58 L273.378,356.249 L272.474,355.971 L271.556,355.741 L270.631,355.554 L269.688,355.404 L268.279,355.244 L266.424,355.125 L264.601,355.079 L262.827,355.072 L261.958,355.073 L261.958,355.073 C261.949,355.073 261.941,355.073 261.932,355.073 L261.932,355.073 L261.139,355.088 L259.628,355.187 L258.136,355.383 L256.663,355.677 L255.207,356.069 L253.766,356.56 L252.343,357.15 L250.939,357.841 L249.561,358.63 L248.215,359.514 L246.912,360.483 L245.662,361.529 L244.472,362.64 L243.351,363.805 L242.302,365.012 L241.325,366.253 L240.419,367.52 L239.582,368.81 L238.809,370.119 L238.1,371.445 L237.449,372.786 L236.855,374.141 L236.317,375.508 L235.835,376.885 L235.404,378.272 L235.024,379.667 L234.694,381.068 L234.412,382.474 L234.178,383.882 L233.992,385.29 L233.853,386.697 L233.765,388.098 L233.727,389.491 L233.735,390.875 L233.79,392.248 L233.893,393.607 L234.043,394.949 L234.242,396.27 L234.491,397.568 L234.788,398.841 L235.132,400.087 L235.527,401.301 L235.971,402.48 L236.464,403.624 L237.005,404.73 L237.599,405.79 L238.243,406.805 L238.936,407.772 L239.68,408.689 L240.479,409.547 L241.329,410.349 L242.229,411.091 L243.184,411.765 L244.194,412.37 L245.256,412.905 L246.373,413.362 L247.549,413.735 L248.776,414.028 L250.065,414.223 L251.409,414.326 L252.814,414.318 L254.274,414.203 L255.808,413.936 L257.486,413.323 L258.342,412.935 C258.655,412.883 259.046,412.555 259.216,412.202 C259.385,411.85 259.268,411.607 258.955,411.66 L258.955,411.66" fill="#000000"/>
    <path d="M307.815,359.17 L307.855,359.211 L307.726,359.388 L307.547,359.54 L307.408,359.695 L307.193,360.037 L306.956,360.546 L306.977,360.958 L306.986,361.493 L306.995,362.11 L306.991,362.797 L306.984,363.901 L306.965,365.412 L306.954,366.491 L306.953,367.156 L306.954,367.76 L306.961,368.284 L306.969,368.521 L306.969,368.521 C306.969,368.526 306.97,368.531 306.97,368.536 L306.97,368.536 L307.019,369.601 L307.128,371.677 L307.234,373.689 L307.359,375.625 L307.477,377.501 L307.601,379.312 L307.726,381.06 L307.846,382.752 L307.968,384.384 L308.091,385.957 L308.206,387.477 L308.318,388.944 L308.434,390.352 L308.543,391.711 L308.646,393.02 L308.746,394.28 L308.847,395.487 L308.942,396.648 L309.031,397.763 L309.114,398.834 L309.198,399.857 L309.279,400.836 L309.353,401.773 L309.421,402.67 L309.484,403.528 L309.545,404.343 L309.604,405.118 L309.657,405.856 L309.705,406.559 L309.747,407.226 L309.808,408.159 L309.87,409.288 L309.92,410.285 L309.951,411.161 L309.97,411.92 L309.97,412.57 L309.961,413.111 L309.94,413.549 L309.909,413.882 L309.881,414.102 L309.866,414.197 L309.889,414.138 L310.002,413.887 L310.285,413.413 L310.795,412.779 L311.524,412.108 L312.106,411.724 L312.106,411.724 C310.528,412.597 309.175,414.373 309.083,415.69 C308.99,417.008 310.195,417.368 311.772,416.495 C311.772,416.495 311.772,416.495 311.772,416.495 L312.627,415.961 L313.748,414.993 L314.506,414.093 L315.023,413.281 L315.355,412.607 L315.579,412.025 L315.746,411.48 L315.879,410.932 L315.984,410.353 L316.074,409.72 L316.15,409.018 L316.205,408.237 L316.247,407.362 L316.268,406.389 L316.272,405.305 L316.252,404.109 L316.225,403.128 L316.196,402.435 L316.162,401.707 L316.122,400.944 L316.078,400.145 L316.024,399.311 L315.961,398.442 L315.891,397.534 L315.816,396.586 L315.734,395.598 L315.644,394.57 L315.539,393.504 L315.428,392.394 L315.31,391.241 L315.185,390.042 L315.044,388.803 L314.892,387.519 L314.733,386.188 L314.566,384.808 L314.38,383.385 L314.183,381.914 L313.977,380.392 L313.756,378.822 L313.516,377.206 L313.267,375.536 L312.999,373.818 L312.71,372.052 L312.41,370.231 L312.075,368.369 L311.726,366.453 L311.538,365.478 L311.54,365.493 L311.504,365.313 L311.424,364.862 L311.336,364.326 L311.24,363.722 L311.073,362.733 L310.807,361.362 L310.576,360.366 L310.4,359.746 L310.216,359.173 L310.008,358.67 L309.788,358.231 L309.282,358.11 L308.846,358.146 L308.549,358.184 L308.205,358.295 L307.901,358.51 L307.852,358.601 C307.663,358.706 307.501,358.919 307.491,359.076 C307.481,359.233 307.626,359.275 307.815,359.17 L307.815,359.17" fill="#000000"/>
    <path d="M282.653,359.247 L282.852,359.358 L283.308,359.582 L283.807,359.794 L284.336,359.987 L284.893,360.163 L285.479,360.322 L286.093,360.462 L286.734,360.588 L287.398,360.699 L288.086,360.797 L289.153,360.92 L290.651,361.044 L292.234,361.115 L293.885,361.141 L295.591,361.131 L297.347,361.085 L299.145,361.001 L300.973,360.891 L302.819,360.759 L305.61,360.511 L309.316,360.135 L312.051,359.826 L313.829,359.618 L315.559,359.41 L317.235,359.207 L318.843,359.015 L320.375,358.837 L321.82,358.678 L323.167,358.542 L324.408,358.428 L325.256,358.362 L325.777,358.328 L326.27,358.302 L326.726,358.285 L327.144,358.277 L327.522,358.279 L327.858,358.289 L328.147,358.309 L328.387,358.337 L328.573,358.37 L328.62,358.383 L328.62,358.383 C329.688,358.625 331.448,357.592 332.552,356.075 C333.656,354.558 333.684,353.133 332.616,352.891 L332.424,352.849 L332.073,352.793 L331.698,352.755 L331.295,352.73 L330.866,352.719 L330.408,352.719 L329.922,352.729 L329.407,352.749 L328.865,352.778 L328.29,352.817 L327.384,352.889 L326.092,353.01 L324.704,353.159 L323.228,353.331 L321.676,353.52 L320.053,353.724 L318.371,353.939 L316.636,354.163 L314.86,354.396 L312.138,354.742 L308.438,355.197 L305.656,355.508 L303.817,355.703 L302.003,355.875 L300.223,356.02 L298.484,356.146 L296.798,356.24 L295.177,356.296 L293.628,356.315 L292.153,356.297 L291.106,356.252 L290.445,356.206 L289.811,356.147 L289.205,356.075 L288.629,355.989 L288.082,355.893 L287.566,355.784 L287.084,355.661 L286.638,355.524 L286.216,355.368 L286.001,355.275 C286.001,355.275 286.001,355.275 286.001,355.275 C285.323,354.942 284.024,355.562 283.1,356.659 C282.175,357.756 281.975,358.915 282.653,359.247 L282.653,359.247" fill="#000000"/>
    <path d="M337.805,359.931 L337.799,360.172 L337.786,360.617 L337.774,361.014 L337.762,361.369 L337.747,361.828 L337.73,362.324 L337.718,362.716 L337.714,363.038 L337.725,363.449 L337.764,363.861 L337.808,364.16 L337.859,364.482 L337.922,364.873 L337.979,365.234 L338.021,365.513 L338.068,365.829 L338.119,366.186 L338.174,366.586 L338.235,367.034 L338.3,367.533 L338.37,368.086 L338.407,368.383 L338.406,368.373 L338.632,370.338 L338.983,374.231 L339.218,378.105 L339.359,381.975 L339.421,385.848 L339.425,389.727 L339.353,395.575 L339.285,399.488 L339.285,399.488 L339.282,399.699 L339.274,400.163 L339.267,400.671 L339.262,401.217 L339.258,402.096 L339.255,403.36 L339.257,404.696 L339.269,406.061 L339.289,407.419 L339.316,408.736 L339.358,409.969 L339.396,410.823 L339.424,411.351 L339.455,411.838 L339.488,412.282 L339.526,412.68 L339.569,413.033 L339.618,413.343 L339.678,413.624 L339.773,413.916 L340.085,414.367 L343.542,413.591 L345.844,410.675 L346.081,409.911 L346.178,409.407 L346.219,409.137 L346.219,409.137 C346.222,409.122 346.224,409.106 346.226,409.09 L346.226,409.09 L346.286,408.616 L346.378,407.582 L346.431,406.522 L346.44,405.464 L346.348,403.917 L346.11,401.862 L345.734,399.85 L345.259,397.899 L344.76,395.994 L344.28,394.136 L344.061,393.225 L344.061,393.225 C343.959,392.507 343.087,392.465 342.113,393.13 C341.139,393.796 340.431,394.918 340.533,395.637 C340.533,395.637 340.533,395.637 340.533,395.637 L340.586,396.649 L340.645,398.761 L340.644,400.948 L340.588,403.164 L340.515,405.342 L340.425,407.453 L340.32,408.983 L340.252,409.944 L340.168,410.867 L340.058,411.777 L339.992,412.257 L339.999,412.209 L339.983,412.317 L339.969,412.422 L340.102,412.079 L342.303,409.405 L345.663,408.703 L345.883,409.067 L345.891,409.123 L345.868,409.027 L345.838,408.829 L345.807,408.552 L345.775,408.209 L345.742,407.809 L345.71,407.358 L345.679,406.865 L345.636,406.05 L345.584,404.854 L345.53,403.577 L345.483,402.253 L345.441,400.923 L345.4,399.625 L345.367,398.396 L345.346,397.541 L345.334,397.013 L345.322,396.525 L345.313,396.079 L345.308,395.87 L345.308,395.87 C345.307,394.541 343.958,394.273 342.295,395.271 C340.631,396.27 339.284,398.158 339.285,399.488 C339.286,400.818 340.636,401.086 342.299,400.087 C343.962,399.089 345.31,397.201 345.308,395.871 L345.308,395.871 L345.231,392.015 L345.054,386.266 L344.875,382.437 L344.623,378.615 L344.285,374.794 L343.839,370.973 L343.272,367.159 L342.94,365.265 L342.94,365.265 C342.939,365.261 342.938,365.258 342.938,365.255 L342.938,365.255 L342.884,364.963 L342.782,364.422 L342.688,363.934 L342.602,363.494 L342.522,363.1 L342.45,362.748 L342.384,362.435 L342.325,362.158 L342.247,361.803 L342.163,361.43 L342.1,361.152 L342.059,360.963 L342.017,360.731 L341.99,360.438 L341.978,360.167 L341.968,359.801 L341.959,359.321 L341.95,358.873 L341.942,358.525 L341.933,358.135 L341.922,357.7 L341.916,357.464 C341.916,356.556 340.996,356.372 339.861,357.053 C338.726,357.734 337.805,359.022 337.805,359.931 L337.805,359.931" fill="#000000"/>
    <path d="M338.688,360.785 L338.885,360.67 L339.149,360.553 L339.441,360.447 L339.809,360.328 L340.243,360.204 L340.731,360.08 L341.265,359.963 L341.839,359.854 L342.772,359.706 L344.106,359.537 L345.514,359.396 L346.977,359.285 L348.476,359.191 L349.983,359.113 L351.473,359.051 L352.932,358.985 L354.331,358.924 L355.647,358.863 L356.863,358.795 L357.702,358.735 L358.23,358.685 L358.488,358.657 L358.468,358.66 L358.695,358.638 L359.107,358.617 L359.559,358.613 L360.072,358.622 L360.638,358.644 L361.257,358.676 L361.922,358.716 L362.635,358.759 L363.392,358.803 L364.194,358.845 L365.04,358.881 L365.93,358.909 L366.865,358.921 L367.845,358.917 L368.867,358.895 L369.933,358.849 L370.493,358.816 L370.493,358.816 C371.67,358.736 373.258,357.526 374.041,356.115 C374.823,354.704 374.503,353.625 373.325,353.706 L372.818,353.746 L371.81,353.81 L370.838,353.853 L369.902,353.876 L369.001,353.884 L368.133,353.881 L367.301,353.868 L366.503,353.848 L365.74,353.825 L365.009,353.8 L364.31,353.779 L363.642,353.763 L363,353.756 L362.383,353.763 L361.781,353.788 L361.218,353.834 L360.986,353.863 L360.986,353.863 C360.98,353.863 360.973,353.864 360.967,353.865 L360.967,353.865 L360.753,353.894 L360.277,353.952 L359.471,354.042 L358.259,354.16 L356.922,354.276 L355.485,354.397 L353.973,354.527 L352.4,354.683 L350.796,354.858 L349.181,355.06 L347.573,355.301 L345.996,355.576 L344.475,355.898 L343.381,356.173 L342.668,356.376 L341.972,356.595 L341.294,356.833 L340.631,357.097 L339.977,357.396 L339.326,357.737 L338.733,358.098 L338.536,358.235 C338.536,358.235 338.536,358.235 338.536,358.235 C337.624,358.815 336.919,359.857 336.961,360.561 C337.003,361.265 337.776,361.365 338.688,360.785 L338.688,360.785" fill="#000000"/>
    <path d="M340.254,389.347 L340.866,389.281 L342.051,389.1 L343.221,388.96 L344.41,388.842 L345.617,388.754 L346.842,388.692 L348.726,388.638 L351.292,388.602 L353.91,388.577 L356.638,388.43 L359.649,387.776 L361.68,386.45 L361.68,386.45 C362.517,386.355 363.607,385.487 364.116,384.512 C364.624,383.538 364.358,382.825 363.52,382.921 C363.52,382.921 363.52,382.921 363.52,382.921 L362.812,381.909 L360.315,381.752 L357.512,382.014 L354.594,382.413 L351.632,382.919 L349.389,383.41 L347.874,383.803 L346.354,384.256 L344.83,384.78 L343.303,385.395 L341.811,386.095 L341.091,386.521 C340.289,386.818 339.451,387.69 339.22,388.471 C338.989,389.251 339.452,389.643 340.254,389.347 L340.254,389.347" fill="#000000"/>
    <path d="M339.352,413.071 L339.632,413.445 L340.278,414.099 L341.005,414.66 L341.792,415.144 L342.638,415.546 L343.531,415.881 L344.46,416.162 L345.432,416.376 L346.429,416.548 L347.457,416.665 L348.506,416.746 L349.578,416.782 L351.204,416.777 L353.422,416.669 L355.683,416.473 L357.956,416.217 L361.354,415.779 L364.701,415.356 L366.861,415.124 L368.968,414.962 L370.489,414.897 L371.469,414.886 L371.943,414.891 L371.943,414.891 C373.454,414.88 375.587,413.346 376.706,411.465 C377.826,409.584 377.508,408.069 375.997,408.08 L375.416,408.093 L374.265,408.145 L372.533,408.28 L370.218,408.55 L367.879,408.899 L364.384,409.525 L360.902,410.209 L358.606,410.664 L356.339,411.096 L354.094,411.488 L352.431,411.745 L351.342,411.892 L350.259,412.025 L349.189,412.13 L348.123,412.22 L347.071,412.277 L346.017,412.319 L344.971,412.329 L343.927,412.313 L342.873,412.279 L341.812,412.219 L340.727,412.142 L340.163,412.106 C340.163,412.106 340.163,412.106 340.163,412.106 C339.998,412.026 339.682,412.177 339.458,412.444 C339.234,412.71 339.187,412.991 339.352,413.071 L339.352,413.071" fill="#000000"/>
  </g>
</svg>
