<?xml version="1.0" encoding="UTF-8"?>
<!DOCTYPE svg PUBLIC "-//W3C//DTD SVG 1.1//EN" "http://www.w3.org/Graphics/SVG/1.1/DTD/svg11.dtd">
<svg version="1.1" xmlns="http://www.w3.org/2000/svg" xmlns:xlink="http://www.w3.org/1999/xlink" x="0" y="0" width="262.233" height="253.067" viewBox="0, 0, 262.233, 253.067">
  <g id="Layer_1" transform="translate(-123.594, -401.744)">
    <path d="M237.78,494.577 L237.16,494.745 L235.805,495.156 L234.428,495.639 L233.071,496.182 L231.732,496.789 L230.411,497.459 L229.11,498.195 L227.83,498.997 L226.574,499.865 L225.348,500.796 L224.157,501.788 L223.01,502.834 L221.912,503.927 L220.87,505.059 L219.89,506.222 L218.975,507.408 L218.125,508.609 L217.341,509.821 L216.622,511.039 L215.965,512.26 L215.367,513.483 L214.826,514.705 L214.339,515.927 L213.903,517.15 L213.517,518.372 L213.177,519.593 L212.882,520.814 L212.63,522.035 L212.42,523.256 L212.252,524.475 L212.123,525.693 L212.033,526.91 L211.971,528.711 L212.015,531.111 L212.205,533.512 L212.443,535.311 L212.648,536.504 L212.885,537.672 L213.156,538.831 L213.462,539.979 L213.802,541.114 L214.176,542.235 L214.583,543.342 L215.024,544.433 L215.498,545.507 L216.006,546.563 L216.546,547.599 L217.119,548.615 L217.725,549.609 L218.364,550.579 L219.035,551.525 L219.739,552.445 L220.475,553.337 L221.243,554.201 L222.044,555.035 L222.876,555.838 L223.741,556.609 L224.638,557.346 L225.567,558.047 L226.528,558.712 L227.521,559.339 L228.042,559.645 L228.042,559.645 C228.052,559.65 228.061,559.656 228.071,559.661 L228.071,559.661 L228.959,560.153 L230.779,561.067 L232.612,561.864 L234.443,562.536 L236.272,563.088 L238.1,563.522 L239.928,563.841 L241.755,564.046 L243.582,564.141 L245.41,564.128 L247.238,564.009 L249.066,563.787 L250.894,563.464 L252.72,563.042 L254.543,562.525 L256.36,561.917 L258.171,561.219 L259.972,560.438 L261.76,559.577 L263.532,558.641 L265.287,557.636 L267.02,556.568 L268.731,555.441 L270.416,554.263 L272.076,553.037 L273.707,551.77 L275.309,550.467 L276.883,549.132 L278.428,547.77 L279.943,546.385 L281.43,544.982 L282.887,543.566 L283.629,542.83 L283.629,542.83 C283.667,542.791 283.706,542.753 283.744,542.714 L283.744,542.714 L284.175,542.271 L285.268,541.072 L286.376,539.733 L287.404,538.358 L288.345,536.957 L289.201,535.537 L289.968,534.103 L290.646,532.663 L291.235,531.22 L291.735,529.778 L292.146,528.34 L292.467,526.91 L292.697,525.49 L292.835,524.083 L292.881,522.693 L292.832,521.321 L292.769,520.604 L292.769,520.604 C292.767,520.586 292.765,520.569 292.763,520.552 L292.763,520.552 L292.69,519.929 L292.519,518.664 L292.318,517.415 L292.088,516.194 L291.831,515 L291.547,513.836 L291.236,512.699 L290.897,511.59 L290.533,510.51 L290.143,509.458 L289.726,508.433 L289.284,507.436 L288.817,506.467 L288.326,505.527 L287.809,504.614 L287.269,503.729 L286.704,502.872 L286.117,502.043 L285.505,501.241 L284.872,500.468 L284.215,499.721 L283.536,499.004 L282.835,498.313 L282.113,497.65 L281.37,497.015 L280.605,496.407 L279.82,495.828 L279.014,495.275 L278.189,494.75 L277.344,494.252 L276.479,493.782 L275.596,493.34 L274.693,492.924 L273.773,492.536 L272.834,492.175 L271.878,491.842 L270.904,491.535 L269.913,491.256 L268.906,491.004 L267.882,490.779 L266.842,490.582 L265.786,490.411 L264.714,490.267 L263.629,490.15 L262.527,490.061 L261.411,489.998 L260.282,489.962 L259.138,489.953 L257.412,489.989 L255.061,490.129 L252.646,490.377 L250.184,490.732 L247.677,491.192 L245.129,491.759 L242.542,492.431 L239.918,493.209 L238.556,493.65 L238.556,493.65 C237.552,493.975 236.451,494.694 235.5,495.644 L235.5,495.644 L234.509,496.636 L234.509,496.636 C232.556,498.588 231.765,500.963 232.741,501.939 C233.717,502.915 236.092,502.124 238.044,500.171 C238.044,500.171 238.044,500.171 238.044,500.171 L239.036,499.18 L235.98,501.175 L237.12,500.803 L239.456,500.106 L241.761,499.502 L244.035,498.991 L246.274,498.574 L248.477,498.252 L250.642,498.025 L252.779,497.893 L254.356,497.858 L255.383,497.865 L256.399,497.896 L257.402,497.951 L258.393,498.031 L259.372,498.134 L260.336,498.262 L261.288,498.415 L262.226,498.592 L263.15,498.793 L264.06,499.019 L264.955,499.27 L265.835,499.545 L266.7,499.845 L267.549,500.17 L268.383,500.52 L269.2,500.895 L270.001,501.294 L270.786,501.719 L271.553,502.169 L272.302,502.644 L273.034,503.144 L273.748,503.67 L274.443,504.22 L275.12,504.796 L275.778,505.398 L276.417,506.025 L277.036,506.678 L277.634,507.356 L278.213,508.06 L278.771,508.789 L279.309,509.544 L279.825,510.326 L280.32,511.133 L280.793,511.966 L281.244,512.825 L281.672,513.71 L282.078,514.622 L282.46,515.56 L282.819,516.524 L283.155,517.515 L283.467,518.531 L283.754,519.575 L284.016,520.645 L284.254,521.742 L284.466,522.865 L284.653,524.015 L284.815,525.205 L284.888,525.83 L284.883,525.778 L284.93,526.256 L284.977,527.287 L284.954,528.309 L284.866,529.318 L284.718,530.307 L284.513,531.273 L284.258,532.211 L283.957,533.117 L283.617,533.985 L283.242,534.814 L282.84,535.598 L282.413,536.336 L281.968,537.027 L281.509,537.67 L281.036,538.269 L280.461,538.917 L280.027,539.362 L280.142,539.246 L279.546,539.838 L278.301,541.052 L277.049,542.236 L275.791,543.389 L274.527,544.508 L273.258,545.59 L271.983,546.632 L270.704,547.631 L269.42,548.586 L268.13,549.495 L266.834,550.357 L265.53,551.169 L264.217,551.93 L262.891,552.638 L261.552,553.293 L260.196,553.891 L258.823,554.429 L257.428,554.906 L256.012,555.317 L254.573,555.658 L253.109,555.926 L251.62,556.116 L250.106,556.223 L248.568,556.241 L247.005,556.167 L245.42,555.996 L243.812,555.722 L242.183,555.342 L240.533,554.849 L238.864,554.241 L237.177,553.513 L235.457,552.652 L234.567,552.159 L234.596,552.176 L234.148,551.914 L233.248,551.349 L232.374,550.747 L231.527,550.109 L230.707,549.438 L229.915,548.735 L229.15,548.001 L228.414,547.236 L227.707,546.443 L227.029,545.623 L226.38,544.777 L225.76,543.907 L225.17,543.013 L224.61,542.098 L224.08,541.163 L223.581,540.209 L223.112,539.237 L222.675,538.25 L222.268,537.247 L221.893,536.232 L221.549,535.205 L221.237,534.169 L220.957,533.123 L220.709,532.071 L220.492,531.013 L220.311,529.967 L220.096,528.389 L219.92,526.268 L219.873,524.142 L219.924,522.56 L219.997,521.531 L220.102,520.515 L220.237,519.514 L220.402,518.531 L220.596,517.568 L220.819,516.627 L221.069,515.711 L221.344,514.822 L221.643,513.965 L221.965,513.14 L222.306,512.35 L222.664,511.598 L223.037,510.886 L223.422,510.215 L223.818,509.582 L224.223,508.989 L224.638,508.431 L225.064,507.904 L225.506,507.404 L225.968,506.924 L226.458,506.459 L226.982,506.004 L227.548,505.557 L228.163,505.116 L228.832,504.682 L229.559,504.258 L230.345,503.847 L231.194,503.452 L232.104,503.078 L233.075,502.73 L234.149,502.399 L234.773,502.23 C234.773,502.23 234.773,502.23 234.773,502.23 C236.792,501.683 239.102,499.527 239.932,497.413 C240.763,495.3 239.799,494.03 237.78,494.577 L237.78,494.577" fill="#000000"/>
    <path d="M250.803,410.486 L250.712,412.334 L250.532,415.926 L250.356,419.395 L250.186,422.758 L250.023,426.037 L249.867,429.249 L249.65,433.985 L249.398,440.245 L249.241,444.987 L249.154,448.206 L249.082,451.489 L249.027,454.856 L248.988,458.328 L248.972,461.013 L248.967,462.846 L248.966,463.777 L248.966,463.777 C248.965,465.524 250.734,465.879 252.917,464.571 C255.1,463.262 256.871,460.784 256.872,459.037 C256.872,459.037 256.872,459.037 256.872,459.037 L256.873,458.117 L256.878,456.301 L256.894,453.641 L256.932,450.198 L256.987,446.859 L257.058,443.604 L257.144,440.417 L257.299,435.714 L257.55,429.484 L257.767,424.763 L257.922,421.558 L258.085,418.283 L258.255,414.92 L258.431,411.449 L258.611,407.853 L258.702,406.002 C258.79,404.204 257.094,403.75 254.912,404.988 C252.731,406.226 250.891,408.688 250.803,410.486 L250.803,410.486" fill="#000000"/>
    <path d="M190.965,528.954 L189.81,529.024 L187.587,529.142 L185.456,529.232 L183.405,529.296 L181.425,529.337 L179.513,529.357 L177.661,529.357 L175.864,529.34 L174.114,529.308 L172.407,529.262 L170.736,529.204 L169.094,529.137 L166.672,529.023 L163.494,528.855 L160.329,528.684 L157.129,528.527 L154.672,528.427 L152.997,528.373 L151.29,528.331 L149.542,528.304 L147.748,528.294 L145.902,528.303 L143.999,528.332 L142.033,528.385 L139.998,528.462 L137.889,528.566 L135.7,528.699 L133.427,528.863 L132.248,528.958 L132.248,528.958 C130.417,529.105 127.969,530.99 126.78,533.168 C125.59,535.346 126.11,536.993 127.941,536.846 C127.941,536.846 127.941,536.846 127.941,536.846 L129.071,536.755 L131.281,536.595 L133.407,536.465 L135.453,536.364 L137.427,536.289 L139.334,536.237 L141.182,536.209 L142.975,536.2 L144.721,536.21 L146.425,536.235 L148.093,536.276 L149.729,536.328 L152.145,536.426 L155.324,536.583 L158.494,536.754 L161.698,536.923 L164.151,537.039 L165.822,537.107 L167.529,537.166 L169.278,537.212 L171.072,537.246 L172.918,537.263 L174.821,537.262 L176.788,537.242 L178.823,537.199 L180.934,537.133 L183.123,537.04 L185.391,536.92 L186.549,536.85 C186.549,536.85 186.549,536.85 186.549,536.85 C188.359,536.739 190.816,534.882 192.035,532.701 C193.255,530.521 192.776,528.843 190.965,528.954 L190.965,528.954" fill="#000000"/>
    <path d="M250.8,591.184 L250.798,592.333 L250.788,594.567 L250.768,596.724 L250.739,598.813 L250.701,600.84 L250.656,602.809 L250.604,604.725 L250.546,606.594 L250.482,608.42 L250.413,610.21 L250.301,612.839 L250.141,616.26 L249.972,619.625 L249.801,622.975 L249.632,626.351 L249.47,629.793 L249.358,632.445 L249.288,634.254 L249.223,636.101 L249.164,637.991 L249.111,639.929 L249.066,641.921 L249.028,643.971 L248.998,646.084 L248.978,648.266 L248.968,650.52 L248.966,651.679 L248.966,651.679 C248.964,653.427 250.732,653.783 252.915,652.475 C255.098,651.167 256.87,648.69 256.872,646.942 L256.873,645.801 L256.884,643.571 L256.904,641.413 L256.933,639.324 L256.97,637.297 L257.015,635.328 L257.067,633.411 L257.125,631.542 L257.189,629.714 L257.258,627.925 L257.37,625.298 L257.531,621.874 L257.699,618.504 L257.871,615.147 L258.04,611.766 L258.202,608.32 L258.315,605.67 L258.384,603.862 L258.449,602.014 L258.508,600.124 L258.561,598.185 L258.606,596.193 L258.644,594.142 L258.673,592.029 L258.694,589.848 L258.704,587.596 L258.705,586.446 C258.707,584.698 256.939,584.342 254.756,585.65 C252.573,586.959 250.802,589.436 250.8,591.184 L250.8,591.184" fill="#000000"/>
    <path d="M316.101,524.899 L317.174,524.725 L319.224,524.455 L321.252,524.264 L323.292,524.142 L325.341,524.083 L327.395,524.083 L329.453,524.135 L331.512,524.235 L333.57,524.375 L335.626,524.55 L338.708,524.867 L342.787,525.352 L346.824,525.866 L349.826,526.238 L351.816,526.47 L353.792,526.679 L355.754,526.859 L357.704,527.005 L359.641,527.108 L361.565,527.163 L363.477,527.161 L365.379,527.096 L367.273,526.959 L369.16,526.741 L371.045,526.434 L372.934,526.025 L374.829,525.502 L376.738,524.851 L378.667,524.055 L379.735,523.551 L379.735,523.551 C381.894,522.518 383.909,520.121 384.235,518.198 C384.562,516.275 383.077,515.554 380.919,516.588 C380.919,516.588 380.919,516.588 380.919,516.588 L380.411,516.839 L379.135,517.386 L377.773,517.866 L376.333,518.275 L374.822,518.611 L373.249,518.875 L371.619,519.068 L369.939,519.193 L368.214,519.256 L366.446,519.259 L364.641,519.209 L362.8,519.112 L360.927,518.973 L359.023,518.798 L357.091,518.594 L355.133,518.366 L352.143,517.995 L348.074,517.478 L343.926,516.984 L340.77,516.661 L338.639,516.48 L336.489,516.335 L334.321,516.231 L332.136,516.177 L329.933,516.18 L327.712,516.246 L325.473,516.384 L323.214,516.601 L320.971,516.899 L319.895,517.073 C317.98,517.384 315.578,519.388 314.53,521.549 C313.483,523.71 314.186,525.21 316.101,524.899 L316.101,524.899" fill="#000000"/>
    <path d="M303.598,474.039 L303.615,473.897 L303.644,473.742 L303.68,473.599 L303.733,473.415 L303.803,473.193 L303.891,472.936 L304.07,472.462 L304.371,471.746 L304.733,470.96 L305.162,470.088 L305.656,469.142 L306.207,468.137 L306.81,467.082 L307.46,465.987 L308.151,464.863 L309.269,463.118 L310.848,460.784 L312.475,458.52 L313.689,456.924 L314.48,455.926 L315.28,454.954 L316.057,454.046 L316.803,453.215 L317.508,452.47 L318.157,451.825 L318.737,451.291 L319.226,450.882 L319.605,450.605 L319.739,450.531 L319.745,450.54 L319.778,450.531 L319.774,450.544 L319.737,450.573 L319.672,450.609 L319.591,450.646 L319.503,450.677 L319.376,450.693 L319.376,450.693 C321.156,450.636 323.624,448.82 324.888,446.638 C326.151,444.456 325.733,442.733 323.953,442.79 C323.953,442.79 323.953,442.79 323.953,442.79 L323.56,442.814 L322.919,442.912 L322.256,443.082 L321.583,443.315 L320.911,443.603 L320.248,443.936 L319.599,444.304 L318.9,444.746 L317.937,445.423 L316.787,446.329 L315.678,447.294 L314.6,448.31 L313.543,449.377 L312.499,450.492 L311.466,451.652 L310.443,452.853 L309.429,454.091 L308.404,455.392 L306.906,457.373 L304.994,460.045 L303.187,462.726 L301.911,464.724 L301.093,466.058 L300.315,467.373 L299.578,468.667 L298.889,469.933 L298.25,471.166 L297.665,472.367 L297.139,473.53 L296.688,474.628 L296.398,475.416 L296.221,475.949 L296.065,476.475 L295.932,476.994 L295.824,477.508 L295.751,477.963 L295.734,478.106 C295.51,479.978 297.088,480.585 299.26,479.462 C301.431,478.339 303.373,475.91 303.598,474.039 L303.598,474.039" fill="#000000"/>
    <path d="M216.982,484.959 L216.471,484.918 L215.532,484.802 L214.605,484.638 L213.665,484.424 L212.712,484.162 L211.751,483.853 L210.782,483.5 L209.808,483.103 L208.831,482.665 L207.852,482.188 L206.873,481.674 L205.895,481.127 L204.425,480.241 L202.484,478.963 L200.573,477.593 L198.693,476.145 L196.852,474.638 L195.056,473.09 L193.312,471.52 L191.626,469.946 L190.005,468.388 L188.453,466.862 L187.708,466.119 L187.708,466.119 C186.73,465.145 184.355,465.938 182.403,467.891 C180.452,469.845 179.662,472.218 180.64,473.193 L181.397,473.947 L182.968,475.492 L184.616,477.077 L186.336,478.681 L188.121,480.287 L189.966,481.876 L191.866,483.43 L193.816,484.931 L195.812,486.359 L197.843,487.694 L199.387,488.622 L200.432,489.207 L201.485,489.757 L202.548,490.273 L203.618,490.751 L204.697,491.188 L205.785,491.583 L206.881,491.932 L207.988,492.232 L209.106,492.481 L210.235,492.676 L211.348,492.809 L211.861,492.85 C213.524,492.984 216.019,491.326 217.433,489.147 C218.847,486.968 218.646,485.093 216.982,484.959 L216.982,484.959" fill="#000000"/>
    <path d="M210.01,577.519 L209.723,578.126 L209.176,579.229 L208.311,580.854 L207.072,582.998 L205.755,585.11 L204.351,587.231 L202.87,589.369 L200.516,592.639 L197.26,597.055 L194.779,600.451 L193.116,602.795 L191.489,605.173 L189.91,607.602 L188.401,610.085 L186.982,612.623 L186.278,613.981 L186.278,613.981 C185.16,616.152 185.774,617.725 187.649,617.494 C189.525,617.263 191.951,615.316 193.069,613.145 L193.553,612.196 L194.686,610.15 L195.934,608.084 L197.288,605.992 L198.736,603.87 L200.258,601.724 L202.69,598.393 L206.07,593.807 L208.614,590.269 L210.301,587.825 L211.95,585.322 L213.537,582.759 L215.022,580.17 L216.062,578.203 L216.712,576.888 L217.001,576.279 C218.02,574.122 217.282,572.652 215.351,572.995 C213.421,573.338 211.029,575.363 210.01,577.519 L210.01,577.519" fill="#000000"/>
    <path d="M291.299,570.713 L291.656,570.8 L292.312,570.983 L292.942,571.188 L293.565,571.42 L294.501,571.821 L295.719,572.442 L296.898,573.15 L298.053,573.946 L299.184,574.823 L300.292,575.776 L301.379,576.796 L302.447,577.877 L303.497,579.013 L304.532,580.195 L305.553,581.417 L306.564,582.672 L308.066,584.601 L310.05,587.214 L312.035,589.823 L313.542,591.746 L314.562,593 L315.595,594.219 L316.645,595.398 L317.716,596.529 L318.813,597.605 L319.938,598.619 L321.096,599.563 L322.292,600.429 L323.53,601.21 L324.816,601.898 L326.156,602.482 L326.879,602.745 L326.879,602.745 C328.278,603.246 330.771,601.93 332.447,599.805 C334.123,597.681 334.348,595.552 332.949,595.05 L332.406,594.859 L331.272,594.374 L330.156,593.784 L329.058,593.098 L327.977,592.32 L326.914,591.458 L325.867,590.517 L324.835,589.506 L323.815,588.432 L322.806,587.301 L321.806,586.121 L320.815,584.903 L319.33,583.008 L317.347,580.402 L315.343,577.764 L313.815,575.802 L312.776,574.512 L311.717,573.247 L310.636,572.012 L309.529,570.818 L308.393,569.669 L307.223,568.575 L306.016,567.542 L304.767,566.579 L303.473,565.693 L302.127,564.893 L300.738,564.193 L299.663,563.736 L298.918,563.462 L298.155,563.217 L297.394,563.007 L297.034,562.919 C297.034,562.919 297.034,562.919 297.034,562.919 C295.531,562.554 293.029,564.002 291.446,566.155 C289.862,568.307 289.796,570.348 291.299,570.713 L291.299,570.713" fill="#000000"/>
  </g>
</svg>
